<svg width="24" height="25" viewBox="0 0 24 25" fill="none" xmlns="http://www.w3.org/2000/svg">
<path d="M3.00977 11.7793V16.2693C3.00977 20.7593 4.80977 22.5593 9.29977 22.5593H14.6898C19.1798 22.5593 20.9798 20.7593 20.9798 16.2693V11.7793" stroke="white" stroke-width="1.5" stroke-linecap="round" stroke-linejoin="round"/>
<path d="M12 12.5593C13.83 12.5593 15.18 11.0693 15 9.23933L14.34 2.55933H9.66999L8.99999 9.23933C8.81999 11.0693 10.17 12.5593 12 12.5593Z" stroke="white" stroke-width="1.5" stroke-linecap="round" stroke-linejoin="round"/>
<path d="M18.3098 12.5593C20.3298 12.5593 21.8098 10.9193 21.6098 8.90933L21.3298 6.15933C20.9698 3.55933 19.9698 2.55933 17.3498 2.55933H14.2998L14.9998 9.56933C15.1698 11.2193 16.6598 12.5593 18.3098 12.5593Z" stroke="white" stroke-width="1.5" stroke-linecap="round" stroke-linejoin="round"/>
<path d="M5.63988 12.5593C7.28988 12.5593 8.77988 11.2193 8.93988 9.56933L9.15988 7.35933L9.63988 2.55933H6.58988C3.96988 2.55933 2.96988 3.55933 2.60988 6.15933L2.33988 8.90933C2.13988 10.9193 3.61988 12.5593 5.63988 12.5593Z" stroke="white" stroke-width="1.5" stroke-linecap="round" stroke-linejoin="round"/>
<path d="M12 17.5593C10.33 17.5593 9.5 18.3893 9.5 20.0593V22.5593H14.5V20.0593C14.5 18.3893 13.67 17.5593 12 17.5593Z" stroke="white" stroke-width="1.5" stroke-linecap="round" stroke-linejoin="round"/>
</svg>
