<svg width="213" height="76" viewBox="0 0 213 76" fill="none" xmlns="http://www.w3.org/2000/svg">
<g clip-path="url(#clip0_318_1164)">
<path d="M35.7923 63.5601C34.7912 63.5601 34.0176 63.5601 33.5171 63.5601V73.5934H34.4727V63.8325H35.4737C37.3394 63.8325 38.2949 64.6043 38.2949 66.2387C38.2949 67.8731 38.0674 67.5099 37.6579 67.9639C37.2029 68.4633 36.5658 68.6903 35.7468 68.6903H35.4737V69.0081C35.6102 69.0081 35.7923 69.0081 35.9743 69.0081C36.8843 69.0081 37.6579 68.7811 38.2949 68.2363C38.932 67.6915 39.296 67.0559 39.296 66.2841C39.296 64.4681 38.1129 63.5147 35.7923 63.5601Z" fill="white"/>
<path d="M46.9862 67.6006C47.3957 67.192 47.6232 66.6472 47.6232 66.0116C47.6232 64.3773 46.4401 63.5601 44.0739 63.5601C43.0729 63.5601 42.4813 63.5601 42.2993 63.5601V73.6388H43.2549V63.8325H43.8919C45.7121 63.8325 46.5766 64.5135 46.5766 66.0116C46.5766 67.5098 45.8486 68.0092 44.438 68.0092C43.0274 68.0092 44.1194 68.0092 43.9829 68.0092L47.2137 73.5934H48.2603L45.2115 68.2816C45.9396 68.1908 46.5311 67.9638 46.9407 67.5098L46.9862 67.6006Z" fill="white"/>
<path d="M56.5865 63.4692C55.1304 63.4692 53.9018 63.9686 52.9462 64.9674C52.0362 65.9662 51.5356 67.1466 51.5356 68.5994C51.5356 70.0522 51.9907 71.278 52.9462 72.2313C53.9018 73.2301 55.1304 73.7295 56.5865 73.7295C58.0426 73.7295 59.2712 73.2301 60.2268 72.2313C61.1368 71.278 61.6374 70.0522 61.6374 68.5994C61.6374 67.1466 61.1823 65.9662 60.2268 64.9674C59.2712 63.9686 58.0881 63.4692 56.5865 63.4692ZM59.4532 72.0498C58.7252 73.0031 57.7696 73.5025 56.5865 73.5025C55.4034 73.5025 54.4479 73.0031 53.6743 72.0498C52.9462 71.1418 52.6277 69.9614 52.6277 68.5994C52.6277 67.2374 52.9918 66.057 53.6743 65.149C54.4024 64.1956 55.3579 63.6962 56.5865 63.6962C57.8151 63.6962 58.7252 64.1956 59.4532 65.149C60.1813 66.057 60.4998 67.2374 60.4998 68.5994C60.4998 69.9614 60.1358 71.1418 59.4532 72.0498Z" fill="white"/>
<path d="M64.9596 73.6386H65.9152V68.2361H69.1004V67.9183H65.9152V63.8777H69.4644V63.5599H64.9596V73.6386Z" fill="white"/>
<path d="M73.6959 63.5601H72.6948V73.5934H73.6959V63.5601Z" fill="white"/>
<path d="M80.4763 67.6005C79.2477 66.8741 78.6561 66.1023 78.7016 65.2397C78.7016 64.8311 78.9291 64.4679 79.2477 64.1955C79.5662 63.9231 80.0212 63.7869 80.4763 63.7869C80.9313 63.7869 81.2953 63.9231 81.7048 64.1955C81.9779 64.3771 82.2054 64.6041 82.3874 64.8311L82.7514 64.4679C82.4329 64.0593 81.9779 63.7869 81.3408 63.6053C81.0678 63.5145 80.7948 63.5145 80.4763 63.4691C79.7937 63.4691 79.2022 63.6507 78.7016 64.0139C78.2011 64.3771 77.9281 64.8765 77.9281 65.5121C77.8826 66.7379 78.6106 67.7821 80.1577 68.6447C81.5228 69.4165 82.2054 70.3244 82.2054 71.3686C82.2054 72.4128 82.0234 72.4582 81.6593 72.8214C81.2953 73.1846 80.7948 73.3662 80.2032 73.3662C79.6117 73.3662 78.6561 73.0484 78.0191 72.4582L77.7006 72.9122C78.4286 73.457 79.2477 73.7294 80.2032 73.7294C81.1588 73.7294 81.5683 73.5024 82.1144 73.0938C82.7059 72.5944 83.0244 71.9588 83.0244 71.187C83.0244 70.4152 82.8879 69.9612 82.5694 69.4619C82.1599 68.8263 81.4773 68.2361 80.4763 67.6459V67.6005Z" fill="white"/>
<path d="M89.1219 67.6005C87.8933 66.8741 87.3018 66.1023 87.3473 65.2397C87.3473 64.8311 87.5748 64.4679 87.8933 64.1955C88.2118 63.9231 88.6669 63.7869 89.1219 63.7869C89.5769 63.7869 89.9409 63.9231 90.3505 64.1955C90.6235 64.3771 90.851 64.6041 91.033 64.8311L91.3971 64.4679C91.0785 64.0593 90.6235 63.7869 89.9865 63.6053C89.7134 63.5145 89.4404 63.5145 89.1219 63.4691C88.4393 63.4691 87.8478 63.6507 87.3473 64.0139C86.8467 64.3771 86.5737 64.8765 86.5737 65.5121C86.5282 66.7379 87.2563 67.7821 88.8034 68.6447C90.1685 69.4165 90.851 70.3244 90.851 71.3686C90.851 72.4128 90.669 72.4582 90.305 72.8214C89.941 73.1846 89.4404 73.3662 88.8489 73.3662C88.2573 73.3662 87.3018 73.0484 86.6647 72.4582L86.3462 72.9122C87.0742 73.457 87.8933 73.7294 88.8489 73.7294C89.8044 73.7294 90.214 73.5024 90.76 73.0938C91.3516 72.5944 91.6701 71.9588 91.6701 71.187C91.6701 70.4152 91.5336 69.9612 91.215 69.4619C90.8055 68.8263 90.123 68.2361 89.1219 67.6459V67.6005Z" fill="white"/>
<path d="M96.0387 63.5601H95.0376V73.5934H96.0387V63.5601Z" fill="white"/>
<path d="M105.139 63.4691C103.683 63.4691 102.454 63.9685 101.499 64.9673C100.589 65.9661 100.088 67.1465 100.088 68.5993C100.088 70.052 100.543 71.2778 101.499 72.2312C102.454 73.23 103.683 73.7294 105.139 73.7294C106.595 73.7294 107.824 73.23 108.779 72.2312C109.689 71.2778 110.19 70.052 110.19 68.5993C110.19 67.1465 109.735 65.9661 108.779 64.9673C107.824 63.9685 106.641 63.4691 105.139 63.4691ZM108.006 72.0496C107.278 73.003 106.322 73.5024 105.139 73.5024C103.956 73.5024 103 73.003 102.227 72.0496C101.499 71.1416 101.18 69.9612 101.18 68.5993C101.18 67.2373 101.544 66.0569 102.227 65.1489C102.955 64.1955 103.956 63.6961 105.139 63.6961C106.322 63.6961 107.278 64.1955 108.006 65.1489C108.734 66.0569 109.052 67.2373 109.052 68.5993C109.052 69.9612 108.688 71.1416 108.006 72.0496Z" fill="white"/>
<path d="M119.655 71.6864L113.466 63.3783V73.6386H113.785V65.4213L119.973 73.7748V63.5599H119.655V71.6864Z" fill="white"/>
<path d="M122.613 73.6387H122.977L126.253 65.1036L127.8 69.0534H125.616V69.3712H127.937L129.575 73.6387H130.621L126.617 63.3784L122.613 73.6387Z" fill="white"/>
<path d="M134.853 63.5599H133.897V73.6386H138.584V73.3208H134.853V63.5599Z" fill="white"/>
<path d="M27.4649 65.6483H0.981934V71.6411H27.4649V65.6483Z" fill="white"/>
<path d="M161.882 65.6483H145.5V71.6411H161.882V65.6483Z" fill="white"/>
<path d="M56.769 60.382L62.7299 7.49158H57.224L31.6966 50.1671L16.0435 7.49158H10.2646L4.34912 60.382H7.98939L12.8127 17.4795L28.6024 60.382H30.013L55.5404 17.2979L50.717 60.382H56.769Z" fill="white"/>
<path d="M126.162 39.9974L129.939 6.12939H125.07L120.929 42.9938H141.315L141.724 39.4072C141.724 39.4072 138.448 39.9974 131.486 39.9974C129.666 39.9974 126.162 39.9974 126.162 39.9974Z" fill="white"/>
<path d="M153.555 24.1077C154.055 19.6586 155.648 6.17493 155.648 6.17493H150.824C150.824 6.17493 149.596 19.5224 149.141 23.9261C148.595 28.7385 146.729 43.0393 146.729 43.0393H151.552C151.552 43.0393 153.054 28.8747 153.6 24.1077H153.555Z" fill="white"/>
<path d="M188.456 16.4352C188.456 16.4352 191.277 13.6658 195.236 13.2118C200.013 12.667 206.065 15.0732 206.429 25.0157H212.982C212.982 25.0157 213.209 9.30748 197.283 9.12588C197.283 9.12588 186.18 8.26329 181.084 17.0254C179.764 13.6658 176.761 9.89767 169.89 9.76147C169.89 9.76147 153.691 9.08048 154.692 25.6059C154.692 25.6059 155.557 32.552 162.928 36.184C162.928 36.184 176.579 42.1767 174.668 51.075C174.668 51.075 173.121 56.3868 166.933 57.7942C162.473 58.8384 156.967 56.2506 152.599 50.7118L151.825 57.7034C151.825 57.7034 164.475 67.2373 176.352 56.6592C176.352 56.6592 184.633 48.4419 177.535 38.5902C177.535 38.5902 176.807 37.092 172.62 34.4134C171.847 33.914 170.755 33.3692 169.89 32.779C166.614 30.5091 163.065 28.6023 161.381 25.6059C159.743 22.7003 159.834 18.796 163.611 15.5726C163.611 15.5726 165.249 14.029 168.343 13.7112C172.074 13.3026 176.761 14.3468 177.034 22.1555H179.173C178.763 23.9715 178.581 26.0599 178.627 28.4207C178.627 28.4207 180.083 37.5914 189.502 42.2221C189.502 42.2221 207.522 50.2578 203.381 61.8801C203.381 61.8801 201.515 68.69 193.552 70.506C187.864 71.8226 180.584 69.7342 174.987 62.6973L174.122 70.3698C174.122 70.3698 190.321 82.5823 205.474 69.0532C205.474 69.0532 216.076 58.566 206.975 45.9449C206.975 45.9449 206.065 44.0381 200.696 40.5877C199.695 39.9522 198.284 39.2712 197.192 38.5448C193.051 35.5938 188.501 33.1876 186.317 29.3741C184.224 25.6967 183.541 20.4758 188.365 16.3444L188.456 16.4352Z" fill="white"/>
<path d="M118.29 43.0393H118.881C118.881 43.0393 117.516 41.4958 114.467 36.0932C112.693 32.9153 107.278 23.2452 107.278 23.2452C107.278 23.2452 108.006 22.3826 109.052 21.1114C109.052 21.1114 109.052 21.1114 109.098 21.066C111.146 18.6144 114.422 14.71 115.832 13.0303C115.923 12.8941 116.105 12.7125 116.242 12.5309C116.242 12.5309 116.242 12.5309 116.287 12.4401C118.426 9.9885 124.706 3.04237 126.48 1.04479C126.571 1.04479 126.617 0.953995 126.617 0.863196C126.844 0.636199 126.981 0.5 126.981 0.5H126.389H121.702C121.702 0.590799 121.611 0.636199 121.611 0.681598L105.412 20.2488L97.4035 5.94794L91.6246 6.17494C91.6246 6.17494 94.4458 10.4879 95.8564 13.0757C97.449 15.9812 101.954 24.0623 101.954 24.0623C101.954 24.0623 94.4913 33.1877 92.0796 36.0478C91.7156 36.5018 91.8066 36.3202 91.3516 36.865L82.2964 2.54298H80.0212C80.0212 2.54298 73.7418 14.9824 70.2835 22.3372C70.1925 22.5188 70.1015 22.7004 70.0105 22.882C65.7787 31.7349 60.8188 39.9522 60.8188 39.9522H64.6866C64.6866 39.9522 66.5978 35.8662 67.2348 34.5042C68.1449 32.5521 70.9206 26.6955 70.9206 26.6955H84.2531L87.8023 40.9964C83.343 46.1719 78.2011 52.0285 78.2011 52.0285H82.6149L103.546 26.8317L112.465 42.9939H118.244L118.29 43.0393ZM72.0127 24.4255C72.0127 24.4255 74.2878 19.6132 75.7439 16.4806C77.3366 13.0757 79.6572 8.21792 79.6572 8.21792L83.6615 24.4255H72.0127ZM88.6669 40.043H88.7124C88.7124 40.043 88.7124 40.043 88.6669 40.043ZM88.5759 40.1792C88.3484 40.4062 88.1663 40.6786 87.9388 40.9056L88.5759 40.1792Z" fill="white"/>
</g>
<defs>
<clipPath id="clip0_318_1164">
<rect width="212" height="75" fill="white" transform="translate(0.981934 0.5)"/>
</clipPath>
</defs>
</svg>
