<svg width="313" height="197" viewBox="0 0 313 197" fill="none" xmlns="http://www.w3.org/2000/svg">
<g opacity="0.5">
<path d="M211.277 1.07433C156.395 -3.66068 141.868 28.8861 91.9404 31.7676C51.0136 34.1297 10.1297 56.1197 1.50338 104.07C-7.22066 152.564 24.38 189.77 35.771 196.347L71.9187 196.593H252.487C267.204 196.717 280.714 196.488 280.714 196.488C314.76 162.963 321.191 91.0868 300.403 57.2092C278.442 21.4216 236.934 3.28794 211.277 1.07433Z" fill="#FBE6E3"/>
</g>
<path d="M112.801 61.697L107.949 66.5503L116.013 74.6173L120.865 69.7639L112.801 61.697Z" fill="#B72C65"/>
<path d="M113.357 61.1421L110.382 64.1175L110.325 64.1748L107.351 67.1503L109.196 71.1488L113.246 67.0971L113.304 67.0398L117.354 62.9882L113.357 61.1421Z" fill="#5B2750"/>
<path d="M171.75 69.7653L176.601 74.6187L184.665 66.5517L179.814 61.6984L171.75 69.7653Z" fill="#B72C65"/>
<path d="M179.259 61.1421L182.233 64.1175L182.29 64.1748L185.265 67.1503L183.419 71.1488L179.369 67.0971L179.312 67.0398L175.262 62.9882L179.259 61.1421Z" fill="#5B2750"/>
<path d="M151.237 49.7139H141.262V66.3014H151.237V49.7139Z" fill="#B72C65"/>
<path d="M207.117 129.642C207.058 163.113 179.886 190.199 146.427 190.141C112.967 190.081 85.8909 162.899 85.9506 129.427C85.9811 112.117 93.2615 96.5162 104.914 85.4937C115.794 75.1998 130.485 68.8995 146.64 68.9288C167.948 68.9657 186.666 80.0035 197.438 96.6586C203.581 106.158 207.138 117.485 207.117 129.642Z" fill="#D83F7A"/>
<path d="M207.117 129.642C207.058 163.113 179.886 190.199 146.427 190.141C112.967 190.081 85.8909 162.899 85.9506 129.427C85.9811 112.117 93.2615 96.5162 104.914 85.4937C115.794 75.1998 130.485 68.8995 146.64 68.9288C167.948 68.9657 186.666 80.0035 197.438 96.6586C203.581 106.158 207.138 117.485 207.117 129.642Z" fill="white"/>
<path d="M152.377 49.4126H146.261H146.144H140.028L137.816 55.4216H146.144H146.261H154.589L152.377 49.4126Z" fill="#5B2750"/>
<path d="M146.652 62.4757C109.63 62.4096 79.5652 92.3798 79.4991 129.415C79.4342 166.451 109.393 196.528 146.416 196.593C183.438 196.658 213.502 166.688 213.568 129.652C213.633 92.6175 183.674 62.5406 146.652 62.4757ZM146.427 190.14C112.967 190.081 85.8909 162.899 85.9506 129.427C85.9811 112.117 93.2615 96.516 104.914 85.4935C115.794 75.1996 130.485 68.8993 146.64 68.9286C167.948 68.9655 186.666 80.0033 197.438 96.6584C203.581 106.158 207.138 117.485 207.117 129.642C207.058 163.112 179.886 190.199 146.427 190.14Z" fill="#D83F7A"/>
<path opacity="0.1" d="M146.427 171.552C116.164 171.498 91.124 149.257 86.6594 120.242C86.1989 123.237 85.9562 126.304 85.9506 129.427C85.8909 162.899 112.967 190.081 146.427 190.14C179.886 190.199 207.058 163.112 207.117 129.642C207.122 126.447 206.878 123.309 206.408 120.247C201.928 149.347 176.761 171.605 146.427 171.552Z" fill="#9BC0F7"/>
<path d="M197.438 96.6585L146.081 131.122L104.903 85.5153C104.907 85.5077 104.91 85.5013 104.914 85.4937C115.794 75.1998 130.485 68.8995 146.64 68.9288C167.948 68.9656 186.666 80.0034 197.438 96.6585Z" fill="#FDF3E5"/>
<path d="M146.548 129.83C161.837 133.175 187.778 103.388 187.778 103.388C147.105 117.615 146.548 129.83 146.548 129.83Z" fill="#FD7583"/>
<path d="M123.7 106.146C137.432 133.673 146.128 132.968 146.128 132.968C147.118 121.838 123.7 106.146 123.7 106.146Z" fill="#FD7583"/>
<path d="M144.405 127.203C142.955 128.387 142.739 130.523 143.922 131.973C145.106 133.424 147.241 133.64 148.691 132.456C150.141 131.272 150.357 129.136 149.174 127.686C147.99 126.235 145.855 126.019 144.405 127.203Z" fill="#D83F7A"/>
<path d="M146.111 68.9302L146.087 82.2822L147.188 82.2842L147.212 68.9321L146.111 68.9302Z" fill="#B72C65"/>
<path d="M145.92 176.793L145.896 190.146L146.998 190.147L147.022 176.795L145.92 176.793Z" fill="#B72C65"/>
<path d="M189.069 86.3533L184.342 91.0659L185.119 91.8464L189.846 87.1337L189.069 86.3533Z" fill="#B72C65"/>
<path d="M107.986 167.214L103.259 171.926L104.036 172.707L108.764 167.994L107.986 167.214Z" fill="#B72C65"/>
<path d="M166.162 179.785L165.132 180.175L167.496 186.419L168.526 186.028L166.162 179.785Z" fill="#B72C65"/>
<path d="M125.607 72.6707L124.577 73.061L126.94 79.3045L127.971 78.9142L125.607 72.6707Z" fill="#B72C65"/>
<path d="M123.898 178.492L121.157 184.578L122.161 185.031L124.903 178.944L123.898 178.492Z" fill="#B72C65"/>
<path d="M170.934 74.0604L168.193 80.147L169.197 80.5997L171.939 74.5131L170.934 74.0604Z" fill="#B72C65"/>
<path d="M95.938 148.134L89.6969 150.499L90.0871 151.529L96.3282 149.164L95.938 148.134Z" fill="#B72C65"/>
<path d="M203.014 107.565L196.773 109.93L197.163 110.96L203.404 108.596L203.014 107.565Z" fill="#B72C65"/>
<path d="M91.537 104.142L91.0844 105.147L97.1687 107.889L97.6212 106.885L91.537 104.142Z" fill="#B72C65"/>
<path d="M104.905 85.5091L104.112 86.2739L108.743 91.0807L109.536 90.3159L104.905 85.5091Z" fill="#B72C65"/>
<path d="M184.361 167.971L183.568 168.736L188.2 173.543L188.993 172.778L184.361 167.971Z" fill="#B72C65"/>
<path d="M116.777 57.3893L116.513 57.5875L116.414 57.4554C116.05 56.9711 115.694 56.4684 115.354 55.9615L115.262 55.8245L115.536 55.6405L115.628 55.7776C115.965 56.2797 116.318 56.7775 116.678 57.2574L116.777 57.3893ZM114.743 54.3865L114.46 54.5553L114.375 54.4133C114.061 53.8848 113.761 53.3464 113.484 52.8132L113.408 52.6667L113.701 52.5144L113.777 52.6609C114.051 53.1885 114.348 53.7213 114.659 54.2445L114.743 54.3865ZM129.356 37.4976C129.355 37.4979 129.355 37.4981 129.355 37.4983C129.161 37.6872 128.944 37.8634 128.708 38.0218L128.571 38.1139L128.387 37.8399L128.524 37.7478C128.743 37.6003 128.945 37.437 129.124 37.262C129.125 37.2618 129.125 37.2616 129.125 37.2613C129.36 37.0315 129.563 36.7755 129.726 36.5004L129.81 36.3585L130.094 36.5273L130.01 36.6692C129.832 36.9689 129.611 37.2477 129.356 37.4976ZM127.152 38.7501L126.99 38.7796C126.382 38.8901 125.755 38.7762 125.127 38.4411L124.981 38.3635L125.136 38.0721L125.282 38.1498C125.843 38.449 126.398 38.5516 126.931 38.4549L127.093 38.4253L127.152 38.7501ZM130.558 35.0419L130.229 35.0135L130.243 34.849C130.291 34.2945 130.237 33.7059 130.081 33.0997L130.04 32.9398L130.36 32.8578L130.401 33.0176C130.566 33.6599 130.624 34.2856 130.572 34.8777L130.558 35.0419ZM113.059 51.1794L112.757 51.3129L112.69 51.1618C112.439 50.5941 112.21 50.0216 112.007 49.4605L111.951 49.3052L112.262 49.1932L112.318 49.3485C112.517 49.9024 112.744 50.4676 112.992 51.0284L113.059 51.1794ZM124.044 37.1556L123.795 37.3714L123.687 37.2466C123.308 36.8078 122.959 36.2908 122.649 35.71L122.572 35.5644L122.863 35.4091L122.94 35.5548C123.238 36.1139 123.574 36.6104 123.936 37.0308L124.044 37.1556ZM129.789 31.4377L129.5 31.5964L129.421 31.4515C129.139 30.9376 128.796 30.4455 128.401 29.9892L128.293 29.8644L128.542 29.6483L128.65 29.773C129.061 30.2472 129.417 30.7584 129.71 31.293L129.789 31.4377ZM111.813 47.7846L111.495 47.8723L111.451 47.713C111.286 47.1143 111.148 46.5125 111.04 45.9243L111.01 45.7619L111.335 45.7023L111.365 45.8646C111.471 46.4436 111.607 47.036 111.769 47.6255L111.813 47.7846ZM122.287 34.0637L121.975 34.1696L121.922 34.0132C121.73 33.447 121.572 32.8475 121.453 32.2315L121.421 32.0694L121.745 32.0068L121.777 32.1689C121.893 32.7703 122.047 33.3552 122.234 33.9075L122.287 34.0637ZM127.232 28.8678L127.101 28.7682C126.914 28.6265 126.72 28.4924 126.526 28.3696C126.219 28.1755 125.898 28.0079 125.571 27.8714L125.418 27.808L125.545 27.5034L125.698 27.5669C126.042 27.7104 126.38 27.8867 126.703 28.0907C126.904 28.2184 127.105 28.3577 127.3 28.505L127.431 28.6047L127.232 28.8678ZM111.138 44.2409L110.809 44.2688L110.795 44.1045C110.742 43.4882 110.722 42.8703 110.735 42.268L110.738 42.103L111.068 42.1099L111.065 42.2749C111.052 42.8656 111.072 43.4718 111.124 44.0763L111.138 44.2409ZM121.556 30.5481L121.226 30.5715L121.215 30.4068C121.172 29.804 121.163 29.1853 121.189 28.5683L121.195 28.4034L121.525 28.4168L121.518 28.5819C121.494 29.1868 121.502 29.7928 121.544 30.3837L121.556 30.5481ZM111.182 40.6427L110.855 40.5984L110.877 40.4349C110.96 39.8273 111.079 39.2203 111.231 38.6307L111.272 38.4709L111.592 38.5535L111.551 38.7134C111.401 39.2904 111.285 39.8844 111.205 40.4792L111.182 40.6427ZM124.024 27.4497L123.86 27.4316C123.287 27.3688 122.691 27.3831 122.089 27.4743L121.926 27.4989L121.876 27.1725L122.039 27.1478C122.67 27.0525 123.295 27.0375 123.896 27.1034L124.06 27.1214L124.024 27.4497ZM112.043 37.1537L111.735 37.035L111.795 36.8811C112.014 36.3117 112.264 35.7466 112.538 35.2013L112.612 35.0538L112.907 35.2019L112.833 35.3494C112.564 35.8852 112.318 36.4404 112.103 36.9997L112.043 37.1537ZM121.663 26.95L121.337 26.9019L121.361 26.7386C121.449 26.1402 121.57 25.5341 121.719 24.9373L121.759 24.7771L122.08 24.8576L122.039 25.0177C121.892 25.604 121.774 26.1992 121.688 26.7868L121.663 26.95ZM120.521 27.8747L120.367 27.9333C119.829 28.1373 119.287 28.4002 118.756 28.7143L118.614 28.7982L118.446 28.5141L118.588 28.43C119.136 28.1063 119.695 27.8354 120.25 27.6245L120.404 27.566L120.521 27.8747ZM113.632 33.9177L113.353 33.7412L113.441 33.6017C113.77 33.0814 114.127 32.5761 114.5 32.1L114.602 31.9702L114.862 32.174L114.76 32.3039C114.393 32.7712 114.043 33.2672 113.72 33.7781L113.632 33.9177ZM117.409 29.635L117.28 29.7381C116.823 30.1037 116.375 30.5105 115.947 30.9479L115.832 31.0658L115.596 30.8349L115.712 30.7168C116.147 30.2709 116.607 29.8542 117.074 29.4802L117.203 29.3771L117.409 29.635ZM122.509 23.4492L122.2 23.3339L122.258 23.1792C122.468 22.616 122.721 22.0508 123.009 21.499L123.086 21.3528L123.378 21.5058L123.302 21.6521C123.02 22.1916 122.772 22.7443 122.567 23.2946L122.509 23.4492ZM133.903 11.8537L133.759 11.9332C133.231 12.2226 132.704 12.5296 132.192 12.8455L132.052 12.9322L131.879 12.6512L132.019 12.5646C132.536 12.2457 133.068 11.936 133.6 11.6438L133.745 11.5645L133.903 11.8537ZM130.811 13.7429L130.675 13.8369C130.173 14.1845 129.681 14.5452 129.215 14.9092L129.085 15.0106L128.882 14.7503L129.012 14.6487C129.483 14.2811 129.98 13.9165 130.487 13.5653L130.623 13.4714L130.811 13.7429ZM124.134 20.2421L123.86 20.0578L123.952 19.9208C124.285 19.4268 124.655 18.9318 125.052 18.4498L125.157 18.3223L125.412 18.5321L125.307 18.6595C124.916 19.1336 124.553 19.6199 124.226 20.1052L124.134 20.2421ZM127.946 15.957L127.823 16.0666C127.366 16.4726 126.932 16.8858 126.514 17.315L126.399 17.4331L126.162 17.2028L126.277 17.0845C126.701 16.6499 127.14 16.231 127.604 15.8196L127.727 15.7101L127.946 15.957Z" fill="#49263E"/>
<path d="M135.819 13.4771L136.849 11.6979C136.849 11.6979 143.29 9.69775 143.373 9.63331C143.456 9.56887 146.507 7.20947 146.507 7.20947L142.208 7.79348L135.454 10.1519L135.819 13.4771Z" fill="#EF9D43"/>
<path d="M133.215 7.05713L146.507 7.20939L135.454 10.1519L133.215 7.05713Z" fill="#FEC786"/>
<path d="M136.849 11.6979L139.208 14.9981L146.507 7.20947L136.849 11.6979Z" fill="#FEC786"/>
<path d="M217.842 33.9602C220.578 33.8034 226.992 33.5299 232.567 34.0002C234.873 34.1949 236.865 32.3516 236.813 30.0365C236.792 29.089 236.452 27.9867 235.573 26.7377C232.188 21.9283 226.304 26.5212 226.36 28.9626C226.36 28.9626 225.171 25.2865 221.558 25.9301C217.945 26.5737 219.222 31.9199 219.222 31.9199C219.222 31.9199 218.057 31.6734 217.248 32.2253C216.453 32.768 216.882 34.0152 217.842 33.9602Z" fill="white"/>
<path d="M38.578 73.0235C40.9937 72.8851 46.6568 72.6436 51.5798 73.0589C53.6166 73.2307 55.3751 71.6031 55.3294 69.5589C55.3106 68.7222 55.0106 67.7488 54.2343 66.6459C51.2452 62.3992 46.0494 66.4548 46.0993 68.6105C46.0993 68.6105 45.0489 65.3645 41.8585 65.9327C38.6682 66.5009 39.7964 71.2217 39.7964 71.2217C39.7964 71.2217 38.7668 71.0041 38.0532 71.4915C37.3514 71.9709 37.7297 73.0721 38.578 73.0235Z" fill="white"/>
<path d="M271.886 94.5129C271.756 94.0768 271.802 93.5779 272.106 93.1622C272.655 92.4103 273.654 91.7725 275.444 91.6624C275.444 91.6624 273.508 83.0584 281.011 82.1555C288.721 81.2277 289.119 90.2962 289.119 90.2962C289.119 90.2962 293.489 85.4852 295.872 91.3466C295.872 91.3466 300.575 88.9727 302.834 91.8223C303.51 92.6754 303.396 93.8185 302.815 94.5129H271.886Z" fill="white"/>
<path d="M41.4397 94.5129C41.5698 94.0768 41.5236 93.5779 41.2196 93.1622C40.67 92.4103 39.6713 91.7725 37.8809 91.6624C37.8809 91.6624 39.817 83.0584 32.3143 82.1555C24.6043 81.2277 24.206 90.2962 24.206 90.2962C24.206 90.2962 19.836 85.4852 17.4536 91.3466C17.4536 91.3466 12.7505 88.9727 10.4912 91.8223C9.81497 92.6754 9.92905 93.8185 10.5104 94.5129H41.4397Z" fill="white"/>
<path d="M291.856 195.976H22.3207V196.999H291.856V195.976Z" fill="#223749"/>
</svg>
