<svg width="20" height="21" viewBox="0 0 20 21" fill="none" xmlns="http://www.w3.org/2000/svg">
<path d="M10 4.66667C9.66848 4.66667 9.35053 4.79836 9.11611 5.03278C8.88169 5.2672 8.75 5.58515 8.75 5.91667C8.75 6.24819 8.88169 6.56613 9.11611 6.80055C9.35053 7.03497 9.66848 7.16667 10 7.16667C10.3315 7.16667 10.6495 7.03497 10.8839 6.80055C11.1183 6.56613 11.25 6.24819 11.25 5.91667C11.25 5.58515 11.1183 5.2672 10.8839 5.03278C10.6495 4.79836 10.3315 4.66667 10 4.66667ZM7.08333 5.91667C7.08333 5.53364 7.15877 5.15437 7.30535 4.80051C7.45193 4.44664 7.66677 4.12511 7.9376 3.85427C8.20844 3.58343 8.52997 3.36859 8.88384 3.22202C9.2377 3.07544 9.61698 3 10 3C10.383 3 10.7623 3.07544 11.1162 3.22202C11.47 3.36859 11.7916 3.58343 12.0624 3.85427C12.3332 4.12511 12.5481 4.44664 12.6946 4.80051C12.8412 5.15437 12.9167 5.53364 12.9167 5.91667C12.9167 6.69021 12.6094 7.43208 12.0624 7.97906C11.5154 8.52604 10.7735 8.83333 10 8.83333C9.22645 8.83333 8.48458 8.52604 7.9376 7.97906C7.39062 7.43208 7.08333 6.69021 7.08333 5.91667ZM4.16666 7.16667C3.94565 7.16667 3.73369 7.25446 3.57741 7.41074C3.42113 7.56702 3.33333 7.77899 3.33333 8C3.33333 8.22101 3.42113 8.43298 3.57741 8.58926C3.73369 8.74554 3.94565 8.83333 4.16666 8.83333C4.38768 8.83333 4.59964 8.74554 4.75592 8.58926C4.9122 8.43298 5 8.22101 5 8C5 7.77899 4.9122 7.56702 4.75592 7.41074C4.59964 7.25446 4.38768 7.16667 4.16666 7.16667ZM1.66666 8C1.66666 7.33696 1.93006 6.70107 2.3989 6.23223C2.86774 5.76339 3.50362 5.5 4.16666 5.5C4.82971 5.5 5.46559 5.76339 5.93443 6.23223C6.40327 6.70107 6.66666 7.33696 6.66666 8C6.66666 8.66304 6.40327 9.29893 5.93443 9.76777C5.46559 10.2366 4.82971 10.5 4.16666 10.5C3.50362 10.5 2.86774 10.2366 2.3989 9.76777C1.93006 9.29893 1.66666 8.66304 1.66666 8ZM15 8C15 7.77899 15.0878 7.56702 15.2441 7.41074C15.4004 7.25446 15.6123 7.16667 15.8333 7.16667C16.0543 7.16667 16.2663 7.25446 16.4226 7.41074C16.5789 7.56702 16.6667 7.77899 16.6667 8C16.6667 8.22101 16.5789 8.43298 16.4226 8.58926C16.2663 8.74554 16.0543 8.83333 15.8333 8.83333C15.6123 8.83333 15.4004 8.74554 15.2441 8.58926C15.0878 8.43298 15 8.22101 15 8ZM15.8333 5.5C15.1703 5.5 14.5344 5.76339 14.0656 6.23223C13.5967 6.70107 13.3333 7.33696 13.3333 8C13.3333 8.66304 13.5967 9.29893 14.0656 9.76777C14.5344 10.2366 15.1703 10.5 15.8333 10.5C16.4964 10.5 17.1323 10.2366 17.6011 9.76777C18.0699 9.29893 18.3333 8.66304 18.3333 8C18.3333 7.33696 18.0699 6.70107 17.6011 6.23223C17.1323 5.76339 16.4964 5.5 15.8333 5.5ZM6.66666 12.5833C6.66666 11.4333 7.6 10.5 8.75 10.5H11.25C12.4 10.5 13.3333 11.4333 13.3333 12.5833V14.6667C13.3333 15.5507 12.9821 16.3986 12.357 17.0237C11.7319 17.6488 10.8841 18 10 18C9.11594 18 8.2681 17.6488 7.64298 17.0237C7.01785 16.3986 6.66666 15.5507 6.66666 14.6667V12.5833ZM8.75 12.1667C8.63949 12.1667 8.53351 12.2106 8.45537 12.2887C8.37723 12.3668 8.33333 12.4728 8.33333 12.5833V14.6667C8.33333 15.1087 8.50893 15.5326 8.82149 15.8452C9.13405 16.1577 9.55797 16.3333 10 16.3333C10.442 16.3333 10.8659 16.1577 11.1785 15.8452C11.4911 15.5326 11.6667 15.1087 11.6667 14.6667V12.5833C11.6667 12.4728 11.6228 12.3668 11.5446 12.2887C11.4665 12.2106 11.3605 12.1667 11.25 12.1667H8.75ZM5 12.5833C5 12.1017 5.09 11.6417 5.25666 11.22L3.205 11.77C2.6716 11.913 2.21679 12.2619 1.94052 12.74C1.66426 13.2182 1.58913 13.7865 1.73166 14.32L2.055 15.5283C2.16833 15.9512 2.36385 16.3476 2.6304 16.6949C2.89696 17.0423 3.22932 17.3337 3.6085 17.5525C3.98769 17.7713 4.40627 17.9133 4.84034 17.9704C5.27441 18.0274 5.71547 17.9984 6.13833 17.885L6.16666 17.8767C5.7822 17.4186 5.48302 16.8953 5.28333 16.3317C4.91503 16.3336 4.55649 16.2134 4.2637 15.99C3.97091 15.7665 3.76038 15.4524 3.665 15.0967L3.34166 13.8883C3.31317 13.7816 3.32824 13.6679 3.38356 13.5722C3.43888 13.4766 3.52992 13.4069 3.63666 13.3783L5 13.0117V12.5833ZM13.86 17.8833L13.8333 17.8783C14.2133 17.4233 14.515 16.9017 14.7167 16.3317C15.0847 16.3332 15.4428 16.2129 15.7353 15.9894C16.0277 15.766 16.238 15.4521 16.3333 15.0967L16.655 13.8883C16.6835 13.7816 16.6684 13.6679 16.6131 13.5722C16.5578 13.4766 16.4667 13.4069 16.36 13.3783L15 13.0133V12.5833C15 12.1017 14.91 11.6433 14.745 11.22L16.7917 11.77C17.3251 11.913 17.7799 12.2619 18.0561 12.74C18.3324 13.2182 18.4075 13.7865 18.265 14.32L17.9417 15.5283C17.8283 15.9512 17.6328 16.3476 17.3663 16.6949C17.0997 17.0423 16.7673 17.3337 16.3882 17.5525C16.009 17.7713 15.5904 17.9133 15.1563 17.9704C14.7222 18.0274 14.2812 17.9984 13.8583 17.885" fill="#A7004D"/>
</svg>
