<svg width="16" height="16" viewBox="0 0 16 16" fill="none" xmlns="http://www.w3.org/2000/svg">
<path d="M0.8986 15.4999H14.9819C15.0924 15.4999 15.1984 15.456 15.2766 15.3779C15.3547 15.2997 15.3986 15.1938 15.3986 15.0833C15.3986 14.9727 15.3547 14.8668 15.2766 14.7886C15.1984 14.7105 15.0924 14.6666 14.9819 14.6666H0.8986C0.788093 14.6666 0.682112 14.7105 0.603972 14.7886C0.525832 14.8668 0.481934 14.9727 0.481934 15.0833C0.481934 15.1938 0.525832 15.2997 0.603972 15.3779C0.682112 15.456 0.788093 15.4999 0.8986 15.4999ZM6.0336 12.3683C6.38542 12.2693 6.70648 12.083 6.96693 11.8266L14.9169 3.87659C15.1892 3.60326 15.342 3.2332 15.342 2.84742C15.342 2.46164 15.1892 2.09158 14.9169 1.81825L14.1336 1.04325C13.8562 0.778845 13.4877 0.631348 13.1044 0.631348C12.7212 0.631348 12.3527 0.778845 12.0753 1.04325L4.12527 8.98492C3.8689 9.24402 3.685 9.56584 3.59193 9.91825L2.97527 12.2183C2.94627 12.3233 2.94565 12.4342 2.97346 12.5396C3.00128 12.645 3.05653 12.7412 3.1336 12.8183C3.2517 12.934 3.40992 12.9997 3.57527 13.0016L6.0336 12.3683ZM6.37527 11.2349C6.22159 11.3913 6.02877 11.5035 5.81693 11.5599L5.0086 11.7766L4.17527 10.9433L4.39193 10.1349C4.44947 9.92354 4.56155 9.731 4.71693 9.57659L5.0336 9.26825L6.69193 10.9266L6.37527 11.2349ZM7.2836 10.3349L5.62527 8.67659L11.2336 3.06825L12.8919 4.72659L7.2836 10.3349ZM14.3253 3.29325L13.4836 4.13492L11.8253 2.47659L12.6669 1.62659C12.7841 1.50954 12.943 1.4438 13.1086 1.4438C13.2742 1.4438 13.4331 1.50954 13.5503 1.62659L14.3253 2.40992C14.4415 2.52753 14.5067 2.68623 14.5067 2.85159C14.5067 3.01694 14.4415 3.17564 14.3253 3.29325Z" fill="#525252"/>
</svg>
