<svg width="25" height="24" viewBox="0 0 25 24" fill="none" xmlns="http://www.w3.org/2000/svg">
<path opacity="0.4" d="M22.4482 15.9402C22.4482 18.7302 20.2082 20.9902 17.4182 21.0002H17.4082H7.49824C4.71824 21.0002 2.44824 18.7502 2.44824 15.9602V15.9502C2.44824 15.9502 2.45424 11.5242 2.46224 9.29824C2.46324 8.88024 2.94324 8.64624 3.27024 8.90624C5.64624 10.7912 9.89524 14.2282 9.94824 14.2732C10.6582 14.8422 11.5582 15.1632 12.4782 15.1632C13.3982 15.1632 14.2982 14.8422 15.0082 14.2622C15.0612 14.2272 19.2152 10.8932 21.6272 8.97724C21.9552 8.71624 22.4372 8.95024 22.4382 9.36724C22.4482 11.5762 22.4482 15.9402 22.4482 15.9402Z" fill="#A7004D"/>
<path d="M21.9244 5.67363C21.0584 4.04163 19.3544 2.99963 17.4784 2.99963H7.49837C5.62237 2.99963 3.91837 4.04163 3.05237 5.67363C2.85837 6.03863 2.95037 6.49363 3.27337 6.75163L10.6984 12.6906C11.2184 13.1106 11.8484 13.3196 12.4784 13.3196C12.4824 13.3196 12.4854 13.3196 12.4884 13.3196C12.4914 13.3196 12.4954 13.3196 12.4984 13.3196C13.1284 13.3196 13.7584 13.1106 14.2784 12.6906L21.7034 6.75163C22.0264 6.49363 22.1184 6.03863 21.9244 5.67363Z" fill="#A7004D"/>
</svg>
