<svg width="21" height="20" viewBox="0 0 21 20" fill="none" xmlns="http://www.w3.org/2000/svg">
<path d="M18.3004 10.1869C18.3004 10.1869 15.2813 6.04162 10.7526 6.04162C6.22394 6.04162 3.20483 10.1869 3.20483 10.1869" stroke="#6A6A6A" stroke-width="1.5" stroke-linecap="round"/>
<path d="M12.9971 6.37146L14.1335 4.72215" stroke="#6A6A6A" stroke-width="1.5" stroke-linecap="round" stroke-linejoin="round"/>
<path d="M16.7852 8.02075L18.3004 6.7013" stroke="#6A6A6A" stroke-width="1.5" stroke-linecap="round" stroke-linejoin="round"/>
<path d="M3.14795 6.7013L4.6632 8.02075" stroke="#6A6A6A" stroke-width="1.5" stroke-linecap="round" stroke-linejoin="round"/>
<path d="M8.45138 6.37146L7.31494 4.72215" stroke="#6A6A6A" stroke-width="1.5" stroke-linecap="round" stroke-linejoin="round"/>
<path d="M18.6775 10.8709C18.9309 11.2261 19.0575 11.4038 19.0575 11.6667C19.0575 11.9296 18.9309 12.1073 18.6775 12.4625C17.5391 14.0589 14.6319 17.5 10.7242 17.5C6.81652 17.5 3.90929 14.0589 2.7709 12.4625C2.51754 12.1073 2.39087 11.9296 2.39087 11.6667C2.39087 11.4038 2.51754 11.2261 2.7709 10.8709C3.90929 9.27454 6.81652 5.83337 10.7242 5.83337C14.6319 5.83337 17.5391 9.27454 18.6775 10.8709Z" stroke="#6A6A6A" stroke-width="1.5"/>
<path d="M13.2241 11.6666C13.2241 10.2859 12.1049 9.16663 10.7241 9.16663C9.34337 9.16663 8.22412 10.2859 8.22412 11.6666C8.22412 13.0474 9.34337 14.1666 10.7241 14.1666C12.1049 14.1666 13.2241 13.0474 13.2241 11.6666Z" stroke="#6A6A6A" stroke-width="1.5"/>
</svg>
