<svg width="18" height="15" viewBox="0 0 18 15" fill="none" xmlns="http://www.w3.org/2000/svg">
<path d="M10.05 -2.12369e-05C5.80832 -0.116688 2.33332 3.29165 2.33332 7.49998H0.841651C0.466651 7.49998 0.283318 7.94998 0.549985 8.20831L2.87498 10.5416C3.04165 10.7083 3.29998 10.7083 3.46665 10.5416L5.79165 8.20831C5.84924 8.14957 5.88815 8.07509 5.90347 7.99427C5.9188 7.91344 5.90985 7.82989 5.87777 7.75414C5.84569 7.67839 5.7919 7.61383 5.72319 7.5686C5.65448 7.52337 5.57391 7.4995 5.49165 7.49998H3.99998C3.99998 4.24998 6.64999 1.62498 9.91665 1.66665C13.0167 1.70831 15.625 4.31665 15.6667 7.41665C15.7083 10.675 13.0833 13.3333 9.83332 13.3333C8.49165 13.3333 7.24999 12.875 6.26665 12.1C6.10704 11.9742 5.90678 11.9116 5.70396 11.9239C5.50114 11.9361 5.30991 12.0226 5.16665 12.1666C4.81665 12.5166 4.84165 13.1083 5.23332 13.4083C6.54265 14.4436 8.16415 15.0046 9.83332 15C14.0417 15 17.45 11.525 17.3333 7.28331C17.225 3.37498 13.9583 0.108312 10.05 -2.12369e-05ZM9.62498 4.16665C9.28332 4.16665 8.99998 4.44998 8.99998 4.79165V7.85831C8.99998 8.14998 9.15832 8.42498 9.40832 8.57498L12.0083 10.1166C12.3083 10.2916 12.6917 10.1916 12.8667 9.89998C13.0417 9.59998 12.9417 9.21665 12.65 9.04165L10.25 7.61665V4.78331C10.25 4.44998 9.96665 4.16665 9.62498 4.16665Z" fill="#A7004D"/>
</svg>
