<svg width="20" height="21" viewBox="0 0 20 21" fill="none" xmlns="http://www.w3.org/2000/svg">
<path d="M7.08334 12.5834H12.9167M7.08334 8.41669H10M11.8083 17.9084C15.295 17.6775 18.0717 14.8609 18.3 11.325C18.3442 10.6334 18.3442 9.91669 18.3 9.22503C18.0717 5.69003 15.295 2.87503 11.8083 2.64253C10.6041 2.56317 9.39593 2.56317 8.19168 2.64253C4.70501 2.87419 1.92834 5.69003 1.70001 9.22586C1.65586 9.92517 1.65586 10.6266 1.70001 11.3259C1.78334 12.6134 2.35251 13.8059 3.02334 14.8125C3.41251 15.5167 3.15584 16.3959 2.75001 17.165C2.45834 17.7192 2.31168 17.9959 2.42918 18.1959C2.54584 18.3959 2.80834 18.4025 3.33251 18.415C4.37001 18.44 5.06918 18.1467 5.62418 17.7375C5.93834 17.505 6.09584 17.3892 6.20418 17.3759C6.31251 17.3625 6.52668 17.4509 6.95334 17.6259C7.33668 17.7842 7.78251 17.8817 8.19084 17.9092C9.37834 17.9875 10.6192 17.9875 11.8092 17.9092" stroke="#A7004D" stroke-width="1.5" stroke-linecap="round" stroke-linejoin="round"/>
</svg>
