<svg width="20" height="21" viewBox="0 0 20 21" fill="none" xmlns="http://www.w3.org/2000/svg">
<path d="M4.16667 7.16667V16.3333H15.8333V7.16667H13.3333V13.8333L10 12.1667L6.66667 13.8333V7.16667H4.16667ZM4.16667 18C3.70833 18 3.31611 17.837 2.99 17.5108C2.66389 17.1847 2.50056 16.7922 2.5 16.3333V5.9375C2.5 5.74306 2.53139 5.55556 2.59417 5.375C2.65694 5.19445 2.75056 5.02778 2.875 4.875L3.91667 3.60417C4.06944 3.40973 4.26028 3.26028 4.48917 3.15584C4.71806 3.05139 4.95778 2.99945 5.20833 3H14.7917C15.0417 3 15.2814 3.05223 15.5108 3.15667C15.7403 3.26112 15.9311 3.41028 16.0833 3.60417L17.125 4.875C17.25 5.02778 17.3439 5.19445 17.4067 5.375C17.4694 5.55556 17.5006 5.74306 17.5 5.9375V16.3333C17.5 16.7917 17.3369 17.1842 17.0108 17.5108C16.6847 17.8375 16.2922 18.0006 15.8333 18H4.16667ZM4.5 5.5H15.5L14.7917 4.66667H5.20833L4.5 5.5ZM8.33333 7.16667V11.125L10 10.2917L11.6667 11.125V7.16667H8.33333Z" fill="#A7004D"/>
</svg>
