<svg width="20" height="21" viewBox="0 0 20 21" fill="none" xmlns="http://www.w3.org/2000/svg">
<path d="M9.16668 14.6665H10.8333V9.6665H9.16668V14.6665ZM10 7.99984C10.2361 7.99984 10.4342 7.91984 10.5942 7.75984C10.7542 7.59984 10.8339 7.40206 10.8333 7.1665C10.8328 6.93095 10.7528 6.73317 10.5933 6.57317C10.4339 6.41317 10.2361 6.33317 10 6.33317C9.7639 6.33317 9.56612 6.41317 9.40668 6.57317C9.24723 6.73317 9.16723 6.93095 9.16668 7.1665C9.16612 7.40206 9.24612 7.60012 9.40668 7.76067C9.56723 7.92123 9.76501 8.00095 10 7.99984ZM10 18.8332C8.06945 18.3471 6.47557 17.2393 5.21834 15.5098C3.96112 13.7804 3.33279 11.8604 3.33334 9.74984V4.6665L10 2.1665L16.6667 4.6665V9.74984C16.6667 11.8609 16.0383 13.7812 14.7817 15.5107C13.525 17.2401 11.9311 18.3476 10 18.8332ZM10 17.0832C11.4445 16.6248 12.6389 15.7082 13.5833 14.3332C14.5278 12.9582 15 11.4304 15 9.74984V5.81234L10 3.93734L5.00001 5.81234V9.74984C5.00001 11.4304 5.47223 12.9582 6.41668 14.3332C7.36112 15.7082 8.55557 16.6248 10 17.0832Z" fill="#A7004D"/>
</svg>
