<svg width="20" height="18" viewBox="0 0 20 18" fill="none" xmlns="http://www.w3.org/2000/svg">
<path d="M19 1.25C19.2761 1.25 19.5 1.47386 19.5 1.75V13.5C19.5 13.7761 19.2761 14 19 14H7.28921C6.89139 14 6.50986 14.158 6.22855 14.4393L3.85355 16.8143C3.53857 17.1293 3 16.9062 3 16.4608V15.5C3 14.6716 2.32843 14 1.5 14H1C0.723857 14 0.5 13.7761 0.5 13.5V1.75C0.5 1.47386 0.723858 1.25 1 1.25H19ZM10.5 12.625C10.5 12.0037 9.99632 11.5 9.375 11.5C8.75368 11.5 8.25 12.0037 8.25 12.625C8.25 13.2463 8.75368 13.75 9.375 13.75C9.99632 13.75 10.5 13.2463 10.5 12.625ZM10.5781 10.3496C10.5781 10.1403 10.5979 9.9474 10.6356 9.76977C10.6571 9.66822 10.7163 9.54938 10.8516 9.4141C11.101 9.16471 11.3467 8.92859 11.5887 8.70566C11.8578 8.45781 12.0998 8.1911 12.3141 7.90547C12.5332 7.61325 12.7133 7.30123 12.8532 6.96988C13.0081 6.60303 13.0781 6.1926 13.0781 5.75C13.0781 5.24173 12.9805 4.75923 12.7818 4.30814C12.5889 3.87047 12.3276 3.48151 11.9981 3.14458C11.6646 2.80346 11.2715 2.53602 10.8238 2.342C10.3679 2.14445 9.88331 2.04688 9.375 2.04688C8.86673 2.04688 8.38423 2.14445 7.93314 2.34324C7.49547 2.53611 7.10651 2.79743 6.76958 3.12687C6.42846 3.46042 6.16103 3.85346 5.967 4.3012C5.87698 4.50895 5.80741 4.72337 5.7585 4.94406C5.58818 5.71248 6.25091 6.25 6.875 6.25C7.56576 6.25 7.99334 5.68639 8.17283 5.25738L8.17513 5.25192C8.24055 5.09773 8.33397 4.95907 8.45902 4.83402C8.58414 4.7089 8.71755 4.62074 8.86006 4.56284C9.00587 4.50361 9.17973 4.46474 9.38723 4.45317C9.56667 4.45463 9.72698 4.48815 9.87309 4.55013C10.0273 4.61555 10.1659 4.70897 10.291 4.83402C10.4161 4.95914 10.5043 5.09255 10.5622 5.23506C10.6214 5.38083 10.6602 5.55463 10.6718 5.76206C10.67 5.94288 10.6281 6.08691 10.5564 6.20762C10.454 6.38003 10.3253 6.54806 10.1676 6.7113C9.99366 6.89149 9.79958 7.0794 9.585 7.27505C9.34302 7.49568 9.12454 7.73184 8.93028 7.98366C8.72813 8.24571 8.55293 8.54309 8.40258 8.87243C8.22877 9.25315 8.15787 9.67831 8.17191 10.134C8.17677 10.7512 8.67857 11.25 9.29688 11.25H9.67773C10.175 11.25 10.5781 10.8469 10.5781 10.3496Z" stroke="#A7004D"/>
</svg>
