<svg width="20" height="21" viewBox="0 0 20 21" fill="none" xmlns="http://www.w3.org/2000/svg">
<path d="M17.845 1.7552H16.2344V1.08594C16.2344 0.762344 15.972 0.5 15.6484 0.5C15.3248 0.5 15.0625 0.762344 15.0625 1.08594V1.7552H12.4688V1.08594C12.4688 0.762344 12.2064 0.5 11.8828 0.5C11.5592 0.5 11.2969 0.762344 11.2969 1.08594V1.7552H8.70313V1.08594C8.70313 0.762344 8.44078 0.5 8.11719 0.5C7.79359 0.5 7.53125 0.762344 7.53125 1.08594V1.7552H4.9375V1.08594C4.9375 0.762344 4.67516 0.5 4.35156 0.5C4.02797 0.5 3.76563 0.762344 3.76563 1.08594V1.7552H2.15492C0.966719 1.7552 0 2.72188 0 3.91016V18.345C0 19.5333 0.966719 20.5 2.15492 20.5H17.845C19.0332 20.5 20 19.5333 20 18.345V3.91016C20 2.72188 19.0332 1.7552 17.845 1.7552ZM2.15492 2.92707H3.76563V3.59637C3.76563 3.91996 4.02797 4.1823 4.35156 4.1823C4.67516 4.1823 4.9375 3.91996 4.9375 3.59637V2.92707H7.53117V3.59637C7.53117 3.91996 7.79352 4.1823 8.11711 4.1823C8.4407 4.1823 8.70305 3.91996 8.70305 3.59637V2.92707H11.2968V3.59637C11.2968 3.91996 11.5591 4.1823 11.8827 4.1823C12.2063 4.1823 12.4687 3.91996 12.4687 3.59637V2.92707H15.0624V3.59637C15.0624 3.91996 15.3248 4.1823 15.6484 4.1823C15.972 4.1823 16.2343 3.91996 16.2343 3.59637V2.92707H17.8449C18.3871 2.92707 18.8281 3.36809 18.8281 3.91016V5.52082H1.17188V3.91016C1.17188 3.36809 1.61289 2.92707 2.15492 2.92707ZM17.845 19.3281H2.15492C1.61289 19.3281 1.17188 18.8871 1.17188 18.345V6.6927H18.8281V18.345C18.8281 18.8871 18.3871 19.3281 17.845 19.3281Z" fill="#A7004D"/>
<path d="M5.92059 8.65869H3.41016C3.08656 8.65869 2.82422 8.92104 2.82422 9.24463V11.755C2.82422 12.0786 3.08656 12.341 3.41016 12.341H5.92063C6.24422 12.341 6.50656 12.0786 6.50656 11.755V9.24463C6.50652 8.92104 6.24422 8.65869 5.92059 8.65869ZM5.33465 11.1691H3.99605V9.83057H5.33465V11.1691Z" fill="#A7004D"/>
<path d="M16.5905 8.65869H14.0801C13.7565 8.65869 13.4941 8.92104 13.4941 9.24463V11.755C13.4941 12.0786 13.7565 12.341 14.0801 12.341H16.5905C16.9141 12.341 17.1764 12.0786 17.1764 11.755V9.24463C17.1764 8.92104 16.9141 8.65869 16.5905 8.65869ZM16.0045 11.1691H14.666V9.83057H16.0045V11.1691Z" fill="#A7004D"/>
<path d="M5.92059 13.6797H3.41016C3.08656 13.6797 2.82422 13.942 2.82422 14.2656V16.776C2.82422 17.0996 3.08656 17.362 3.41016 17.362H5.92063C6.24422 17.362 6.50656 17.0996 6.50656 16.776V14.2656C6.50652 13.942 6.24422 13.6797 5.92059 13.6797ZM5.33465 16.1901H3.99605V14.8516H5.33465V16.1901Z" fill="#A7004D"/>
<path d="M16.5905 13.6797H14.0801C13.7565 13.6797 13.4941 13.942 13.4941 14.2656V16.776C13.4941 17.0996 13.7565 17.362 14.0801 17.362H16.5905C16.9141 17.362 17.1764 17.0996 17.1764 16.776V14.2656C17.1764 13.942 16.9141 13.6797 16.5905 13.6797ZM16.0045 16.1901H14.666V14.8516H16.0045V16.1901Z" fill="#A7004D"/>
<path d="M11.2546 13.6797H8.74414C8.42055 13.6797 8.1582 13.942 8.1582 14.2656V16.776C8.1582 17.0996 8.42055 17.362 8.74414 17.362H11.2546C11.5782 17.362 11.8405 17.0996 11.8405 16.776V14.2656C11.8405 13.942 11.5782 13.6797 11.2546 13.6797ZM10.6687 16.1901H9.33008V14.8516H10.6687V16.1901Z" fill="#A7004D"/>
<path d="M10.9163 9.19799L9.55557 10.5588L9.08229 10.0855C8.8535 9.85666 8.48248 9.85666 8.25365 10.0855C8.02482 10.3143 8.02482 10.6853 8.25365 10.9141L9.14127 11.8017C9.25115 11.9116 9.40018 11.9734 9.55557 11.9734C9.711 11.9734 9.86002 11.9116 9.9699 11.8017L11.7449 10.0266C11.9737 9.79779 11.9737 9.42682 11.7449 9.19799C11.5161 8.96916 11.1451 8.96916 10.9163 9.19799Z" fill="#A7004D"/>
</svg>
