<svg width="26" height="26" viewBox="0 0 26 26" fill="none" xmlns="http://www.w3.org/2000/svg">
<path fill-rule="evenodd" clip-rule="evenodd" d="M22.1 6.49995C22.1 6.15517 21.963 5.82451 21.7192 5.58071C21.4754 5.33692 21.1448 5.19995 20.8 5.19995H5.19998C4.85519 5.19995 4.52453 5.33692 4.28074 5.58071C4.03694 5.82451 3.89998 6.15517 3.89998 6.49995C3.89998 6.84473 4.03694 7.17539 4.28074 7.41919C4.52453 7.66299 4.85519 7.79995 5.19998 7.79995H20.8C21.1448 7.79995 21.4754 7.66299 21.7192 7.41919C21.963 7.17539 22.1 6.84473 22.1 6.49995ZM22.1 13C22.1 12.6552 21.963 12.3245 21.7192 12.0807C21.4754 11.8369 21.1448 11.7 20.8 11.7H5.19998C4.85519 11.7 4.52453 11.8369 4.28074 12.0807C4.03694 12.3245 3.89998 12.6552 3.89998 13C3.89998 13.3447 4.03694 13.6754 4.28074 13.9192C4.52453 14.163 4.85519 14.3 5.19998 14.3H20.8C21.1448 14.3 21.4754 14.163 21.7192 13.9192C21.963 13.6754 22.1 13.3447 22.1 13ZM14.3 19.5C14.3 19.1552 14.163 18.8245 13.9192 18.5807C13.6754 18.3369 13.3448 18.2 13 18.2H5.19998C4.85519 18.2 4.52453 18.3369 4.28074 18.5807C4.03694 18.8245 3.89998 19.1552 3.89998 19.5C3.89998 19.8447 4.03694 20.1754 4.28074 20.4192C4.52453 20.663 4.85519 20.8 5.19998 20.8H13C13.3448 20.8 13.6754 20.663 13.9192 20.4192C14.163 20.1754 14.3 19.8447 14.3 19.5Z" fill="#A7004D"/>
</svg>
