<svg width="37" height="38" viewBox="0 0 37 38" fill="none" xmlns="http://www.w3.org/2000/svg">
<g clip-path="url(#clip0_950_5396)">
<path d="M36.2273 11.8655C36.2273 6.00523 31.1098 1.25449 24.7971 1.25449C18.4844 1.25449 13.3668 6.00523 13.3668 11.8655C13.3668 16.6878 16.8331 20.7559 21.5779 22.0469L21.6159 25.225C21.6213 25.6686 22.1371 25.9091 22.4804 25.6281L26.4679 22.3626C31.9884 21.6117 36.2273 17.1987 36.2273 11.8655Z" fill="#CB3278"/>
<path d="M21.5398 32.8815L18.8346 28.1205C18.5463 27.6132 17.9014 27.4356 17.3941 27.7239L16.0936 28.4629C15.1333 29.0085 13.9126 28.6724 13.367 27.7122L8.79141 19.6594C8.2458 18.6991 8.58198 17.4784 9.54225 16.9328L10.8427 16.1938C11.35 15.9056 11.5277 15.2606 11.2393 14.7533L9.88681 12.3728L8.53414 9.99242C8.19507 9.3955 7.43628 9.18666 6.83937 9.52573L3.66488 11.3295C0.632474 13.0521 -0.429107 16.9071 1.29385 19.9395L9.28816 34.0092C11.0111 37.0416 14.8661 38.103 17.8985 36.3801L21.073 34.5763C21.6699 34.2371 21.8789 33.4783 21.5398 32.8815Z" fill="#A7004D"/>
<path d="M25.4616 16.3989H24.357C23.2369 16.3989 22.3257 15.4876 22.3257 14.3677V9.94905C22.3257 8.82893 23.237 7.91766 24.357 7.91766H25.4616C26.5816 7.91766 27.4929 8.82893 27.4929 9.94905V14.3677C27.4929 15.4876 26.5816 16.3989 25.4616 16.3989ZM24.357 9.21844C23.9542 9.21844 23.6265 9.54624 23.6265 9.94905V14.3677C23.6265 14.7705 23.9542 15.0981 24.357 15.0981H25.4616C25.8644 15.0981 26.1921 14.7705 26.1921 14.3677V9.94905C26.1921 9.54624 25.8644 9.21844 25.4616 9.21844H24.357Z" fill="white"/>
<path d="M19.2467 16.0637H18.142C17.022 16.0637 16.1108 15.1525 16.1108 14.0325C16.1108 13.6733 16.402 13.3821 16.7612 13.3821C17.1203 13.3821 17.4116 13.6733 17.4116 14.0325C17.4116 14.4352 17.7392 14.763 18.142 14.763H19.2467C19.6495 14.763 19.9771 14.4352 19.9771 14.0325V12.3754C19.9771 11.9726 19.6495 11.645 19.2467 11.645H18.142C17.022 11.645 16.1108 10.7337 16.1108 9.61359C16.1108 8.49362 17.022 7.58235 18.142 7.58235H19.2467C20.3668 7.58235 21.2779 8.49362 21.2779 9.61359C21.2779 9.97275 20.9867 10.264 20.6275 10.264C20.2684 10.264 19.9771 9.97275 19.9771 9.61359C19.9771 9.21079 19.6495 8.88313 19.2467 8.88313H18.142C17.7392 8.88313 17.4116 9.21079 17.4116 9.61359C17.4116 10.0164 17.7392 10.3442 18.142 10.3442H19.2467C20.3668 10.3442 21.2779 11.2555 21.2779 12.3754V14.0325C21.2781 15.1525 20.3668 16.0637 19.2467 16.0637Z" fill="white"/>
<path d="M31.6765 16.0637H30.5718C29.4519 16.0637 28.5406 15.1525 28.5406 14.0325C28.5406 13.6733 28.8318 13.3821 29.191 13.3821C29.5501 13.3821 29.8414 13.6733 29.8414 14.0325C29.8414 14.4352 30.169 14.763 30.5718 14.763H31.6765C32.0793 14.763 32.4069 14.4352 32.4069 14.0325V12.3754C32.4069 11.9726 32.0793 11.645 31.6765 11.645H30.5718C29.4519 11.645 28.5406 10.7337 28.5406 9.61359C28.5406 8.49362 29.4519 7.58235 30.5718 7.58235H31.6765C32.7966 7.58235 33.7077 8.49362 33.7077 9.61359C33.7077 9.97275 33.4165 10.264 33.0573 10.264C32.6982 10.264 32.4069 9.97275 32.4069 9.61359C32.4069 9.21079 32.0793 8.88313 31.6765 8.88313H30.5718C30.169 8.88313 29.8414 9.21079 29.8414 9.61359C29.8414 10.0164 30.169 10.3442 30.5718 10.3442H31.6765C32.7966 10.3442 33.7077 11.2555 33.7077 12.3754V14.0325C33.7077 15.1525 32.7965 16.0637 31.6765 16.0637Z" fill="white"/>
<path d="M14.7899 37.4921C12.4897 37.4922 10.2522 36.2906 9.03682 34.152L1.04251 20.0823C-0.756331 16.9162 0.355837 12.8768 3.52194 11.0777L6.69642 9.27395C7.43108 8.85669 8.36793 9.11482 8.78548 9.84918L11.4907 14.61C11.8571 15.2554 11.6304 16.0783 10.9852 16.4447L9.6849 17.1837C8.86468 17.6498 8.57663 18.6961 9.04274 19.5162L13.6183 27.569C13.8441 27.9663 14.2109 28.2519 14.6514 28.3732C15.0918 28.4941 15.5533 28.4369 15.9506 28.2112L17.2511 27.4723C17.5633 27.2947 17.9261 27.2492 18.2731 27.345C18.6195 27.4404 18.9083 27.665 19.0858 27.9774L21.791 32.7385C22.2084 33.4728 21.9504 34.4098 21.2159 34.8274L18.0413 36.631C17.0139 37.215 15.8947 37.4921 14.7899 37.4921ZM7.45174 9.65233C7.29218 9.65233 7.13045 9.69236 6.98202 9.77663L3.80768 11.5804C0.918497 13.2221 -0.0962566 16.9078 1.54518 19.7967L9.53964 33.8664C10.3347 35.2659 11.6273 36.2719 13.1791 36.6992C14.7315 37.1264 16.3565 36.9241 17.7557 36.1287L20.9303 34.3251C21.1517 34.1992 21.3111 33.9947 21.3788 33.749C21.4464 33.5035 21.4143 33.2462 21.2884 33.0246L18.5833 28.2636C18.4821 28.0854 18.3175 27.9572 18.1197 27.9029C17.9222 27.8481 17.7152 27.8743 17.537 27.9754L16.2365 28.7144C15.7046 29.0165 15.0872 29.0932 14.4981 28.9311C13.9087 28.7688 13.4177 28.3866 13.1158 27.8552L8.54021 19.8023C7.91685 18.705 8.30231 17.3051 9.39945 16.6815L10.6999 15.9425C11.0679 15.7336 11.1971 15.2642 10.9881 14.8962L8.28294 10.1354C8.10734 9.82606 7.78388 9.65233 7.45174 9.65233Z" fill="#CB3278"/>
<path d="M22.1467 26.038C22.0292 26.038 21.9109 26.0124 21.7992 25.9602C21.5117 25.8261 21.3306 25.5459 21.3267 25.2285L21.2913 22.2664C16.4442 20.8539 13.0778 16.6066 13.0778 11.8655C13.0778 5.8552 18.3351 0.965424 24.7971 0.965424C31.2591 0.965424 36.5164 5.8552 36.5164 11.8655C36.5164 14.5022 35.4908 17.0468 33.6285 19.0302C31.8074 20.97 29.3098 22.2491 26.5883 22.6376L22.6636 25.8515C22.5135 25.9745 22.3314 26.038 22.1467 26.038ZM24.7971 1.54355C18.6538 1.54355 13.6559 6.1739 13.6559 11.8655C13.6559 16.4148 16.9447 20.4867 21.6538 21.7679C21.7783 21.8018 21.8654 21.9144 21.867 22.0434L21.905 25.2215C21.9067 25.3577 22.0026 25.4171 22.0436 25.4362C22.0848 25.4555 22.192 25.4905 22.2974 25.4042L26.2847 22.1388C26.3261 22.105 26.3761 22.0832 26.429 22.0759C31.8502 21.3384 35.9384 16.9488 35.9384 11.8654C35.9383 6.1739 30.9404 1.54355 24.7971 1.54355Z" fill="#CB3278"/>
</g>
<defs>
<clipPath id="clip0_950_5396">
<rect width="37" height="37" fill="white" transform="translate(0 0.72998)"/>
</clipPath>
</defs>
</svg>
