<svg width="285" height="285" viewBox="0 0 285 285" fill="none" xmlns="http://www.w3.org/2000/svg">
<g opacity="0.85">
<path d="M285 217.359H0V217.501H285V217.359Z" fill="#EBEBEB"/>
<path d="M48.7806 222.767H29.9022V222.909H48.7806V222.767Z" fill="#EBEBEB"/>
<path d="M124.197 221.228H97.5498V221.37H124.197V221.228Z" fill="#EBEBEB"/>
<path d="M75.2343 227.157H64.296V227.299H75.2343V227.157Z" fill="#EBEBEB"/>
<path d="M195.248 224.692H178.028V224.834H195.248V224.692Z" fill="#EBEBEB"/>
<path d="M211.333 224.692H200.321V224.834H211.333V224.692Z" fill="#EBEBEB"/>
<path d="M256.449 227.089H223.07V227.231H256.449V227.089Z" fill="#EBEBEB"/>
<path d="M135.09 192.027H25.0287C24.1665 192.025 23.3401 191.683 22.731 191.075C22.1218 190.467 21.7797 189.643 21.7797 188.783V34.6111C21.7872 33.7569 22.1326 32.9401 22.741 32.3381C23.3493 31.7362 24.1714 31.3977 25.0287 31.3962H135.09C135.953 31.3962 136.781 31.7379 137.391 32.3462C138.002 32.9544 138.345 33.7793 138.345 34.6395V188.783C138.345 189.644 138.002 190.468 137.391 191.077C136.781 191.685 135.953 192.027 135.09 192.027ZM25.0287 31.5098C24.2043 31.5113 23.4141 31.8387 22.8317 32.4202C22.2493 33.0016 21.9222 33.7896 21.9222 34.6111V188.783C21.9222 189.605 22.2493 190.393 22.8317 190.974C23.4141 191.556 24.2043 191.883 25.0287 191.885H135.09C135.915 191.883 136.706 191.556 137.289 190.975C137.872 190.393 138.201 189.605 138.202 188.783V34.6111C138.201 33.7891 137.872 33.0011 137.289 32.4198C136.706 31.8386 135.915 31.5113 135.09 31.5098H25.0287Z" fill="#EBEBEB"/>
<path d="M258.387 192.027H148.32C147.457 192.025 146.63 191.683 146.02 191.075C145.41 190.467 145.067 189.643 145.065 188.783V34.6111C145.074 33.7563 145.421 32.9395 146.03 32.3378C146.639 31.736 147.462 31.3977 148.32 31.3962H258.387C259.243 31.3992 260.064 31.7383 260.671 32.3401C261.278 32.9419 261.623 33.7578 261.63 34.6111V188.783C261.63 189.642 261.289 190.465 260.681 191.073C260.073 191.681 259.248 192.024 258.387 192.027ZM148.32 31.5098C147.495 31.5113 146.704 31.8386 146.121 32.4198C145.537 33.0011 145.209 33.7891 145.208 34.6111V188.783C145.209 189.605 145.537 190.393 146.121 190.975C146.704 191.556 147.495 191.883 148.32 191.885H258.387C259.212 191.883 260.002 191.556 260.586 190.975C261.169 190.393 261.497 189.605 261.499 188.783V34.6111C261.497 33.7891 261.169 33.0011 260.586 32.4198C260.002 31.8386 259.212 31.5113 258.387 31.5098H148.32Z" fill="#EBEBEB"/>
<path d="M51.0207 139.441L186.641 139.441V54.8717L51.0207 54.8717V139.441Z" fill="#F0F0F0"/>
<path d="M183.985 135.465V58.8477L53.6712 58.8477V135.465H183.985Z" fill="#FAFAFA"/>
<path d="M166.833 135.465L153.461 58.8477H143.606L156.972 135.465H166.833Z" fill="white"/>
<path d="M154.698 135.465L141.332 58.8477H136.925L150.292 135.465H154.698Z" fill="white"/>
<path d="M133.129 135.465L119.763 58.8477H109.907L123.274 135.465H133.129Z" fill="white"/>
<path d="M108.283 135.465L94.9107 58.8477H90.5046L103.871 135.465H108.283Z" fill="white"/>
<path d="M149.745 135.465V58.8477H149.072V135.465H149.745Z" fill="#E0E0E0"/>
<path d="M183.985 135.471V58.8534H183.312V135.471H183.985Z" fill="#E0E0E0"/>
<path d="M152.401 135.465V58.8477H149.745V135.465H152.401Z" fill="#F0F0F0"/>
<path d="M116.85 135.465V58.8477H116.177V135.465H116.85Z" fill="#E0E0E0"/>
<path d="M119.5 135.465V58.8477H116.844V135.465H119.5Z" fill="#F0F0F0"/>
<path d="M83.9325 135.465V58.8477H83.2599V135.465H83.9325Z" fill="#E0E0E0"/>
<path d="M86.5887 135.471V58.8534H83.9325V135.471H86.5887Z" fill="#F0F0F0"/>
<path d="M51.015 139.441L51.015 54.8717H50.3424L50.3424 139.441H51.015Z" fill="#E0E0E0"/>
<path d="M37.2381 49.0667H192.66C192.895 49.0667 193.12 48.9741 193.287 48.8092C193.453 48.6443 193.548 48.4203 193.549 48.1863C193.549 47.9513 193.456 47.7259 193.289 47.5598C193.122 47.3936 192.896 47.3002 192.66 47.3002H37.2381C37.0033 47.3017 36.7786 47.3957 36.613 47.5618C36.4475 47.7278 36.3546 47.9523 36.3546 48.1863C36.3561 48.4193 36.4497 48.6424 36.615 48.8072C36.7804 48.972 37.0042 49.0652 37.2381 49.0667Z" fill="#E0E0E0"/>
<g opacity="0.6">
<path d="M131.516 199.905H190.488L190.488 45.5962H131.516L131.516 199.905Z" fill="#F5F5F5"/>
<path d="M167.375 201.166H172.317L170.932 46.8572H168.72L167.375 201.166Z" fill="#E6E6E6"/>
<path d="M178.279 201.166H180.667L179.995 46.8572H178.929L178.279 201.166Z" fill="#E6E6E6"/>
<path d="M153.045 201.166H155.428L154.761 46.8572H153.695L153.045 201.166Z" fill="#E6E6E6"/>
<path d="M140.904 201.166H143.287L142.62 46.8572H141.554L140.904 201.166Z" fill="#E6E6E6"/>
</g>
<g opacity="0.6">
<path d="M40.2819 199.905H69.768L69.768 45.5962H40.2819L40.2819 199.905Z" fill="#F5F5F5"/>
<path d="M58.2141 201.166H60.6822L59.9925 46.8572H58.8867L58.2141 201.166Z" fill="#E6E6E6"/>
<path d="M63.6633 201.166H64.8546L64.524 46.8572H63.9882L63.6633 201.166Z" fill="#E6E6E6"/>
<path d="M51.0492 201.166H52.2405L51.9042 46.8572H51.3741L51.0492 201.166Z" fill="#E6E6E6"/>
<path d="M44.9787 201.166H46.17L45.8337 46.8572H45.2979L44.9787 201.166Z" fill="#E6E6E6"/>
</g>
<path d="M244.946 69.4523H205.827V118.107H244.946V69.4523Z" fill="#E6E6E6"/>
<path d="M246.667 69.4523H206.414V118.107H246.667V69.4523Z" fill="#F5F5F5"/>
<path d="M243.584 114.654V72.9057H209.503V114.654H243.584Z" fill="#FAFAFA"/>
<path d="M243.584 114.654V72.9057H243.265V114.654H243.584Z" fill="#E6E6E6"/>
<path d="M237.816 91.0364C239.74 89.1199 239.74 86.0126 237.816 84.0961C235.893 82.1796 232.775 82.1796 230.852 84.0961C228.928 86.0127 228.928 89.1199 230.852 91.0364C232.775 92.9529 235.893 92.9529 237.816 91.0364Z" fill="#F0F0F0"/>
<path d="M233.545 101.98C237.454 98.0847 237.454 91.7695 233.545 87.8744C229.636 83.9793 223.299 83.9793 219.39 87.8744C215.481 91.7695 215.481 98.0847 219.39 101.98C223.299 105.875 229.636 105.875 233.545 101.98Z" fill="white"/>
<path d="M223.863 88.6862C224.488 86.0483 222.849 83.4052 220.202 82.7826C217.554 82.16 214.902 83.7937 214.277 86.4316C213.652 89.0695 215.292 91.7126 217.939 92.3352C220.586 92.9578 223.239 91.3241 223.863 88.6862Z" fill="#F0F0F0"/>
<path d="M204.664 159.401H199.318V213.713H204.664V159.401Z" fill="#F0F0F0"/>
<path d="M254.915 156.152H198.018V159.401H254.915V156.152Z" fill="#F0F0F0"/>
<path d="M251.433 213.713H201.495V217.359H251.433V213.713Z" fill="#F0F0F0"/>
<path d="M253.616 159.401H204.664V213.713H253.616V159.401Z" fill="#FAFAFA"/>
<path d="M209.122 182.115H249.153V165.45H209.122V182.115Z" fill="#F0F0F0"/>
<path d="M209.122 206.624H249.153V189.959H209.122V206.624Z" fill="#F0F0F0"/>
<path d="M233.7 164.467H224.574C224.001 164.467 223.537 164.93 223.537 165.501V166.024C223.537 166.595 224.001 167.057 224.574 167.057H233.7C234.273 167.057 234.737 166.595 234.737 166.024V165.501C234.737 164.93 234.273 164.467 233.7 164.467Z" fill="#FAFAFA"/>
<path d="M233.7 188.982H224.574C224.001 188.982 223.537 189.445 223.537 190.016V190.538C223.537 191.109 224.001 191.572 224.574 191.572H233.7C234.273 191.572 234.737 191.109 234.737 190.538V190.016C234.737 189.445 234.273 188.982 233.7 188.982Z" fill="#FAFAFA"/>
<path d="M123.228 234.55C129.927 233.466 134.477 227.176 133.389 220.5C132.302 213.824 125.989 209.291 119.29 210.374C112.59 211.458 108.041 217.748 109.128 224.424C110.216 231.1 116.528 235.634 123.228 234.55Z" fill="#EBEBEB"/>
<path d="M104.838 234.514C113.2 233.162 118.878 225.31 117.521 216.978C116.164 208.645 108.285 202.987 99.9229 204.339C91.561 205.692 85.8827 213.543 87.24 221.876C88.5974 230.208 96.4763 235.867 104.838 234.514Z" fill="#F5F5F5"/>
<path d="M142.5 243.01C203.537 243.01 253.017 240.132 253.017 236.581C253.017 233.03 203.537 230.151 142.5 230.151C81.463 230.151 31.9827 233.03 31.9827 236.581C31.9827 240.132 81.463 243.01 142.5 243.01Z" fill="#F5F5F5"/>
<path d="M72.1677 112.359C68.4 112.359 66.6273 108.582 66.5532 108.423C66.4887 108.246 66.4932 108.051 66.566 107.878C66.6387 107.704 66.7742 107.564 66.9457 107.485C67.1172 107.407 67.3122 107.395 67.4918 107.453C67.6714 107.511 67.8227 107.634 67.9155 107.798C67.9155 107.849 69.4146 110.945 72.2817 110.865C72.4702 110.876 72.6477 110.957 72.7792 111.091C72.9107 111.226 72.9865 111.406 72.9915 111.594C72.9965 111.782 72.9304 111.965 72.8063 112.107C72.6822 112.248 72.5092 112.338 72.3216 112.359H72.1677Z" fill="#A7004D"/>
<path d="M121.41 59.9042C121.082 59.9056 120.755 59.8848 120.43 59.8417C120.332 59.8272 120.239 59.7937 120.154 59.7431C120.07 59.6926 119.997 59.626 119.938 59.5471C119.88 59.4683 119.837 59.3787 119.814 59.2835C119.79 59.1884 119.785 59.0895 119.8 58.9925C119.814 58.8956 119.848 58.8024 119.899 58.7184C119.949 58.6344 120.016 58.5611 120.095 58.5029C120.175 58.4446 120.264 58.4024 120.36 58.3787C120.455 58.3551 120.555 58.3504 120.652 58.3649C120.686 58.3649 124.118 58.8477 125.622 56.411C125.674 56.3274 125.741 56.2548 125.82 56.1972C125.9 56.1395 125.99 56.0981 126.085 56.0751C126.181 56.0522 126.28 56.0482 126.377 56.0634C126.474 56.0787 126.567 56.1128 126.651 56.1639C126.735 56.215 126.808 56.282 126.866 56.3612C126.924 56.4404 126.965 56.5301 126.988 56.6254C127.011 56.7206 127.015 56.8193 127 56.9161C126.985 57.0128 126.95 57.1056 126.899 57.1891C125.4 59.552 122.807 59.9042 121.41 59.9042Z" fill="#A7004D"/>
<path opacity="0.6" d="M121.41 59.9042C121.082 59.9056 120.755 59.8848 120.43 59.8417C120.332 59.8272 120.239 59.7937 120.154 59.7431C120.07 59.6926 119.997 59.626 119.938 59.5471C119.88 59.4683 119.837 59.3787 119.814 59.2835C119.79 59.1884 119.785 59.0895 119.8 58.9925C119.814 58.8956 119.848 58.8024 119.899 58.7184C119.949 58.6344 120.016 58.5611 120.095 58.5029C120.175 58.4446 120.264 58.4024 120.36 58.3787C120.455 58.3551 120.555 58.3504 120.652 58.3649C120.686 58.3649 124.118 58.8477 125.622 56.411C125.674 56.3274 125.741 56.2548 125.82 56.1972C125.9 56.1395 125.99 56.0981 126.085 56.0751C126.181 56.0522 126.28 56.0482 126.377 56.0634C126.474 56.0787 126.567 56.1128 126.651 56.1639C126.735 56.215 126.808 56.282 126.866 56.3612C126.924 56.4404 126.965 56.5301 126.988 56.6254C127.011 56.7206 127.015 56.8193 127 56.9161C126.985 57.0128 126.95 57.1056 126.899 57.1891C125.4 59.552 122.807 59.9042 121.41 59.9042Z" fill="white"/>
<path d="M36.822 88.3496C35.3758 88.3006 33.9714 87.8544 32.7636 87.0603C32.6784 87.0059 32.6052 86.9348 32.5484 86.8513C32.4916 86.7678 32.4524 86.6737 32.4333 86.5747C32.4141 86.4757 32.4153 86.3738 32.4369 86.2753C32.4584 86.1768 32.4999 86.0836 32.5587 86.0016C32.6174 85.9195 32.6923 85.8502 32.7788 85.7978C32.8653 85.7455 32.9616 85.7112 33.0618 85.697C33.162 85.6829 33.264 85.6892 33.3617 85.7156C33.4594 85.742 33.5507 85.7878 33.63 85.8504C33.6585 85.8504 36.5313 87.7873 38.9538 86.248C39.0368 86.1879 39.1312 86.1453 39.2313 86.1229C39.3314 86.1005 39.435 86.0987 39.5358 86.1177C39.6366 86.1366 39.7325 86.1759 39.8175 86.2331C39.9025 86.2904 39.9749 86.3643 40.0301 86.4504C40.0854 86.5365 40.1224 86.633 40.1389 86.7339C40.1554 86.8348 40.151 86.938 40.126 87.0371C40.101 87.1363 40.0559 87.2293 39.9935 87.3104C39.9311 87.3916 39.8528 87.4591 39.7632 87.509C38.8851 88.0669 37.8634 88.359 36.822 88.3496Z" fill="#A7004D"/>
<path opacity="0.6" d="M36.822 88.3496C35.3758 88.3006 33.9714 87.8544 32.7636 87.0603C32.6784 87.0059 32.6052 86.9348 32.5484 86.8513C32.4916 86.7678 32.4524 86.6737 32.4333 86.5747C32.4141 86.4757 32.4153 86.3738 32.4369 86.2753C32.4584 86.1768 32.4999 86.0836 32.5587 86.0016C32.6174 85.9195 32.6923 85.8502 32.7788 85.7978C32.8653 85.7455 32.9616 85.7112 33.0618 85.697C33.162 85.6829 33.264 85.6892 33.3617 85.7156C33.4594 85.742 33.5507 85.7878 33.63 85.8504C33.6585 85.8504 36.5313 87.7873 38.9538 86.248C39.0368 86.1879 39.1312 86.1453 39.2313 86.1229C39.3314 86.1005 39.435 86.0987 39.5358 86.1177C39.6366 86.1366 39.7325 86.1759 39.8175 86.2331C39.9025 86.2904 39.9749 86.3643 40.0301 86.4504C40.0854 86.5365 40.1224 86.633 40.1389 86.7339C40.1554 86.8348 40.151 86.938 40.126 87.0371C40.101 87.1363 40.0559 87.2293 39.9935 87.3104C39.9311 87.3916 39.8528 87.4591 39.7632 87.509C38.8851 88.0669 37.8634 88.359 36.822 88.3496Z" fill="white"/>
<path d="M232.349 68.4299C230.905 68.3911 229.5 67.9589 228.285 67.1803C228.122 67.068 228.01 66.8958 227.974 66.7014C227.938 66.507 227.981 66.3064 228.094 66.1437C228.207 65.981 228.38 65.8695 228.575 65.8338C228.77 65.7982 228.971 65.8412 229.134 65.9534C229.163 65.9534 232.041 67.8846 234.464 66.351C234.547 66.2984 234.639 66.2626 234.735 66.2455C234.832 66.2285 234.931 66.2306 235.027 66.2517C235.123 66.2728 235.213 66.3125 235.294 66.3685C235.374 66.4245 235.443 66.4958 235.496 66.5782C235.548 66.6606 235.584 66.7526 235.601 66.8489C235.618 66.9451 235.616 67.0438 235.595 67.1393C235.574 67.2348 235.534 67.3251 235.478 67.4053C235.422 67.4854 235.35 67.5537 235.268 67.6063C234.395 68.157 233.381 68.4431 232.349 68.4299Z" fill="#A7004D"/>
<path opacity="0.6" d="M232.349 68.4299C230.905 68.3911 229.5 67.9589 228.285 67.1803C228.122 67.068 228.01 66.8958 227.974 66.7014C227.938 66.507 227.981 66.3064 228.094 66.1437C228.207 65.981 228.38 65.8695 228.575 65.8338C228.77 65.7982 228.971 65.8412 229.134 65.9534C229.163 65.9534 232.041 67.8846 234.464 66.351C234.547 66.2984 234.639 66.2626 234.735 66.2455C234.832 66.2285 234.931 66.2306 235.027 66.2517C235.123 66.2728 235.213 66.3125 235.294 66.3685C235.374 66.4245 235.443 66.4958 235.496 66.5782C235.548 66.6606 235.584 66.7526 235.601 66.8489C235.618 66.9451 235.616 67.0438 235.595 67.1393C235.574 67.2348 235.534 67.3251 235.478 67.4053C235.422 67.4854 235.35 67.5537 235.268 67.6063C234.395 68.157 233.381 68.4431 232.349 68.4299Z" fill="white"/>
<path d="M140.682 127.099C137.188 127.099 135.284 123.725 135.198 123.571C135.102 123.398 135.079 123.194 135.134 123.004C135.189 122.814 135.318 122.653 135.492 122.557C135.666 122.462 135.871 122.439 136.061 122.494C136.252 122.549 136.413 122.677 136.509 122.85C136.509 122.895 138.219 125.872 141.069 125.582C141.26 125.575 141.446 125.641 141.59 125.766C141.733 125.891 141.824 126.065 141.844 126.254C141.863 126.443 141.81 126.633 141.695 126.784C141.58 126.936 141.411 127.038 141.223 127.07C141.052 127.087 140.864 127.099 140.682 127.099Z" fill="#A7004D"/>
<path opacity="0.6" d="M140.682 127.099C137.188 127.099 135.284 123.725 135.198 123.571C135.102 123.398 135.079 123.194 135.134 123.004C135.189 122.814 135.318 122.653 135.492 122.557C135.666 122.462 135.871 122.439 136.061 122.494C136.252 122.549 136.413 122.677 136.509 122.85C136.509 122.895 138.219 125.872 141.069 125.582C141.26 125.575 141.446 125.641 141.59 125.766C141.733 125.891 141.824 126.065 141.844 126.254C141.863 126.443 141.81 126.633 141.695 126.784C141.58 126.936 141.411 127.038 141.223 127.07C141.052 127.087 140.864 127.099 140.682 127.099Z" fill="white"/>
<path d="M45.03 142.27C44.8485 142.268 44.6737 142.201 44.5384 142.08C44.4032 141.96 44.3166 141.794 44.2949 141.615C44.2733 141.435 44.318 141.254 44.4208 141.105C44.5236 140.955 44.6773 140.849 44.8533 140.804C44.8875 140.804 48.2334 139.924 48.6894 137.095C48.7051 136.999 48.7398 136.906 48.7914 136.823C48.843 136.74 48.9106 136.667 48.9902 136.61C49.0699 136.553 49.1601 136.512 49.2557 136.489C49.3512 136.467 49.4503 136.463 49.5472 136.479C49.6442 136.495 49.7371 136.529 49.8206 136.581C49.9042 136.632 49.9767 136.699 50.0341 136.779C50.0916 136.858 50.1327 136.948 50.1553 137.043C50.1779 137.139 50.1814 137.237 50.1657 137.334C49.5558 141.145 45.3891 142.207 45.2124 142.253C45.1523 142.264 45.0912 142.27 45.03 142.27Z" fill="#A7004D"/>
<path opacity="0.6" d="M45.03 142.27C44.8485 142.268 44.6737 142.201 44.5384 142.08C44.4032 141.96 44.3166 141.794 44.2949 141.615C44.2733 141.435 44.318 141.254 44.4208 141.105C44.5236 140.955 44.6773 140.849 44.8533 140.804C44.8875 140.804 48.2334 139.924 48.6894 137.095C48.7051 136.999 48.7398 136.906 48.7914 136.823C48.843 136.74 48.9106 136.667 48.9902 136.61C49.0699 136.553 49.1601 136.512 49.2557 136.489C49.3512 136.467 49.4503 136.463 49.5472 136.479C49.6442 136.495 49.7371 136.529 49.8206 136.581C49.9042 136.632 49.9767 136.699 50.0341 136.779C50.0916 136.858 50.1327 136.948 50.1553 137.043C50.1779 137.139 50.1814 137.237 50.1657 137.334C49.5558 141.145 45.3891 142.207 45.2124 142.253C45.1523 142.264 45.0912 142.27 45.03 142.27Z" fill="black"/>
<path d="M211.47 90.4967C211.284 90.503 211.101 90.4396 210.96 90.3188C210.818 90.1981 210.726 90.0288 210.703 89.8443C210.681 89.6597 210.728 89.4734 210.836 89.3218C210.944 89.1703 211.105 89.0646 211.288 89.0256C211.322 89.0256 214.668 88.1508 215.124 85.3222C215.133 85.2198 215.164 85.1204 215.213 85.0302C215.263 84.9401 215.33 84.861 215.412 84.798C215.493 84.735 215.587 84.6893 215.687 84.6639C215.787 84.6385 215.891 84.6338 215.993 84.6502C216.095 84.6666 216.192 84.7037 216.279 84.7592C216.366 84.8147 216.44 84.8874 216.498 84.9728C216.555 85.0582 216.595 85.1545 216.613 85.2556C216.632 85.3568 216.629 85.4606 216.606 85.5607C215.99 89.372 211.823 90.4342 211.647 90.4739C211.589 90.4899 211.53 90.4975 211.47 90.4967Z" fill="#A7004D"/>
<path opacity="0.6" d="M211.47 90.4967C211.284 90.503 211.101 90.4396 210.96 90.3188C210.818 90.1981 210.726 90.0288 210.703 89.8443C210.681 89.6597 210.728 89.4734 210.836 89.3218C210.944 89.1703 211.105 89.0646 211.288 89.0256C211.322 89.0256 214.668 88.1508 215.124 85.3222C215.133 85.2198 215.164 85.1204 215.213 85.0302C215.263 84.9401 215.33 84.861 215.412 84.798C215.493 84.735 215.587 84.6893 215.687 84.6639C215.787 84.6385 215.891 84.6338 215.993 84.6502C216.095 84.6666 216.192 84.7037 216.279 84.7592C216.366 84.8147 216.44 84.8874 216.498 84.9728C216.555 85.0582 216.595 85.1545 216.613 85.2556C216.632 85.3568 216.629 85.4606 216.606 85.5607C215.99 89.372 211.823 90.4342 211.647 90.4739C211.589 90.4899 211.53 90.4975 211.47 90.4967Z" fill="black"/>
<path d="M242.096 118.817H241.971C241.788 118.783 237.559 118.011 236.687 114.273C236.664 114.177 236.661 114.077 236.677 113.98C236.694 113.882 236.73 113.789 236.783 113.705C236.836 113.622 236.905 113.549 236.987 113.493C237.068 113.436 237.16 113.396 237.257 113.376C237.353 113.354 237.453 113.351 237.551 113.368C237.648 113.385 237.742 113.421 237.825 113.473C237.909 113.526 237.981 113.595 238.038 113.676C238.095 113.756 238.136 113.847 238.157 113.944C238.807 116.727 242.204 117.352 242.239 117.352C242.418 117.39 242.577 117.492 242.686 117.639C242.796 117.787 242.847 117.968 242.831 118.151C242.815 118.333 242.732 118.503 242.599 118.629C242.466 118.755 242.291 118.828 242.107 118.834L242.096 118.817Z" fill="#A7004D"/>
<path d="M228.735 146.2C227.43 146.221 226.16 145.776 225.156 144.945C225.072 144.885 225.001 144.809 224.949 144.721C224.896 144.633 224.862 144.535 224.849 144.433C224.836 144.331 224.844 144.228 224.873 144.129C224.903 144.031 224.952 143.94 225.018 143.861C225.084 143.783 225.166 143.718 225.258 143.673C225.351 143.627 225.451 143.601 225.554 143.596C225.657 143.592 225.76 143.608 225.856 143.645C225.952 143.681 226.04 143.737 226.113 143.809C228.319 145.638 231.414 144.104 231.449 144.087C231.625 143.997 231.831 143.98 232.02 144.041C232.209 144.102 232.367 144.235 232.457 144.411C232.548 144.587 232.565 144.792 232.504 144.981C232.443 145.169 232.309 145.326 232.133 145.417C231.07 145.92 229.911 146.187 228.735 146.2Z" fill="#A7004D"/>
<path d="M193.8 52.9802C193.67 52.9812 193.542 52.9479 193.43 52.8837C193.276 52.7985 189.554 50.6514 190.01 46.8174C190.032 46.6209 190.132 46.4413 190.288 46.3183C190.443 46.1952 190.642 46.1388 190.839 46.1614C191.036 46.184 191.216 46.2838 191.34 46.4388C191.463 46.5937 191.52 46.7913 191.497 46.9878C191.172 49.8278 194.159 51.5716 194.188 51.5886C194.333 51.6704 194.446 51.7981 194.51 51.9516C194.574 52.1051 194.584 52.2754 194.54 52.4354C194.495 52.5955 194.398 52.7361 194.264 52.8348C194.13 52.9336 193.967 52.9847 193.8 52.9802Z" fill="#A7004D"/>
<path d="M44.9103 56.0077C44.8122 56.0118 44.7143 55.9966 44.6222 55.963C44.53 55.9294 44.4454 55.878 44.3731 55.8118C44.3009 55.7457 44.2424 55.6659 44.2011 55.5772C44.1598 55.4885 44.1364 55.3926 44.1323 55.2949C44.1281 55.1971 44.1434 55.0996 44.1771 55.0077C44.2108 54.9159 44.2624 54.8316 44.3288 54.7596C44.3952 54.6876 44.4752 54.6293 44.5642 54.5881C44.6533 54.5469 44.7495 54.5236 44.8476 54.5195C47.6976 54.2696 48.8376 51.0093 48.8376 50.9752C48.9038 50.794 49.0381 50.6454 49.2121 50.5609C49.386 50.4763 49.5862 50.4625 49.7703 50.5221C49.9543 50.5818 50.108 50.7104 50.1987 50.8807C50.2895 51.0511 50.3104 51.2499 50.2569 51.4353C50.2056 51.6114 48.8376 55.6726 44.9787 55.9793L44.9103 56.0077Z" fill="#A7004D"/>
<path d="M122.453 98.1762C120.43 99.119 118.646 103.652 119.227 110.161C119.809 116.67 106.277 112.104 104.436 119.397C101.113 132.597 123.394 140.532 132.89 132.597C138.767 127.689 144.29 111.513 143.481 102.686C142.614 93.1948 127.84 86.8275 122.453 98.1762Z" fill="#263238"/>
<path d="M143.834 114.83C144.085 114.756 144.45 114.648 144.763 114.546L145.744 114.216C146.399 113.989 147.049 113.739 147.693 113.472C148.976 112.947 150.229 112.35 151.444 111.683C153.825 110.417 155.968 108.749 157.776 106.753C159.389 104.844 160.547 102.243 161.453 99.5734C161.915 98.2329 162.302 96.8527 162.633 95.4497C162.963 94.0468 163.277 92.6097 163.516 91.2295L165.842 91.3715C165.846 94.4432 165.511 97.506 164.844 100.505C164.505 102.042 164.046 103.55 163.471 105.015C162.875 106.562 162.075 108.023 161.094 109.36C159.086 111.925 156.596 114.076 153.764 115.693C152.399 116.497 150.982 117.211 149.523 117.829C148.793 118.136 148.058 118.397 147.305 118.675C146.935 118.806 146.559 118.931 146.165 119.044C145.772 119.158 145.424 119.266 144.957 119.38L143.834 114.83Z" fill="#FFC3BD"/>
<path d="M165.83 92.1496L166.799 88.6791L162.952 88.9745C162.952 88.9745 162.678 91.2465 164.006 92.6154L165.83 92.1496Z" fill="#FFC3BD"/>
<path d="M167.375 84.6407L163.864 85.5552L162.952 88.9745L166.799 88.6792L167.375 84.6407Z" fill="#FFC3BD"/>
<path d="M139.479 115.716C141.252 114.109 145.749 112.876 145.749 112.876L150.68 120.26C150.68 120.26 145.054 124.003 142.666 123.134C140.18 122.271 137.826 117.21 139.479 115.716Z" fill="#A7004D"/>
<path d="M123.24 220.745L126.312 224.107L135.13 217.848L132.058 214.485L123.24 220.745Z" fill="#FFC3BD"/>
<path d="M105.901 234.03L110.022 236.069L116.081 227.214L111.96 225.175L105.901 234.03Z" fill="#FFC3BD"/>
<path d="M110.677 235.564L107.497 231.503C107.443 231.432 107.366 231.383 107.278 231.365C107.191 231.348 107.101 231.362 107.024 231.406L103.438 233.451C103.35 233.505 103.273 233.577 103.215 233.663C103.156 233.748 103.116 233.845 103.098 233.947C103.08 234.049 103.083 234.154 103.108 234.254C103.134 234.355 103.18 234.449 103.244 234.53C104.384 235.927 104.994 236.547 106.397 238.336C107.252 239.432 108.996 241.988 110.181 243.505C111.367 245.021 112.94 243.936 112.581 243.198C110.974 239.886 110.871 237.921 110.928 236.342C110.94 236.061 110.851 235.786 110.677 235.564Z" fill="#263238"/>
<path d="M127.23 224.17L125.132 219.149C125.095 219.059 125.029 218.984 124.945 218.935C124.86 218.887 124.762 218.868 124.665 218.882L120.219 219.45C120.113 219.461 120.012 219.497 119.923 219.555C119.833 219.613 119.759 219.691 119.707 219.783C119.654 219.875 119.623 219.979 119.618 220.085C119.613 220.19 119.634 220.296 119.678 220.393C120.441 222.136 120.903 222.949 121.826 225.158C122.396 226.516 123.719 230.083 124.5 231.974C125.281 233.866 127.287 233.417 127.139 232.588C126.472 228.873 126.7 226.476 127.253 225.016C127.305 224.881 127.33 224.736 127.326 224.591C127.322 224.446 127.29 224.302 127.23 224.17Z" fill="#263238"/>
<path opacity="0.2" d="M135.125 217.848L130.582 221.074L127.145 217.973L132.052 214.485L135.125 217.848Z" fill="black"/>
<path opacity="0.2" d="M111.96 225.175L116.081 227.214L112.952 231.781L108.83 229.736L111.96 225.175Z" fill="black"/>
<path d="M145.687 116.29C145.687 116.29 145.823 116.085 143.327 143.224L124.688 144.525C124.471 136.948 125.041 131.597 121.49 116.028C124.109 115.503 126.763 115.169 129.43 115.029C132.255 114.841 135.089 114.856 137.912 115.074C141.554 115.421 145.687 116.29 145.687 116.29Z" fill="#A7004D"/>
<path d="M122.892 120.527C121.507 119.891 120.293 119.209 119.033 118.488C117.774 117.766 116.582 116.994 115.397 116.176C112.984 114.543 110.74 112.675 108.699 110.598L107.947 109.786L107.753 109.582C107.642 109.454 107.537 109.322 107.44 109.184C107.263 108.933 107.111 108.667 106.984 108.389C106.606 107.501 106.412 106.547 106.414 105.583C106.426 104.048 106.633 102.522 107.029 101.039C107.753 98.2637 108.757 95.5689 110.027 92.996L112.205 93.8366C111.869 95.126 111.549 96.4665 111.264 97.7785C110.979 99.0906 110.74 100.414 110.58 101.709C110.395 102.927 110.346 104.161 110.432 105.39C110.461 105.815 110.569 106.231 110.751 106.617C110.751 106.656 110.808 106.702 110.825 106.707L111.002 106.872L111.703 107.537C113.66 109.303 115.757 110.908 117.973 112.336C119.085 113.069 120.253 113.739 121.393 114.415C122.533 115.091 123.759 115.733 124.87 116.295L122.892 120.527Z" fill="#FFC3BD"/>
<path d="M128.826 117.068C126.711 114.131 122.556 114.177 122.556 114.177L117.546 121.561C117.546 121.561 123.137 125.355 125.526 124.509C128.057 123.611 130.131 118.874 128.826 117.068Z" fill="#A7004D"/>
<path d="M137.912 115.074L129.43 115.029C128.131 115.551 127.378 118.919 135.985 121.771C141.953 118.391 138.778 115.387 137.912 115.074Z" fill="white"/>
<path d="M130.319 105.515C130.838 108.235 131.345 113.222 129.43 115.029C129.43 115.029 130.171 117.795 135.985 121.771C140.061 117.698 137.912 115.074 137.912 115.074C134.874 114.33 134.965 112.081 135.506 109.962L130.319 105.515Z" fill="#FFC3BD"/>
<path d="M147.898 132.529H147.807C147.506 132.504 147.228 132.362 147.032 132.133C146.837 131.904 146.74 131.607 146.764 131.308C146.969 128.774 145.054 126.86 142.854 124.639C140.329 122.1 137.462 119.22 137.348 114.739C137.34 114.438 137.453 114.146 137.661 113.927C137.87 113.709 138.157 113.582 138.459 113.575C138.761 113.567 139.054 113.68 139.274 113.887C139.493 114.095 139.62 114.381 139.628 114.682C139.719 118.261 142.136 120.692 144.473 123.043C146.81 125.395 149.323 127.917 149.033 131.489C149.008 131.773 148.878 132.036 148.668 132.229C148.458 132.421 148.184 132.528 147.898 132.529Z" fill="#263238"/>
<path d="M131.237 138.277C131.145 138.277 131.053 138.265 130.964 138.243C130.67 138.17 130.418 137.985 130.262 137.727C130.106 137.469 130.059 137.161 130.131 136.868C131.231 132.415 129.789 128.916 128.262 125.236C126.894 121.93 125.48 118.511 126.164 114.512C126.223 114.222 126.393 113.967 126.638 113.8C126.883 113.634 127.183 113.568 127.475 113.619C127.767 113.669 128.028 113.831 128.203 114.069C128.377 114.308 128.452 114.606 128.41 114.898C127.84 118.249 129.065 121.226 130.365 124.372C131.893 128.059 133.62 132.239 132.343 137.436C132.278 137.678 132.134 137.892 131.934 138.044C131.734 138.196 131.489 138.278 131.237 138.277Z" fill="#263238"/>
<path opacity="0.2" d="M134.435 109.025L132.155 109.292C132.265 109.904 132.485 110.49 132.805 111.024C133.255 111.7 134.258 111.996 135.25 112.024C135.249 111.321 135.345 110.622 135.535 109.945L134.435 109.025Z" fill="black"/>
<path d="M125.275 102.777C126.945 107.014 127.555 108.843 130.468 110.354C134.845 112.626 139.702 109.667 139.337 105.021C139.012 100.834 136.339 94.6091 131.534 94.2569C130.475 94.1747 129.414 94.3633 128.449 94.8048C127.485 95.2462 126.649 95.926 126.022 96.7794C125.395 97.6329 124.998 98.6318 124.867 99.6814C124.736 100.731 124.877 101.797 125.275 102.777Z" fill="#FFC3BD"/>
<path d="M129.852 93.6435C133.095 95.6315 130.319 107.327 124.83 106.707C119.341 106.088 125.058 90.7069 129.852 93.6435Z" fill="#263238"/>
<path d="M129.732 93.6889C127.287 95.3077 128.957 98.125 137.199 96.4551C137.199 96.4494 133.791 90.9966 129.732 93.6889Z" fill="#263238"/>
<path d="M125.868 106.895C126.228 107.698 126.892 108.326 127.715 108.644C128.815 109.053 129.459 108.076 129.242 107.014C129.043 106.043 128.233 104.651 127.093 104.708C126.844 104.725 126.603 104.803 126.392 104.936C126.181 105.069 126.007 105.253 125.885 105.47C125.763 105.687 125.698 105.932 125.695 106.18C125.692 106.429 125.751 106.675 125.868 106.895Z" fill="#FFC3BD"/>
<path d="M143.338 143.224C143.338 143.224 153.313 175.674 154.117 189.636C154.949 204.159 133.306 221.392 133.306 221.392L127.92 215.502C127.92 215.502 145.504 200.621 143.093 189.84C139.759 174.981 129.658 144.178 129.658 144.178L143.338 143.224Z" fill="#263238"/>
<path opacity="0.2" d="M137.12 153.846C136.208 151.006 134.178 152.914 133.472 155.925C134.879 160.469 136.51 165.785 138.06 171.107C138.659 166.393 138.904 159.412 137.12 153.846Z" fill="black"/>
<path d="M126.461 215.218L133.295 222.244L136.213 220.637L128.991 212.804L126.461 215.218Z" fill="#A7004D"/>
<path d="M138.408 143.571C138.408 143.571 135.558 175.379 132.708 193.095C130.399 207.408 114.719 230.787 114.719 230.787L108.973 228.123C108.973 228.123 119.512 203.091 121.154 193.362C126.421 162.218 119.307 153.232 124.694 144.514L138.408 143.571Z" fill="#263238"/>
<path d="M108.568 228.186L115.049 231.355L117.175 228.725L109.594 225.164L108.568 228.186Z" fill="#A7004D"/>
<path d="M124.334 143.457L123.611 145.161C123.554 145.292 123.713 145.417 123.93 145.4L143.481 144.036C143.646 144.036 143.783 143.934 143.783 143.826L143.834 142.122C143.834 142.009 143.686 141.923 143.504 141.935L124.625 143.253C124.562 143.255 124.501 143.275 124.449 143.312C124.398 143.348 124.358 143.399 124.334 143.457Z" fill="white"/>
<path d="M127.013 145.377L126.512 145.411C126.409 145.411 126.329 145.371 126.329 145.309L126.415 143.133C126.415 143.071 126.506 143.008 126.603 143.003L127.11 142.969C127.213 142.969 127.293 143.008 127.287 143.071L127.202 145.246C127.202 145.32 127.116 145.377 127.013 145.377Z" fill="#263238"/>
<path d="M142.073 144.332L141.566 144.366C141.463 144.366 141.383 144.326 141.389 144.264L141.474 142.088C141.474 142.026 141.56 141.969 141.662 141.958L142.164 141.923C142.267 141.923 142.346 141.963 142.346 142.026L142.261 144.207C142.255 144.269 142.198 144.326 142.073 144.332Z" fill="#263238"/>
<path d="M134.543 144.86L134.036 144.894C133.939 144.894 133.859 144.854 133.859 144.792L133.945 142.611C133.945 142.548 134.03 142.491 134.133 142.486L134.64 142.452C134.737 142.452 134.817 142.491 134.817 142.554L134.731 144.729C134.731 144.809 134.646 144.849 134.543 144.86Z" fill="#263238"/>
<path d="M132.143 101.187C131.87 101.277 131.756 101.686 131.893 102.107L132.89 101.789C132.753 101.368 132.417 101.073 132.143 101.187Z" fill="#263238"/>
<path d="M136.498 99.812C136.219 99.9029 136.105 100.317 136.242 100.738L137.245 100.414C137.068 99.9937 136.743 99.7268 136.498 99.812Z" fill="#263238"/>
<path d="M136.356 99.8744L137.273 99.261C137.273 99.261 137.011 100.215 136.356 99.8744Z" fill="#263238"/>
<path d="M135.358 101.527C135.931 102.229 136.599 102.848 137.342 103.368C137.204 103.554 137.027 103.708 136.823 103.819C136.619 103.93 136.394 103.995 136.162 104.01L135.358 101.527Z" fill="#FFC3BD"/>
<path d="M135.427 105.776C135.443 105.762 135.455 105.743 135.462 105.721C135.468 105.7 135.467 105.678 135.461 105.657C135.452 105.63 135.432 105.607 135.407 105.594C135.381 105.582 135.351 105.58 135.324 105.589C134.888 105.739 134.423 105.785 133.965 105.724C133.508 105.663 133.071 105.496 132.691 105.236C132.681 105.226 132.669 105.218 132.655 105.213C132.642 105.207 132.628 105.204 132.614 105.204C132.599 105.204 132.585 105.207 132.572 105.213C132.559 105.218 132.547 105.226 132.537 105.236C132.526 105.246 132.517 105.258 132.511 105.271C132.505 105.284 132.502 105.299 132.502 105.313C132.502 105.328 132.505 105.342 132.511 105.355C132.517 105.368 132.526 105.38 132.537 105.39C132.944 105.681 133.416 105.869 133.913 105.938C134.409 106.007 134.915 105.956 135.387 105.787L135.427 105.776Z" fill="#263238"/>
<path d="M130.701 100.931C130.73 100.907 130.752 100.875 130.764 100.84C130.842 100.576 130.984 100.334 131.177 100.136C131.369 99.9385 131.607 99.7901 131.87 99.704C131.898 99.6973 131.924 99.6852 131.947 99.6685C131.97 99.6517 131.989 99.6306 132.004 99.6063C132.019 99.5821 132.029 99.5551 132.033 99.5271C132.037 99.499 132.036 99.4704 132.029 99.4428C132.023 99.4152 132.011 99.3891 131.994 99.3662C131.977 99.3433 131.956 99.3239 131.931 99.3091C131.907 99.2944 131.88 99.2845 131.852 99.2801C131.824 99.2758 131.795 99.277 131.767 99.2837C131.437 99.3874 131.136 99.5683 130.89 99.8114C130.644 100.054 130.46 100.353 130.354 100.681C130.336 100.735 130.34 100.794 130.366 100.845C130.391 100.897 130.436 100.935 130.49 100.954C130.524 100.969 130.562 100.976 130.599 100.972C130.636 100.968 130.672 100.953 130.701 100.931Z" fill="#263238"/>
<path d="M137.53 98.125C137.542 98.1186 137.552 98.1087 137.558 98.0966C137.577 98.0743 137.59 98.0487 137.599 98.0211C137.607 97.9936 137.609 97.9646 137.606 97.9361C137.603 97.9075 137.594 97.8798 137.58 97.8547C137.566 97.8296 137.547 97.8076 137.524 97.7899C137.258 97.57 136.942 97.4167 136.604 97.3426C136.266 97.2686 135.915 97.2758 135.581 97.3639C135.553 97.3728 135.527 97.3872 135.506 97.4061C135.484 97.4251 135.466 97.4482 135.453 97.4742C135.44 97.5001 135.433 97.5284 135.431 97.5573C135.43 97.5861 135.434 97.615 135.444 97.6422C135.463 97.6955 135.502 97.7393 135.553 97.7647C135.604 97.7901 135.663 97.795 135.717 97.7785C135.983 97.7106 136.26 97.7071 136.527 97.7684C136.794 97.8297 137.042 97.9539 137.251 98.1307C137.29 98.1627 137.34 98.1797 137.391 98.1787C137.442 98.1777 137.492 98.1586 137.53 98.125Z" fill="#263238"/>
<path d="M109.52 94.8533L108.808 90.3093L113.459 92.5813C113.284 93.3463 112.887 94.0434 112.319 94.5864C112.085 94.8518 111.78 95.046 111.441 95.1465C111.101 95.2469 110.739 95.2497 110.398 95.1544L109.52 94.8533Z" fill="#FFC3BD"/>
<path d="M111.418 88.0828L113.801 90.1673L113.459 92.5529L108.808 90.3036L111.418 88.0828Z" fill="#FFC3BD"/>
<path d="M112.171 237.739C112.219 237.705 112.265 237.667 112.307 237.626C112.356 237.582 112.392 237.525 112.411 237.462C112.43 237.399 112.432 237.332 112.416 237.268C112.279 236.7 110.706 236.132 110.529 236.092C110.51 236.084 110.488 236.082 110.467 236.087C110.447 236.092 110.428 236.104 110.415 236.121C110.403 236.138 110.397 236.159 110.397 236.18C110.397 236.201 110.403 236.222 110.415 236.24C110.672 236.808 111.185 237.739 111.76 237.836C111.904 237.857 112.051 237.823 112.171 237.739ZM110.706 236.388C111.327 236.62 112.131 237.018 112.205 237.319C112.21 237.347 112.208 237.377 112.198 237.404C112.188 237.431 112.17 237.454 112.148 237.472C112.104 237.527 112.048 237.57 111.983 237.597C111.918 237.624 111.847 237.634 111.777 237.626C111.464 237.569 111.076 237.115 110.706 236.388Z" fill="#A7004D"/>
<path d="M112.461 236.223C112.499 236.201 112.531 236.172 112.558 236.138C112.614 236.07 112.644 235.986 112.644 235.899C112.644 235.812 112.614 235.728 112.558 235.661C112.516 235.589 112.458 235.527 112.389 235.48C112.32 235.433 112.242 235.401 112.159 235.388C111.504 235.269 110.449 236.075 110.409 236.109C110.395 236.122 110.383 236.137 110.376 236.155C110.369 236.173 110.367 236.192 110.369 236.211C110.373 236.23 110.38 236.247 110.391 236.261C110.402 236.276 110.416 236.288 110.432 236.297C111.095 236.518 111.816 236.492 112.461 236.223ZM110.751 236.138C111.142 235.82 111.622 235.634 112.125 235.604C112.177 235.61 112.228 235.629 112.271 235.659C112.315 235.688 112.351 235.728 112.376 235.774C112.45 235.893 112.416 235.956 112.376 235.996C112.171 236.24 111.236 236.285 110.717 236.155L110.751 236.138Z" fill="#A7004D"/>
<path d="M127.333 226.743C127.449 227.098 127.674 227.409 127.977 227.629C128.062 227.679 128.157 227.71 128.256 227.719C128.355 227.727 128.454 227.714 128.547 227.68C128.602 227.665 128.652 227.634 128.692 227.592C128.731 227.55 128.758 227.498 128.769 227.442C128.889 226.874 127.395 225.471 127.093 225.17C127.075 225.157 127.053 225.151 127.031 225.151C127.008 225.151 126.986 225.157 126.968 225.17C126.948 225.18 126.932 225.197 126.923 225.218C126.914 225.238 126.911 225.261 126.917 225.283C127.001 225.784 127.14 226.273 127.333 226.743ZM128.518 227.169C128.551 227.234 128.564 227.307 128.558 227.379C128.558 227.408 128.558 227.436 128.478 227.459C128.412 227.484 128.34 227.494 128.269 227.488C128.198 227.483 128.129 227.461 128.068 227.425C127.72 227.22 127.401 226.538 127.196 225.573C127.715 226.035 128.161 226.573 128.518 227.169Z" fill="#A7004D"/>
<path d="M126.939 225.323C126.938 225.334 126.938 225.346 126.939 225.357C127.407 225.828 128.803 226.59 129.254 226.328C129.35 226.271 129.453 226.147 129.373 225.874C129.083 224.829 127.093 225.158 126.996 225.175C126.976 225.178 126.958 225.186 126.942 225.199C126.927 225.212 126.916 225.23 126.911 225.249C126.911 225.276 126.921 225.303 126.939 225.323ZM129.162 225.863L129.191 225.931C129.191 226.044 129.191 226.112 129.191 226.141C128.929 226.289 127.874 225.8 127.316 225.357C127.783 225.306 128.912 225.26 129.162 225.863Z" fill="#A7004D"/>
<path d="M132.029 101.249L132.947 100.63C132.947 100.63 132.685 101.59 132.029 101.249Z" fill="#263238"/>
</g>
</svg>
