<svg width="20" height="21" viewBox="0 0 20 21" fill="none" xmlns="http://www.w3.org/2000/svg">
<g clip-path="url(#clip0_1523_1830)">
<path d="M18.5956 9.21967C18.5191 7.03811 17.6356 4.99811 16.0844 3.44686C14.4584 1.82061 12.2975 0.925293 9.99999 0.925293C5.35968 0.925293 1.56812 4.61873 1.40468 9.21967C0.696553 9.53436 0.200928 10.2431 0.200928 11.0669V13.3362C0.200928 14.4506 1.10749 15.3575 2.22218 15.3575C2.94343 15.3575 3.52999 14.7709 3.52999 14.0497V10.3531C3.52999 9.67592 3.01062 9.12373 2.3503 9.05811C2.59405 5.04967 5.93093 1.86279 9.99999 1.86279C12.0475 1.86279 13.9728 2.66092 15.4219 4.10998C16.7525 5.44061 17.5312 7.17498 17.6484 9.05842C16.9887 9.12467 16.4703 9.67654 16.4703 10.3531V14.0494C16.4703 14.7322 16.9978 15.2878 17.6659 15.3456V16.2797C17.6659 17.3315 16.81 18.1872 15.7581 18.1872H14.3453C14.2759 17.989 14.1672 17.8059 14.0147 17.654C13.7475 17.3856 13.3912 17.2378 13.0119 17.2378H11.5556C11.3466 17.2378 11.1459 17.2822 10.9622 17.3678C10.4609 17.5981 10.1372 18.1037 10.1372 18.6559C10.1372 19.0353 10.285 19.3915 10.5528 19.6581C10.8206 19.9265 11.1769 20.0744 11.5556 20.0744H13.0119C13.6156 20.0744 14.1478 19.684 14.3462 19.1247H15.7581C17.3272 19.1247 18.6034 17.8484 18.6034 16.2797V15.1787C19.3072 14.8622 19.7991 14.1559 19.7991 13.3356V11.0662C19.7991 10.2431 19.3034 9.53436 18.5956 9.21967ZM2.59218 10.3531V14.0494C2.59218 14.2534 2.42624 14.4197 2.22187 14.4197C1.62437 14.4197 1.13812 13.9334 1.13812 13.3359V11.0665C1.13812 10.4687 1.62437 9.98279 2.22187 9.98279C2.42624 9.98279 2.59218 10.149 2.59218 10.3531ZM13.4822 18.7565C13.4356 18.9772 13.2375 19.1375 13.0116 19.1375H11.5553C11.4272 19.1375 11.3069 19.0875 11.215 18.9956C11.1244 18.9053 11.0744 18.7847 11.0744 18.6565C11.0744 18.4694 11.1841 18.2984 11.3559 18.2194C11.4172 18.1906 11.4844 18.1759 11.5553 18.1759H13.0116C13.1397 18.1759 13.26 18.2256 13.3516 18.3175C13.4422 18.4078 13.4922 18.5284 13.4922 18.6565C13.4925 18.6909 13.4887 18.7253 13.4822 18.7565ZM18.8616 13.3359C18.8616 13.9334 18.3753 14.4197 17.7778 14.4197C17.5737 14.4197 17.4075 14.2537 17.4075 14.0494V10.3531C17.4075 10.149 17.5734 9.98279 17.7778 9.98279C18.3753 9.98279 18.8616 10.469 18.8616 11.0665V13.3359Z" fill="#A7004D"/>
<path d="M13.0353 13.4977C14.1306 13.4977 15.0215 12.6065 15.0215 11.5115V7.46428C15.0215 6.9349 14.8147 6.43615 14.439 6.06053C14.0634 5.6849 13.565 5.47803 13.0353 5.47803H6.96467C5.86936 5.47803 4.97842 6.36896 4.97842 7.46428V11.5115C4.97842 12.6068 5.86936 13.4977 6.96467 13.4977H7.00186V14.5465C7.00186 14.9465 7.2403 15.3015 7.60905 15.4512C7.72811 15.499 7.85186 15.5227 7.97436 15.5227C8.22967 15.5227 8.47842 15.4215 8.66061 15.233L10.4053 13.4977H13.0353ZM9.88186 12.6965L7.99374 14.5743C7.9853 14.583 7.97905 14.5896 7.96124 14.5818C7.93967 14.573 7.93967 14.559 7.93967 14.5465V13.029C7.93967 12.7702 7.72999 12.5602 7.47092 12.5602H6.96499C6.38655 12.5602 5.91624 12.0896 5.91624 11.5115V7.46428C5.91624 6.88584 6.38655 6.41553 6.96499 6.41553H13.0356C13.315 6.41553 13.5778 6.5249 13.7765 6.72334C13.9753 6.92209 14.0844 7.18521 14.0844 7.46428V11.5115C14.0844 12.0899 13.6137 12.5602 13.0356 12.5602H10.2125C10.0884 12.5602 9.96967 12.6093 9.88186 12.6965Z" fill="#A7004D"/>
<path d="M7.72281 8.87109C7.34156 8.87109 7.03125 9.18172 7.03125 9.56266C7.03125 9.94359 7.34187 10.2542 7.72281 10.2542C8.10437 10.2542 8.415 9.94359 8.415 9.56266C8.415 9.18172 8.10469 8.87109 7.72281 8.87109Z" fill="#A7004D"/>
<path d="M9.99967 8.87109C9.61842 8.87109 9.30811 9.18172 9.30811 9.56266C9.30811 9.94359 9.61873 10.2542 9.99967 10.2542C10.3815 10.2542 10.6919 9.94359 10.6919 9.56266C10.6919 9.18172 10.3815 8.87109 9.99967 8.87109Z" fill="#A7004D"/>
<path d="M12.2766 8.87109C11.8953 8.87109 11.585 9.18172 11.585 9.56266C11.585 9.94359 11.8956 10.2542 12.2766 10.2542C12.6581 10.2542 12.9687 9.94359 12.9687 9.56266C12.9687 9.18172 12.6581 8.87109 12.2766 8.87109Z" fill="#A7004D"/>
</g>
<defs>
<clipPath id="clip0_1523_1830">
<rect width="20" height="20" fill="white" transform="translate(0 0.5)"/>
</clipPath>
</defs>
</svg>
