<svg width="15" height="21" viewBox="0 0 15 21" fill="none" xmlns="http://www.w3.org/2000/svg">
<path d="M14.7812 7.54688C14.7812 3.74736 11.6901 0.65625 7.89062 0.65625C4.09111 0.65625 1 3.74736 1 7.54688C1 10.7618 5.82393 17.7095 7.24587 19.6875H2.96875V20.3438H12.8125V19.6875H8.53538C9.95732 17.7095 14.7812 10.7618 14.7812 7.54688ZM7.89062 1.3125C11.3283 1.3125 14.125 4.10923 14.125 7.54688C14.125 10.6154 9.10862 17.7669 7.89062 19.4578C6.67263 17.7669 1.65625 10.6154 1.65625 7.54688C1.65625 4.10923 4.45298 1.3125 7.89062 1.3125Z" fill="#A7004D" stroke="#A7004D" stroke-width="0.3"/>
<path d="M13.4688 7.54688C13.4688 4.47108 10.9664 1.96875 7.89062 1.96875C4.81483 1.96875 2.3125 4.47108 2.3125 7.54688C2.3125 10.6227 4.81483 13.125 7.89062 13.125C10.9664 13.125 13.4688 10.6227 13.4688 7.54688ZM2.96875 7.54688C2.96875 6.57342 3.25741 5.62183 3.79824 4.81243C4.33906 4.00303 5.10775 3.37218 6.0071 2.99966C6.90646 2.62713 7.89608 2.52966 8.85083 2.71957C9.80559 2.90948 10.6826 3.37825 11.3709 4.06658C12.0593 4.75492 12.528 5.63191 12.7179 6.58666C12.9078 7.54141 12.8104 8.53104 12.4378 9.4304C12.0653 10.3298 11.4345 11.0984 10.6251 11.6393C9.81567 12.1801 8.86408 12.4688 7.89062 12.4688C6.58572 12.4673 5.33468 11.9482 4.41197 11.0255C3.48926 10.1028 2.97023 8.85178 2.96875 7.54688Z" fill="#A7004D" stroke="#A7004D" stroke-width="0.3"/>
<path d="M10.5156 10.1719C10.7766 10.1716 11.0268 10.0678 11.2114 9.88323C11.3959 9.69869 11.4997 9.44848 11.5 9.1875V5.90625C11.4997 5.64527 11.3959 5.39506 11.2114 5.21052C11.0268 5.02598 10.7766 4.92217 10.5156 4.92188H5.26562C5.00464 4.92217 4.75444 5.02598 4.5699 5.21052C4.38536 5.39506 4.28155 5.64527 4.28125 5.90625V9.1875C4.28155 9.44848 4.38536 9.69869 4.5699 9.88323C4.75444 10.0678 5.00464 10.1716 5.26562 10.1719H10.5156ZM10.8438 5.90625V9.1875C10.8437 9.27449 10.809 9.3579 10.7475 9.41941C10.686 9.48092 10.6026 9.51553 10.5156 9.51562H9.4748C9.5122 9.41027 9.5313 9.29929 9.53125 9.1875V5.90625C9.5313 5.79446 9.5122 5.68348 9.4748 5.57812H10.5156C10.6026 5.57822 10.686 5.61283 10.7475 5.67434C10.809 5.73585 10.8437 5.81926 10.8438 5.90625ZM6.57812 5.57812H7.23438V6.23438H6.57812V5.57812ZM5.26562 9.51562C5.17863 9.51553 5.09523 9.48092 5.03372 9.41941C4.9722 9.3579 4.9376 9.27449 4.9375 9.1875V5.90625C4.9376 5.81926 4.9722 5.73585 5.03372 5.67434C5.09523 5.61283 5.17863 5.57822 5.26562 5.57812H5.92188V6.5625C5.92187 6.60559 5.93036 6.64826 5.94685 6.68807C5.96334 6.72788 5.98751 6.76405 6.01798 6.79452C6.04845 6.82499 6.08462 6.84916 6.12443 6.86565C6.16424 6.88214 6.20691 6.89063 6.25 6.89062H7.5625C7.60559 6.89063 7.64826 6.88214 7.68807 6.86565C7.72788 6.84916 7.76405 6.82499 7.79452 6.79452C7.82499 6.76405 7.84916 6.72788 7.86565 6.68807C7.88214 6.64826 7.89063 6.60559 7.89062 6.5625V5.57812H8.54688C8.63387 5.57822 8.71727 5.61283 8.77878 5.67434C8.8403 5.73585 8.8749 5.81926 8.875 5.90625V9.1875C8.8749 9.27449 8.8403 9.3579 8.77878 9.41941C8.71727 9.48092 8.63387 9.51553 8.54688 9.51562H5.26562Z" fill="#A7004D" stroke="#A7004D" stroke-width="0.1"/>
<path d="M8.21875 7.21875H6.57812C6.53503 7.21875 6.49237 7.22724 6.45256 7.24372C6.41274 7.26021 6.37657 7.28438 6.3461 7.31485C6.31563 7.34532 6.29146 7.38149 6.27497 7.42131C6.25849 7.46112 6.25 7.50378 6.25 7.54688V8.85938C6.25 8.90247 6.25849 8.94513 6.27497 8.98494C6.29146 9.02476 6.31563 9.06093 6.3461 9.0914C6.37657 9.12187 6.41274 9.14604 6.45256 9.16253C6.49237 9.17901 6.53503 9.1875 6.57812 9.1875H8.21875C8.26184 9.1875 8.30451 9.17901 8.34432 9.16253C8.38413 9.14604 8.4203 9.12187 8.45077 9.0914C8.48124 9.06093 8.50541 9.02476 8.5219 8.98494C8.53839 8.94513 8.54688 8.90247 8.54688 8.85938V7.54688C8.54688 7.50378 8.53839 7.46112 8.5219 7.42131C8.50541 7.38149 8.48124 7.34532 8.45077 7.31485C8.4203 7.28438 8.38413 7.26021 8.34432 7.24372C8.30451 7.22724 8.26184 7.21875 8.21875 7.21875ZM7.89062 8.53125H6.90625V7.875H7.89062V8.53125Z" fill="#A7004D" stroke="#A7004D" stroke-width="0.1"/>
</svg>
