<svg width="20" height="21" viewBox="0 0 20 21" fill="none" xmlns="http://www.w3.org/2000/svg">
<path d="M16.25 6.125H3.75C2.71447 6.125 1.875 6.96447 1.875 8V15.5C1.875 16.5355 2.71447 17.375 3.75 17.375H16.25C17.2855 17.375 18.125 16.5355 18.125 15.5V8C18.125 6.96447 17.2855 6.125 16.25 6.125Z" stroke="#A7004D" stroke-linejoin="round"/>
<path d="M16.0687 6.12486V4.95298C16.0687 4.66557 16.0051 4.38171 15.8827 4.12167C15.7603 3.86163 15.582 3.63181 15.3605 3.44862C15.139 3.26543 14.8798 3.13337 14.6015 3.06188C14.3231 2.99038 14.0323 2.98121 13.75 3.03502L3.4625 4.79088C3.01575 4.87601 2.61272 5.11438 2.32291 5.46488C2.0331 5.81537 1.87469 6.25601 1.875 6.7108V8.62486" stroke="#A7004D" stroke-linejoin="round"/>
<path d="M14.375 13C14.1278 13 13.8861 12.9267 13.6805 12.7893C13.475 12.652 13.3148 12.4568 13.2202 12.2284C13.1255 11.9999 13.1008 11.7486 13.149 11.5061C13.1973 11.2637 13.3163 11.0409 13.4911 10.8661C13.6659 10.6913 13.8887 10.5723 14.1311 10.524C14.3736 10.4758 14.6249 10.5005 14.8534 10.5952C15.0818 10.6898 15.277 10.85 15.4143 11.0555C15.5517 11.2611 15.625 11.5028 15.625 11.75C15.625 12.0815 15.4933 12.3995 15.2589 12.6339C15.0245 12.8683 14.7065 13 14.375 13Z" fill="#A7004D"/>
</svg>
