<svg width="19" height="18" viewBox="0 0 19 18" fill="none" xmlns="http://www.w3.org/2000/svg">
<g clip-path="url(#clip0_1631_1839)">
<path d="M10.376 1.58936V3.31641H4.64693V1.58936H1.29102V17.7013H13.732V1.58936H10.376Z" fill="#FFB655"/>
<path d="M13.5589 2.67676H11.4309V3.3163H5.70179V2.67676H3.57373V16.4324H11.1538L13.5589 14.0272V2.67676Z" fill="#FF7956"/>
<path d="M12.5043 2.67676H10.3762V3.3163H4.6471V2.67676H2.51904V16.4324H10.0991L12.5043 14.0272V2.67676Z" fill="white"/>
<path d="M4.80225 4.35303H12.3309V5.79416H4.80225V4.35303Z" fill="#E0E0E2"/>
<path d="M4.72363 7.13477H6.31748V8.77585H4.72363V7.13477Z" fill="#E0E0E2"/>
<path d="M4.72363 9.81201H6.31748V11.4531H4.72363V9.81201Z" fill="#E0E0E2"/>
<path d="M4.72363 12.4888H6.31748V14.13H4.72363V12.4888Z" fill="#E0E0E2"/>
<path d="M10.376 2.67676H11.4307V3.3163H10.376V2.67676Z" fill="#E0E0E2"/>
<path d="M2.51904 2.67676H3.57373V16.4324H2.51904V2.67676Z" fill="#E0E0E2"/>
<path d="M4.64697 1.28223H10.3761V3.31621H4.64697V1.28223Z" fill="#E0E0E2"/>
<path d="M10.0991 16.4325L12.5043 14.0273H10.0991V16.4325Z" fill="#C6C5CA"/>
<path d="M14.6108 4.30615H16.8342V15.4793H14.6108V4.30615Z" fill="#57A4FF"/>
<path d="M14.6108 4.30615H15.6655V15.4793H14.6108V4.30615Z" fill="#006DF0"/>
<path d="M14.6108 15.8912L15.1667 16.854L15.6559 17.7013H15.7891L16.2783 16.854L16.8342 15.8913V15.4795H14.6108V15.8912Z" fill="#E0E0E2"/>
<path d="M16.4814 3.55818V4.30594H14.9639V3.55818C15.0478 3.47427 15.0949 3.42717 15.1788 3.34326H16.2664C16.3503 3.42717 16.3974 3.47427 16.4814 3.55818Z" fill="#E0E0E2"/>
<path d="M14.6108 6.27973V5.22119H16.8341V6.27973H14.6108Z" fill="#E0E0E2"/>
<path d="M3.74707 4.35303H11.2757V5.79416H3.74707V4.35303Z" fill="#57A4FF"/>
<path d="M3.66895 7.13477H5.26279V8.77585H3.66895V7.13477Z" fill="#B6E892"/>
<path d="M3.66895 9.81201H5.26279V11.4531H3.66895V9.81201Z" fill="#B6E892"/>
<path d="M3.66895 12.4888H5.26279V14.13H3.66895V12.4888Z" fill="#C6C5CA"/>
<path d="M10.376 1.58936H11.4307V3.31641H10.376V1.58936Z" fill="#FF7956"/>
<path d="M1.29102 1.58936H2.34571V17.7013H1.29102V1.58936Z" fill="#FF7956"/>
<path d="M4.64697 1.28223H5.70166V3.31621H4.64697V1.28223Z" fill="#C6C5CA"/>
<path d="M11.1538 14.0273H10.0991V16.4325L11.1538 15.3778V14.0273Z" fill="#898890"/>
<path d="M16.2214 16.854L15.6655 15.8912V15.4795H14.6108V15.8912L15.1667 16.854L15.6559 17.7013H15.7891L16.2499 16.9033L16.2214 16.854Z" fill="#C6C5CA"/>
<path d="M16.2335 3.34326H15.1788C15.0949 3.42717 15.0478 3.47427 14.9639 3.55818V4.30594H16.0186V3.55818L16.2335 3.34326Z" fill="#C6C5CA"/>
<path d="M14.6108 5.22119H15.6655V6.27973H14.6108V5.22119Z" fill="#C6C5CA"/>
<path d="M3.74707 4.35303H4.80176V5.79416H3.74707V4.35303Z" fill="#006DF0"/>
<path d="M3.66895 7.13477H4.72363V8.77585H3.66895V7.13477Z" fill="#7CCC92"/>
<path d="M3.66895 9.81201H4.72363V11.4531H3.66895V9.81201Z" fill="#7CCC92"/>
<path d="M3.66895 12.4888H4.72363V14.13H3.66895V12.4888Z" fill="#898890"/>
<path d="M11.0792 1.85303H13.4683V17.4376H1.55469V1.85303H3.94381V1.32568H1.02734V17.9649H13.9956V1.32568H11.0792V1.85303Z" fill="black"/>
<path d="M10.6398 1.01871H8.30213V0.755449C8.30213 0.319566 7.94755 -0.0351562 7.51153 -0.0351562C7.07564 -0.0351562 6.72092 0.319566 6.72092 0.755449V1.01871H4.3833V3.58004H10.6398V1.01871ZM7.24827 0.755449C7.24827 0.610292 7.36637 0.492189 7.51153 0.492189C7.65668 0.492189 7.77479 0.610292 7.77479 0.755449V1.01871H7.24827V0.755449ZM10.1124 3.05269H4.91065V1.54605H10.1124V3.05269Z" fill="black"/>
<path d="M10.3628 14.291H11.6254V13.7637H9.83545V15.5888H10.3628V14.291Z" fill="black"/>
<path d="M12.2406 13.918L9.98976 16.1687H2.78272V2.94043H3.94397V2.41309H2.25537V16.696H10.2083L12.7679 14.1363V2.41309H11.0793V2.94043H12.2406V13.918Z" fill="black"/>
<path d="M14.8745 4.56961H16.5705V4.72864H17.0979V4.04227H16.7449V3.44901L16.3755 3.07959H15.0695L14.7001 3.44901V4.04241H14.3472V4.72878H14.8745V4.56961ZM15.2274 3.66736L15.2879 3.60693H16.1572L16.2176 3.66736V4.04227H15.2274V3.66736Z" fill="black"/>
<path d="M16.5705 15.2158H14.8745V6.80713H14.3472V15.9619L15.5038 17.965H15.9414L17.0979 15.9619V6.80713H16.5705V15.2158ZM16.5705 15.8206L15.7225 17.2893L14.8745 15.8206V15.7432H16.5705V15.8206Z" fill="black"/>
<path d="M17.0979 5.48692V4.95752H14.3472V6.54354H17.0979V6.01427H17.4644V9.81967H17.287V10.347H17.9918V5.48692H17.0979ZM16.5705 6.01619H14.8745V5.485H16.5705V6.01619Z" fill="black"/>
<path d="M3.4834 6.05783H11.5394V4.08936H3.4834V6.05783ZM4.01074 4.6167H11.0121V5.53049H4.01074V4.6167Z" fill="black"/>
<path d="M5.76026 6.43848L4.48296 7.76618L4.32475 7.57007L3.93227 7.88675V7.39868H4.48035V6.87134H3.40479V9.03991H5.52611V8.35038H4.99877V8.51256H4.49669L6.14039 6.80405L5.76026 6.43848ZM3.93213 8.51242V7.92342L4.40729 8.51242H3.93213Z" fill="black"/>
<path d="M5.76026 9.11523L4.48296 10.4431L4.32475 10.247L3.93227 10.5635V10.0756H4.48035V9.54823H3.40479V11.7167H5.52611V11.0273H4.99877V11.1893H4.49669L6.14039 9.48094L5.76026 9.11523ZM3.93213 11.1893V10.6003L4.40743 11.1893H3.93213Z" fill="black"/>
<path d="M3.40479 14.3937H5.52611V12.2251H3.40479V14.3937ZM3.93213 12.7524H4.99877V13.8663H3.93213V12.7524Z" fill="black"/>
<path d="M6.28125 7.17627H11.2758V7.70361H6.28125V7.17627Z" fill="black"/>
<path d="M6.28125 8.20752H8.77845V8.73486H6.28125V8.20752Z" fill="black"/>
<path d="M6.28125 9.85352H11.2758V10.3809H6.28125V9.85352Z" fill="black"/>
<path d="M6.28125 10.8843H8.77845V11.4116H6.28125V10.8843Z" fill="black"/>
<path d="M6.28125 12.5303H11.2758V13.0576H6.28125V12.5303Z" fill="black"/>
<path d="M6.28125 13.5615H8.77845V14.0889H6.28125V13.5615Z" fill="black"/>
<path d="M9.7089 2.70117H9.18155V2.17383H9.7089V2.70117ZM8.82999 2.70117H8.30265V2.17383H8.82999V2.70117ZM7.95108 2.70117H6.74121V2.17383H7.95108V2.70117Z" fill="white"/>
<path d="M16.1611 13.5478H15.6338V8.96192H16.1611V13.5478ZM16.1611 8.61035H15.6338V8.08301H16.1611V8.61035ZM16.1611 7.73145H15.6338V7.2041H16.1611V7.73145Z" fill="white"/>
</g>
<defs>
<clipPath id="clip0_1631_1839">
<rect width="18" height="18" fill="white" transform="translate(0.5)"/>
</clipPath>
</defs>
</svg>
