<svg width="80" height="61" viewBox="0 0 80 61" fill="none" xmlns="http://www.w3.org/2000/svg">
<mask id="path-1-inside-1_1183_1753" fill="white">
<path fill-rule="evenodd" clip-rule="evenodd" d="M22.5955 49.5055C19.6438 49.8229 13.5573 52.3616 12.8245 59.9778C12.4863 63.4931 12.3952 57.5439 12.4252 48.2146C5.1705 45.5264 0 38.5444 0 30.3546C0 22.0209 5.35396 14.9377 12.8099 12.3569C12.8148 12.0418 12.8197 11.7309 12.8245 11.4243V0C13.2688 3.60183 15.3579 10.2032 20.2704 11.3141H60.9594C71.4752 11.3141 80 19.8388 80 30.3546C80 40.8705 71.4752 49.3952 60.9594 49.3952H22.6187C22.611 49.4321 22.6032 49.4689 22.5955 49.5055Z"/>
</mask>
<path d="M12.8245 59.9778L13.8199 60.0736L13.8199 60.0736L12.8245 59.9778ZM22.5955 49.5055L22.7024 50.4998L23.4239 50.4222L23.5739 49.7122L22.5955 49.5055ZM12.4252 48.2146L13.4252 48.2178L13.4275 47.5195L12.7727 47.2769L12.4252 48.2146ZM12.8099 12.3569L13.137 13.3019L13.7989 13.0728L13.8098 12.3724L12.8099 12.3569ZM12.8245 11.4243L13.8244 11.4401L13.8245 11.4322V11.4243H12.8245ZM12.8245 0L13.817 -0.122429L11.8245 0H12.8245ZM20.2704 11.3141L20.0498 12.2894L20.1587 12.3141H20.2704V11.3141ZM22.6187 49.3952V48.3952H21.8074L21.6402 49.1892L22.6187 49.3952ZM13.8199 60.0736C14.4913 53.096 20.0339 50.7867 22.7024 50.4998L22.4886 48.5112C19.2537 48.859 12.6234 51.6272 11.8291 59.8821L13.8199 60.0736ZM11.4252 48.2114C11.4102 52.875 11.4254 56.7091 11.4871 58.9406C11.5026 59.4989 11.5212 59.9652 11.5436 60.323C11.5634 60.6397 11.5907 60.9733 11.6488 61.1918C11.6595 61.2321 11.7025 61.4005 11.8199 61.5667C11.8779 61.6488 12.0388 61.8534 12.3401 61.9509C12.7087 62.0702 13.0397 61.9556 13.2438 61.8086C13.4123 61.6873 13.5011 61.5448 13.5356 61.4855C13.5778 61.413 13.6046 61.3478 13.6202 61.3059C13.6517 61.2218 13.6718 61.1409 13.6849 61.0827C13.7351 60.8584 13.7781 60.5084 13.8199 60.0736L11.8291 59.8821C11.7864 60.3261 11.7525 60.5592 11.7331 60.6459C11.7288 60.6655 11.732 60.6453 11.7469 60.6054C11.7543 60.5856 11.7729 60.5382 11.8071 60.4795C11.8336 60.434 11.9145 60.3012 12.0751 60.1856C12.2714 60.0442 12.5947 59.9312 12.9558 60.048C13.2494 60.143 13.4029 60.3412 13.4535 60.4128C13.5146 60.4994 13.5456 60.5744 13.5572 60.6043C13.5713 60.6404 13.5788 60.6672 13.5816 60.6777C13.5841 60.6871 13.5625 60.5632 13.5397 60.1981C13.5194 59.874 13.5016 59.434 13.4864 58.8853C13.4256 56.6887 13.4102 52.8835 13.4252 48.2178L11.4252 48.2114ZM-1 30.3546C-1 38.976 4.44356 46.3235 12.0778 49.1523L12.7727 47.2769C5.89744 44.7294 1 38.1127 1 30.3546H-1ZM12.4828 11.4119C4.63655 14.1278 -1 21.5817 -1 30.3546H1C1 22.4601 6.07137 15.7475 13.137 13.3019L12.4828 11.4119ZM11.8246 11.4086C11.8198 11.7152 11.8149 12.0262 11.81 12.3414L13.8098 12.3724C13.8147 12.0574 13.8195 11.7466 13.8244 11.4401L11.8246 11.4086ZM11.8245 0V11.4243H13.8245V0H11.8245ZM20.4909 10.3387C18.4426 9.87551 16.8838 8.24305 15.7546 6.12132C14.6327 4.01336 14.0278 1.58633 13.817 -0.122429L11.832 0.122429C12.0655 2.01551 12.7273 4.69007 13.9891 7.06097C15.2436 9.4181 17.1856 11.6418 20.0498 12.2894L20.4909 10.3387ZM60.9594 10.3141H20.2704V12.3141H60.9594V10.3141ZM81 30.3546C81 19.2865 72.0275 10.3141 60.9594 10.3141V12.3141C70.923 12.3141 79 20.3911 79 30.3546H81ZM60.9594 50.3952C72.0275 50.3952 81 41.4228 81 30.3546H79C79 40.3182 70.923 48.3952 60.9594 48.3952V50.3952ZM22.6187 50.3952H60.9594V48.3952H22.6187V50.3952ZM23.5739 49.7122C23.5817 49.6753 23.5895 49.6383 23.5973 49.6013L21.6402 49.1892C21.6325 49.2259 21.6248 49.2624 21.6171 49.2988L23.5739 49.7122Z" fill="#A7004D" mask="url(#path-1-inside-1_1183_1753)"/>
</svg>
