<svg width="264" height="56" viewBox="0 0 264 56" fill="none" xmlns="http://www.w3.org/2000/svg">
<path d="M4.4627 0H0.481689V56H4.4627V0Z" fill="#111111"/>
<path d="M14.4817 0H9.48169V56H14.4817V0Z" fill="#111111"/>
<path d="M22.6675 0H20.677V56H22.6675V0Z" fill="#111111"/>
<path d="M256.972 0H254.981V56H256.972V0Z" fill="#111111"/>
<path d="M263.482 0H261.491V56H263.482V0Z" fill="#111111"/>
<path d="M227.468 0H225.478V56H227.468V0Z" fill="#111111"/>
<path d="M233.976 0H231.985V56H233.976V0Z" fill="#111111"/>
<path d="M240.427 0H239.632V56H240.427V0Z" fill="#111111"/>
<path d="M43.9158 0H39.9348V56H43.9158V0Z" fill="#111111"/>
<path d="M36.0394 0H28.8723V56H36.0394V0Z" fill="#111111"/>
<path d="M86.4195 0H82.4385V56H86.4195V0Z" fill="#111111"/>
<path d="M119.246 0H112.079V56H119.246V0Z" fill="#111111"/>
<path d="M194.25 0H186.288V56H194.25V0Z" fill="#111111"/>
<path d="M219.851 0H215.87V56H219.851V0Z" fill="#111111"/>
<path d="M209.481 0H207.481V56H209.481V0Z" fill="#111111"/>
<path d="M200.481 0H198.481V56H200.481V0Z" fill="#111111"/>
<path d="M62.0093 0H60.0188V56H62.0093V0Z" fill="#111111"/>
<path d="M75.4814 0H73.4814V56H75.4814V0Z" fill="#111111"/>
<path d="M68.4817 0H66.4817V56H68.4817V0Z" fill="#111111"/>
<path d="M98.8 0H97.6045V56H98.8V0Z" fill="#111111"/>
<path d="M106.306 0H104.315V56H106.306V0Z" fill="#111111"/>
<path d="M92.4895 0H91.2939V56H92.4895V0Z" fill="#111111"/>
<path d="M55.3902 0H53.3997V56H55.3902V0Z" fill="#111111"/>
<path d="M50.1578 0H47.3723V56H50.1578V0Z" fill="#111111"/>
<path d="M249.943 0H245.962V56H249.943V0Z" fill="#111111"/>
<path d="M137.839 0H135.849V56H137.839V0Z" fill="#111111"/>
<path d="M144.347 0H142.356V56H144.347V0Z" fill="#111111"/>
<path d="M161.338 0H157.751V56H161.338V0Z" fill="#111111"/>
<path d="M169.527 0H167.536V56H169.527V0Z" fill="#111111"/>
<path d="M155.167 0H153.177V56H155.167V0Z" fill="#111111"/>
<path d="M149.202 0H148.407V56H149.202V0Z" fill="#111111"/>
<path d="M175.3 0H174.505V56H175.3V0Z" fill="#111111"/>
<path d="M179.8 0H179.005V56H179.8V0Z" fill="#111111"/>
<path d="M130.808 0H126.827V56H130.808V0Z" fill="#111111"/>
</svg>
