<svg width="235" height="235" viewBox="0 0 235 235" fill="none" xmlns="http://www.w3.org/2000/svg">
<g opacity="0.85">
<path d="M73.5591 55.9699L78.9458 57.4535L74.9631 58.4269C72.9367 58.7499 72.0241 59.625 71.6544 60.7669L70.4142 70.7774L68.8885 60.7435C68.7005 60.2764 68.4162 59.8541 68.0542 59.5041C67.6921 59.1542 67.2604 58.8844 66.7872 58.7124L61.6392 57.4535L67.0914 55.9091C67.5411 55.7238 67.9485 55.449 68.2888 55.1015C68.6291 54.754 68.8952 54.3409 69.071 53.8873L70.4282 42.5383L71.4016 53.6393C71.5584 54.1672 71.8345 54.6521 72.2086 55.0562C72.5827 55.4603 73.0448 55.773 73.5591 55.9699Z" fill="#EBEBEB"/>
<path d="M81.2672 71.152L83.2001 71.6855L81.7961 72.0365C81.066 72.1535 80.7431 72.4624 80.6073 72.8695L80.1393 76.4638L79.5918 72.8649C79.525 72.6973 79.4232 72.546 79.2933 72.4209C79.1634 72.2958 79.0083 72.1998 78.8383 72.1395L76.9663 71.6715L78.9225 71.1192C79.083 71.0519 79.2282 70.953 79.3497 70.8284C79.4711 70.7038 79.5661 70.556 79.6292 70.3938L80.0972 66.3269L80.4482 70.3049C80.5067 70.5015 80.6117 70.6811 80.7543 70.8285C80.8968 70.9759 81.0728 71.0869 81.2672 71.152Z" fill="#EBEBEB"/>
<path d="M21.6031 86.6744L6.34863 138.239L70.8464 157.319L86.1009 105.755L21.6031 86.6744Z" fill="#FAFAFA"/>
<path d="M86.1019 105.765C86.1019 105.765 85.9943 105.765 85.7884 105.681L84.8805 105.424L81.3705 104.408L68.1541 100.547L21.5601 86.8486L21.78 86.7316C17.2451 102.082 12.0456 119.679 6.54193 138.296L6.41089 138.057L70.8966 157.17L70.6954 157.278C75.3239 141.764 79.1615 128.903 81.8431 119.903L84.9741 109.467C85.3391 108.263 85.6168 107.344 85.8071 106.711C85.999 106.088 86.1066 105.775 86.1066 105.775C86.1066 105.775 86.0271 106.088 85.8539 106.711C85.6807 107.333 85.3859 108.255 85.063 109.448L82.021 119.875C79.3721 128.908 75.5813 141.82 71.0089 157.395L70.9621 157.549L70.8077 157.503L6.29389 138.436L6.10669 138.38L6.16285 138.193C11.6806 119.571 16.8801 101.979 21.4384 86.6333L21.4899 86.4648L21.6537 86.5163L68.3086 100.411L81.4641 104.352L84.9319 105.395L85.8118 105.672L86.1019 105.765Z" fill="#E0E0E0"/>
<path d="M22.8654 90.5792L9.53076 135.654L69.5004 153.395L82.8351 108.32L22.8654 90.5792Z" fill="#EBEBEB"/>
<path d="M9.53247 135.661L38.7684 113.838L46.556 135.207L58.1296 128.44L69.502 153.403L9.53247 135.661Z" fill="#E0E0E0"/>
<path d="M58.2653 115.874C57.9895 116.808 57.4429 117.639 56.6947 118.262C55.9465 118.885 55.0304 119.273 54.0621 119.375C53.0938 119.478 52.1168 119.291 51.2547 118.838C50.3927 118.385 49.6842 117.687 49.2189 116.832C48.7536 115.976 48.5524 115.002 48.6406 114.033C48.7289 113.063 49.1028 112.141 49.7149 111.384C50.3271 110.627 51.15 110.068 52.0797 109.778C53.0094 109.489 54.004 109.481 54.9379 109.757C55.558 109.94 56.136 110.244 56.6389 110.65C57.1417 111.057 57.5596 111.558 57.8686 112.126C58.1776 112.694 58.3716 113.318 58.4397 113.961C58.5078 114.604 58.4485 115.254 58.2653 115.874Z" fill="#E0E0E0"/>
<path d="M140.073 129.038L134.681 185.87L205.765 192.614L211.157 135.783L140.073 129.038Z" fill="#FAFAFA"/>
<path d="M211.138 135.769H210.796L209.794 135.684L205.952 135.315L191.374 134.004L140.039 129.231L140.24 129.067C138.644 145.98 136.81 165.37 134.877 185.891L134.694 185.667L205.774 192.439L205.587 192.593C207.244 175.488 208.62 161.303 209.584 151.386C210.052 146.425 210.454 142.536 210.716 139.868C210.852 138.549 210.955 137.528 211.025 136.831C211.095 136.134 211.142 135.783 211.142 135.783C211.142 135.783 211.142 136.12 211.067 136.798C210.992 137.477 210.918 138.497 210.801 139.807C210.557 142.466 210.206 146.359 209.757 151.292C208.821 161.242 207.52 175.464 205.929 192.626V192.799H205.756L134.666 186.097H134.46V185.891C136.417 165.374 138.261 145.985 139.871 129.072V128.889H140.053L191.491 133.859L205.999 135.287L209.822 135.67L210.801 135.773C211.035 135.75 211.138 135.769 211.138 135.769Z" fill="#E0E0E0"/>
<path d="M142.185 132.848L137.471 182.523L203.56 188.794L208.274 139.119L142.185 132.848Z" fill="#EBEBEB"/>
<path d="M137.456 182.512L163.467 153.824L175.935 174.496L186.614 165.089L203.547 188.779L137.456 182.512Z" fill="#E0E0E0"/>
<path d="M184.195 151.971C184.097 153 183.697 153.978 183.044 154.78C182.391 155.582 181.515 156.172 180.527 156.476C179.538 156.78 178.482 156.784 177.491 156.487C176.5 156.191 175.62 155.607 174.961 154.81C174.302 154.013 173.895 153.038 173.79 152.009C173.685 150.981 173.887 149.944 174.372 149.03C174.856 148.117 175.601 147.367 176.511 146.877C177.422 146.386 178.457 146.177 179.487 146.275C180.866 146.407 182.137 147.081 183.019 148.149C183.902 149.217 184.325 150.591 184.195 151.971Z" fill="#E0E0E0"/>
<path d="M72.7419 143.776L19.8347 156.673L30.1462 198.973L83.0533 186.075L72.7419 143.776Z" fill="#FAFAFA"/>
<path d="M72.736 143.785L72.4786 143.856L71.7391 144.043L68.8703 144.768L58.0642 147.436L19.88 156.796L19.983 156.627C23.0531 169.217 26.5771 183.645 30.3071 198.916L30.1152 198.804L83.0132 185.952L82.915 186.111L75.5065 155.415C74.622 151.723 73.9247 148.821 73.4473 146.837C73.2133 145.849 73.0355 145.091 72.9138 144.567C72.7921 144.043 72.736 143.781 72.736 143.781C72.736 143.781 72.8062 144.033 72.9325 144.534C73.0589 145.035 73.2508 145.798 73.4941 146.771C73.9621 148.746 74.6969 151.629 75.6095 155.308L83.1724 186.051L83.2004 186.177L83.0741 186.21L30.1901 199.126L30.0356 199.164L29.9982 199.009C26.2823 183.739 22.7723 169.305 19.7022 156.712L19.6694 156.576L19.8052 156.543L58.1156 147.281L68.9264 144.684L71.7766 144.005L72.5066 143.837L72.736 143.785Z" fill="#E0E0E0"/>
<path d="M71.5066 146.9L22.3142 158.892L31.3277 195.867L80.5201 183.875L71.5066 146.9Z" fill="#EBEBEB"/>
<path d="M31.3086 195.869L42.8916 168.702L57.0392 180.486L62.3838 171.042L80.5001 183.884L31.3086 195.869Z" fill="#E0E0E0"/>
<path d="M57.3668 162.192C57.5534 162.958 57.5087 163.762 57.2383 164.503C56.9679 165.244 56.484 165.888 55.8477 166.353C55.2114 166.819 54.4513 167.086 53.6636 167.119C52.8758 167.153 52.0957 166.953 51.4218 166.543C50.748 166.134 50.2107 165.533 49.8779 164.819C49.5451 164.104 49.4317 163.306 49.5521 162.527C49.6725 161.748 50.0212 161.022 50.5541 160.441C51.0871 159.859 51.7804 159.449 52.5464 159.262C53.0553 159.138 53.5837 159.115 54.1014 159.195C54.6191 159.275 55.116 159.456 55.5636 159.728C56.0113 160 56.401 160.358 56.7104 160.781C57.0197 161.203 57.2428 161.683 57.3668 162.192Z" fill="#E0E0E0"/>
<path d="M203.407 42.843L128.556 56.5808L139.54 116.426L214.391 102.688L203.407 42.843Z" fill="#FAFAFA"/>
<path d="M203.411 42.8379L203.05 42.9128L202.002 43.1187L197.94 43.8862L182.622 46.7551L128.592 56.7843L128.751 56.555C132.027 74.3671 135.771 94.7812 139.758 116.389L139.496 116.22L214.376 102.517L214.231 102.733C210.955 84.7052 208.25 69.7619 206.355 59.3115C205.419 54.0839 204.679 49.9843 204.174 47.1716C203.926 45.7676 203.738 44.7052 203.607 43.9705C203.476 43.2357 203.425 42.8566 203.425 42.8566C203.425 42.8566 203.504 43.2123 203.64 43.9237C203.776 44.635 203.982 45.7067 204.244 47.0873C204.768 49.8953 205.531 53.9623 206.509 59.1664C208.451 69.6356 211.236 84.6069 214.591 102.69L214.624 102.868L214.442 102.901L139.585 116.637L139.365 116.679L139.328 116.459C135.373 94.8514 131.629 74.4326 128.367 56.6205L128.334 56.4239L128.526 56.3865L182.721 46.5585L197.996 43.7833L202.026 43.0672L203.06 42.8894L203.411 42.8379Z" fill="#E0E0E0"/>
<path d="M201.426 47.1037L131.831 59.8767L141.432 112.186L211.026 99.4135L201.426 47.1037Z" fill="#EBEBEB"/>
<path d="M141.434 112.181L159.77 75.2047L178.56 92.7828L186.778 80.0298L211.025 99.405L141.434 112.181Z" fill="#E0E0E0"/>
<path d="M180.488 67.2815C180.688 68.3658 180.561 69.485 180.124 70.4975C179.688 71.5099 178.961 72.3701 178.035 72.9692C177.109 73.5683 176.027 73.8794 174.924 73.8633C173.822 73.8471 172.749 73.5043 171.841 72.8783C170.934 72.2522 170.232 71.3711 169.826 70.3463C169.419 69.3215 169.325 68.199 169.556 67.121C169.788 66.0429 170.333 65.0577 171.125 64.2898C171.916 63.522 172.917 63.0061 174.002 62.8074C174.721 62.6749 175.46 62.6855 176.176 62.8387C176.891 62.9919 177.57 63.2846 178.172 63.7001C178.775 64.1156 179.289 64.6458 179.687 65.2603C180.084 65.8748 180.356 66.5616 180.488 67.2815Z" fill="#E0E0E0"/>
<g opacity="0.3">
<path d="M120.589 90.9436L120.888 83.9938L116.007 90.9342L120.589 90.9436Z" fill="black"/>
</g>
<path d="M109.333 84.8923H148.089L150.302 82.6787H173.866C174.631 82.6787 175.364 82.9824 175.905 83.5231C176.445 84.0637 176.749 84.797 176.749 85.5616V89.4553H106.736L106.652 87.7284C106.634 87.3641 106.689 86.9999 106.815 86.6577C106.942 86.3155 107.136 86.0024 107.387 85.7374C107.637 85.4724 107.939 85.2608 108.274 85.1156C108.608 84.9704 108.969 84.8944 109.333 84.8923Z" fill="#A7004D"/>
<path d="M54.7881 146.514L55.3076 94.9075C55.3211 93.4617 55.905 92.0798 56.9322 91.0623C57.9593 90.0447 59.3467 89.4739 60.7925 89.474H179.379C180.826 89.474 182.215 90.046 183.243 91.0656C184.27 92.0851 184.853 93.4694 184.864 94.9168L185.252 146.514L190.709 169.053V177.107H186.844V200.175C186.841 204.223 185.231 208.105 182.368 210.967C179.504 213.829 175.621 215.436 171.573 215.436H66.1558C62.1057 215.436 58.2215 213.827 55.3577 210.963C52.4939 208.1 50.885 204.215 50.885 200.165V176.124H47.0193V169.053L54.7881 146.514Z" fill="#A7004D"/>
<path d="M54.7881 146.514C54.7881 146.514 54.6243 147.015 54.2967 147.983L52.8178 152.308L47.0708 169.072C47.0708 171.29 47.0708 173.652 47.0708 176.157L47.0099 176.101H50.9365V176.124C50.9365 181.165 50.9365 186.729 50.9365 192.78C50.9365 194.294 50.9365 195.836 50.9365 197.409C50.8879 199.006 50.9395 200.605 51.0909 202.197C51.297 203.838 51.7863 205.431 52.537 206.905C53.2998 208.436 54.312 209.829 55.5322 211.028C58.1203 213.549 61.525 215.061 65.1309 215.291C66.0669 215.357 67.0029 215.338 67.9389 215.343H76.5641H101.186H156.616H171.592C174.127 215.314 176.617 214.672 178.85 213.471L179.66 212.975L180.067 212.727L180.451 212.441L181.214 211.87L181.92 211.224L182.276 210.901L182.599 210.55L183.245 209.839L183.825 209.071L184.111 208.688C184.204 208.557 184.279 208.416 184.363 208.281L184.864 207.457C185.018 207.176 185.15 206.881 185.29 206.591C185.564 206.008 185.803 205.41 186.006 204.799C186.395 203.563 186.625 202.283 186.689 200.989C186.736 200.343 186.731 199.688 186.731 199.033V193.113C186.731 187.827 186.731 182.492 186.731 177.107V176.985H190.719L190.597 177.107V169.104C190.045 166.816 189.446 164.345 188.847 161.869C187.574 156.627 186.315 151.423 185.14 146.57V146.542C185.014 129.853 184.892 113.604 184.775 97.9449C184.682 96.012 185.065 93.9528 184.026 92.2914C183.55 91.4737 182.866 90.7959 182.045 90.3259C181.223 89.856 180.293 89.6107 179.346 89.6145H145.898L70.0262 89.5443H62.1497C61.5133 89.5443 60.8721 89.5443 60.2777 89.5724C59.6628 89.6369 59.0632 89.8046 58.504 90.0684C57.3974 90.5889 56.5022 91.4724 55.9675 92.5722C55.7036 93.1027 55.5311 93.6739 55.4573 94.2617C55.3918 94.8467 55.4059 95.4411 55.3965 96.0261C55.3965 97.2054 55.3965 98.3661 55.3591 99.4986C55.3341 101.779 55.3107 103.985 55.2889 106.116C55.1953 114.638 55.1157 121.967 55.0502 127.953C54.9847 133.939 54.9238 138.577 54.8864 141.722C54.8864 143.289 54.8489 144.487 54.8396 145.292C54.8302 146.097 54.8396 146.505 54.8396 146.505C54.8396 146.505 54.8396 146.093 54.8396 145.288C54.8396 144.483 54.8396 143.285 54.8396 141.712C54.8677 138.567 54.9051 133.929 54.9566 127.944C55.0081 121.958 55.0783 114.629 55.1578 106.107C55.1765 103.979 55.1968 101.775 55.2187 99.494C55.2187 98.3567 55.2187 97.2008 55.2514 96.0261C55.2514 95.4411 55.2514 94.8467 55.3076 94.243C55.4278 93.3202 55.7773 92.4422 56.3242 91.6892C56.8712 90.9363 57.5981 90.3324 58.4385 89.9327C59.0135 89.6585 59.6305 89.4829 60.2637 89.4132C60.9049 89.3664 61.532 89.4132 62.1731 89.3852H70.0496H145.922H179.323C180.064 89.3796 180.799 89.5208 181.485 89.8005C182.171 90.0803 182.795 90.493 183.321 91.0151C183.847 91.5371 184.265 92.1581 184.55 92.8422C184.834 93.5264 184.981 94.2601 184.981 95.0012C184.981 95.9746 184.981 96.9527 185.004 97.9308C185.121 113.59 185.248 129.839 185.374 146.523V146.495C186.553 151.353 187.812 156.557 189.081 161.794C189.68 164.275 190.279 166.746 190.836 169.034V177.238H186.848L186.97 177.116V199.056C186.97 199.711 186.97 200.367 186.928 201.027C186.862 202.341 186.629 203.641 186.235 204.897C186.029 205.518 185.785 206.126 185.505 206.717C185.36 207.008 185.229 207.307 185.075 207.597L184.56 208.416C184.476 208.557 184.396 208.697 184.302 208.833L184.012 209.221L183.423 210.003L182.767 210.724L182.44 211.084L182.079 211.407L181.363 212.062L180.587 212.628L180.198 212.918L179.786 213.171L178.958 213.672C176.69 214.886 174.16 215.529 171.587 215.544H156.611H101.181H76.5595H67.9483C67.0123 215.544 66.0763 215.544 65.1403 215.492C61.4938 215.259 58.0518 213.727 55.4386 211.173C54.2074 209.958 53.1844 208.55 52.4107 207.003C51.6565 205.51 51.1642 203.898 50.9552 202.239C50.8057 200.641 50.7557 199.036 50.8054 197.432C50.8054 195.86 50.8054 194.315 50.8054 192.804C50.8054 186.753 50.8054 181.188 50.8054 176.148L50.8663 176.213H46.9631V176.124C46.9631 173.628 46.9631 171.266 46.9631 169.039C49.495 161.738 51.4419 156.108 52.7617 152.303L54.2639 147.983C54.6103 147.01 54.7881 146.514 54.7881 146.514Z" fill="#263238"/>
<path d="M81.1352 137.796C84.8414 133.774 84.5854 127.509 80.5634 123.803C76.5414 120.097 70.2765 120.353 66.5703 124.375C62.8641 128.397 63.1201 134.662 67.1421 138.368C71.1641 142.074 77.429 141.818 81.1352 137.796Z" fill="#E0E0E0"/>
<path d="M83.7572 131.084C83.7428 131.032 83.7349 130.979 83.7338 130.925C83.7338 130.803 83.7338 130.649 83.701 130.457C83.6892 130.202 83.6595 129.949 83.6121 129.699C83.5633 129.356 83.493 129.017 83.4015 128.683C83.1677 127.76 82.7953 126.878 82.297 126.067C81.6481 124.989 80.7981 124.045 79.7932 123.287C78.5784 122.362 77.1626 121.737 75.6608 121.462C73.9371 121.144 72.1597 121.292 70.5128 121.892C70.075 122.051 69.6482 122.239 69.2351 122.454C68.8183 122.683 68.4179 122.941 68.037 123.226C67.6462 123.512 67.2756 123.825 66.9279 124.162C66.5926 124.52 66.28 124.898 65.9919 125.295C65.3835 126.113 64.9095 127.023 64.5879 127.991C63.9202 129.994 63.9202 132.16 64.5879 134.163C64.9095 135.131 65.3835 136.041 65.9919 136.859C66.2774 137.259 66.5902 137.639 66.9279 137.996C67.2779 138.331 67.6483 138.644 68.037 138.932C68.4179 139.217 68.8183 139.475 69.2351 139.705C69.6482 139.92 70.075 140.107 70.5128 140.266C72.6557 141.045 75.0026 141.054 77.1515 140.292C79.3005 139.531 81.1178 138.046 82.2923 136.092C82.7898 135.28 83.1622 134.398 83.3968 133.475C83.4888 133.14 83.5591 132.799 83.6074 132.455C83.6553 132.205 83.6851 131.952 83.6963 131.697C83.6963 131.505 83.7197 131.346 83.7291 131.229C83.7296 131.175 83.7374 131.122 83.7525 131.07C83.7577 131.123 83.7577 131.176 83.7525 131.229C83.7525 131.351 83.7525 131.505 83.7525 131.697C83.7526 131.953 83.7307 132.208 83.687 132.46C83.6504 132.809 83.5863 133.155 83.4951 133.494C83.2754 134.432 82.9123 135.33 82.4187 136.157C81.6983 137.377 80.7272 138.43 79.5694 139.246C78.4117 140.063 77.0938 140.624 75.7029 140.893C73.9447 141.223 72.1305 141.077 70.4472 140.472C69.9986 140.31 69.5609 140.119 69.1368 139.901C68.7054 139.68 68.2895 139.43 67.892 139.152C67.4925 138.854 67.1127 138.53 66.7547 138.184C66.4012 137.821 66.0729 137.435 65.7719 137.028C65.1482 136.19 64.6631 135.258 64.3352 134.266C63.6487 132.213 63.6487 129.992 64.3352 127.939C64.6621 126.947 65.1473 126.015 65.7719 125.178C66.074 124.77 66.4023 124.382 66.7547 124.017C67.1127 123.672 67.4926 123.35 67.892 123.053C68.2839 122.763 68.6951 122.501 69.1228 122.267C69.546 122.047 69.9838 121.856 70.4332 121.696C72.116 121.088 73.9308 120.943 75.6888 121.275C77.0782 121.54 78.3953 122.097 79.5524 122.911C80.7095 123.724 81.6802 124.775 82.4 125.992C82.8936 126.819 83.2567 127.717 83.4764 128.655C83.5671 128.993 83.6313 129.337 83.6682 129.685C83.712 129.938 83.7339 130.195 83.7338 130.452C83.7338 130.649 83.7338 130.803 83.7338 130.92C83.7469 130.974 83.7547 131.029 83.7572 131.084Z" fill="#263238"/>
<g opacity="0.3">
<path d="M47.0193 169.053H190.709L185.252 146.519H54.7928L47.0193 169.053Z" fill="black"/>
</g>
<path d="M174.849 116.66H158.333C157.712 116.66 157.117 116.414 156.678 115.975C156.239 115.536 155.993 114.941 155.993 114.32V97.7857C155.993 97.1651 156.239 96.5699 156.678 96.131C157.117 95.6922 157.712 95.4457 158.333 95.4457H174.849C175.469 95.4457 176.064 95.6922 176.503 96.131C176.942 96.5699 177.189 97.1651 177.189 97.7857V114.301C177.191 114.61 177.132 114.917 177.016 115.203C176.899 115.489 176.727 115.749 176.51 115.968C176.292 116.187 176.034 116.361 175.748 116.48C175.463 116.599 175.158 116.66 174.849 116.66ZM158.333 95.895C157.836 95.895 157.36 96.0922 157.009 96.4433C156.658 96.7943 156.461 97.2705 156.461 97.767V114.301C156.461 114.798 156.658 115.274 157.009 115.625C157.36 115.976 157.836 116.173 158.333 116.173H174.849C175.345 116.173 175.821 115.976 176.172 115.625C176.523 115.274 176.721 114.798 176.721 114.301V97.7857C176.721 97.2892 176.523 96.813 176.172 96.462C175.821 96.1109 175.345 95.9137 174.849 95.9137L158.333 95.895Z" fill="#263238"/>
<path d="M175.779 108.201C176.966 103.13 173.817 98.0566 168.745 96.8699C163.674 95.6833 158.601 98.8323 157.415 103.904C156.228 108.975 159.377 114.048 164.448 115.234C169.519 116.421 174.592 113.272 175.779 108.201Z" fill="#263238"/>
<path d="M89.2234 100.112H65.9544C64.1942 100.112 62.7673 101.539 62.7673 103.299V108.868C62.7673 110.628 64.1942 112.055 65.9544 112.055H89.2234C90.9835 112.055 92.4105 110.628 92.4105 108.868V103.299C92.4105 101.539 90.9835 100.112 89.2234 100.112Z" fill="#FAFAFA"/>
<path d="M89.2234 112.05C89.4834 112.028 89.7415 111.988 89.9956 111.929C90.7236 111.735 91.359 111.289 91.7881 110.67C92.097 110.228 92.2857 109.714 92.3356 109.177C92.3637 108.587 92.3356 107.932 92.3356 107.235C92.3356 106.537 92.3356 105.789 92.3356 104.998C92.3356 104.605 92.3356 104.197 92.3356 103.776C92.3559 103.355 92.3197 102.933 92.228 102.522C92.1145 102.088 91.9079 101.684 91.6227 101.338C91.3374 100.993 90.9802 100.713 90.5759 100.519C89.7382 100.051 88.7039 100.243 87.679 100.21H81.0802H65.9591C65.3178 100.213 64.6933 100.415 64.1724 100.789C63.6515 101.163 63.2602 101.69 63.0529 102.297C62.8978 102.908 62.8425 103.541 62.8891 104.169V107.96C62.8421 108.563 62.8895 109.169 63.0295 109.757C63.2055 110.307 63.5321 110.796 63.9722 111.169C64.4124 111.542 64.9483 111.784 65.5192 111.868C65.8004 111.9 66.0835 111.911 66.3663 111.901H68.8982H72.0993H77.851L86.1768 111.938H88.4372H89.0269C89.0938 111.931 89.1612 111.931 89.2281 111.938H89.0269H88.4372L86.1768 111.962L77.851 112.004H72.0993H66.3616C66.0678 112.014 65.7736 112.002 65.4818 111.966C64.8685 111.878 64.2924 111.62 63.819 111.22C63.3457 110.82 62.9942 110.296 62.8048 109.706C62.7115 109.402 62.6595 109.087 62.6504 108.77C62.6504 108.461 62.6504 108.152 62.6504 107.834V103.238C62.6589 102.899 62.7173 102.563 62.8235 102.241C63.0461 101.586 63.4681 101.016 64.0303 100.613C64.5926 100.209 65.267 99.9914 65.9591 99.9901H81.0802H87.679H89.2C89.7064 99.9865 90.2066 100.102 90.6602 100.327C91.0865 100.535 91.4626 100.833 91.7624 101.201C92.0621 101.569 92.2785 101.997 92.3965 102.456C92.4877 102.882 92.5223 103.318 92.4994 103.753C92.4994 104.174 92.4994 104.581 92.4994 104.974C92.4994 105.765 92.4994 106.514 92.4994 107.211C92.4994 107.909 92.4994 108.554 92.4714 109.163C92.4124 109.717 92.2108 110.245 91.8864 110.698C91.4362 111.33 90.7704 111.776 90.0144 111.952C89.7577 112.027 89.4906 112.06 89.2234 112.05Z" fill="#263238"/>
<path d="M122.016 145.456C136.216 145.456 147.728 133.945 147.728 119.744C147.728 105.544 136.216 94.0323 122.016 94.0323C107.816 94.0323 96.3042 105.544 96.3042 119.744C96.3042 133.945 107.816 145.456 122.016 145.456Z" fill="#263238"/>
<path d="M122.016 145.704C116.884 145.704 111.868 144.182 107.601 141.331C103.334 138.48 100.009 134.428 98.0449 129.686C96.0812 124.945 95.5677 119.728 96.5692 114.695C97.5707 109.662 100.042 105.039 103.671 101.41C107.3 97.7817 111.924 95.311 116.957 94.3104C121.991 93.3098 127.208 93.8242 131.949 95.7887C136.689 97.7532 140.741 101.08 143.592 105.347C146.442 109.614 147.963 114.631 147.962 119.763C147.955 126.642 145.219 133.236 140.354 138.1C135.49 142.963 128.895 145.698 122.016 145.704ZM122.016 94.2851C116.977 94.2851 112.051 95.7793 107.861 98.5789C103.672 101.378 100.406 105.358 98.4777 110.013C96.5494 114.668 96.0448 119.791 97.0279 124.733C98.0109 129.676 100.437 134.215 104.001 137.779C107.564 141.342 112.104 143.768 117.046 144.751C121.988 145.734 127.111 145.23 131.766 143.302C136.422 141.373 140.401 138.108 143.2 133.918C146 129.728 147.494 124.802 147.494 119.763C147.492 113.005 144.807 106.524 140.03 101.743C135.253 96.963 128.774 94.2738 122.016 94.2663V94.2851Z" fill="#455A64"/>
<path d="M122.016 143.112C117.301 143.107 112.693 141.704 108.775 139.081C104.857 136.458 101.804 132.732 100.003 128.375C98.202 124.017 97.7334 119.223 98.6564 114.599C99.5795 109.975 101.853 105.729 105.189 102.396C108.525 99.0642 112.774 96.7959 117.399 95.8783C122.024 94.9606 126.818 95.4349 131.173 97.241C135.529 99.0472 139.251 102.104 141.87 106.025C144.488 109.947 145.885 114.556 145.884 119.272C145.877 125.597 143.359 131.661 138.884 136.131C134.408 140.601 128.342 143.112 122.016 143.112ZM122.016 95.895C117.395 95.8997 112.878 97.274 109.038 99.8445C105.197 102.415 102.204 106.066 100.438 110.337C98.6716 114.607 98.2107 119.305 99.1134 123.838C100.016 128.37 102.242 132.534 105.51 135.801C108.778 139.069 112.941 141.295 117.473 142.198C122.006 143.101 126.704 142.64 130.975 140.873C135.245 139.107 138.896 136.114 141.467 132.274C144.037 128.433 145.412 123.917 145.416 119.295C145.416 113.089 142.951 107.137 138.563 102.749C134.174 98.3604 128.222 95.895 122.016 95.895Z" fill="#455A64"/>
<path d="M122.016 138.67C132.582 138.67 141.148 130.105 141.148 119.538C141.148 108.972 132.582 100.406 122.016 100.406C111.45 100.406 102.884 108.972 102.884 119.538C102.884 130.105 111.45 138.67 122.016 138.67Z" fill="#455A64"/>
<path d="M79.2969 136.09C82.0546 133.081 81.8514 128.407 78.8428 125.649C75.8343 122.891 71.1598 123.095 68.4021 126.103C65.6443 129.112 65.8476 133.786 68.8561 136.544C71.8646 139.302 76.5391 139.098 79.2969 136.09Z" fill="#A7004D"/>
<path d="M81.2441 131.084C81.192 130.481 81.0981 129.882 80.9633 129.291C80.7886 128.605 80.5109 127.948 80.1396 127.345C79.6525 126.543 79.0172 125.841 78.2676 125.276C77.3623 124.591 76.3093 124.128 75.1929 123.923C73.9122 123.691 72.5929 123.803 71.3693 124.246C70.7093 124.482 70.0891 124.816 69.5301 125.239C69.2416 125.456 68.9665 125.69 68.7064 125.941C68.4507 126.207 68.2131 126.49 67.995 126.788C67.0768 128.032 66.5814 129.538 66.5814 131.084C66.5814 132.63 67.0768 134.136 67.995 135.38C68.2117 135.678 68.4494 135.959 68.7064 136.223C68.9643 136.475 69.2395 136.71 69.5301 136.925C70.088 137.349 70.7085 137.683 71.3693 137.917C72.9627 138.495 74.7073 138.503 76.3058 137.939C77.9042 137.375 79.2575 136.274 80.135 134.823C80.5057 134.219 80.7834 133.563 80.9586 132.876C81.0935 132.286 81.1873 131.687 81.2394 131.084C81.2394 131.084 81.2394 131.126 81.2394 131.201C81.2394 131.276 81.2394 131.411 81.2394 131.557C81.2397 131.748 81.2241 131.939 81.1926 132.128C81.1633 132.388 81.1164 132.646 81.0522 132.9C80.8881 133.601 80.6182 134.273 80.252 134.893C79.7137 135.806 78.9877 136.595 78.122 137.206C77.2564 137.818 76.2707 138.239 75.2303 138.441C73.9141 138.693 72.5542 138.584 71.2944 138.127C70.6113 137.888 69.9688 137.546 69.3897 137.112C69.0897 136.891 68.8051 136.65 68.5379 136.391C68.2729 136.117 68.0259 135.826 67.7985 135.521C66.8483 134.233 66.3357 132.675 66.3357 131.075C66.3357 129.474 66.8483 127.916 67.7985 126.629C68.023 126.323 68.2685 126.034 68.5332 125.763C68.8016 125.503 69.086 125.261 69.385 125.037C69.9642 124.603 70.6066 124.261 71.2898 124.022C72.5505 123.569 73.9097 123.462 75.2256 123.713C76.2669 123.913 77.2535 124.333 78.1194 124.944C78.9854 125.556 79.7109 126.346 80.2473 127.26C80.6143 127.88 80.8842 128.552 81.0476 129.254C81.1117 129.508 81.1586 129.766 81.188 130.026C81.2194 130.215 81.2351 130.406 81.2348 130.597C81.2348 130.738 81.2348 130.855 81.2348 130.948C81.2348 131.042 81.2441 131.084 81.2441 131.084Z" fill="#263238"/>
<path d="M77.004 125.735C76.5886 125.533 76.1602 125.36 75.7217 125.215C74.5129 124.853 73.223 124.863 72.0198 125.243C71.1368 125.529 70.3299 126.011 69.6596 126.653C68.9893 127.295 68.4731 128.08 68.1494 128.95C67.9625 129.45 67.8429 129.972 67.7938 130.504C67.7442 131.058 67.7694 131.617 67.8686 132.165C68.0778 133.321 68.6174 134.392 69.4222 135.249C70.2269 136.105 71.2624 136.71 72.4036 136.99C73.4679 137.251 74.5825 137.223 75.6328 136.911C76.5788 136.618 77.4418 136.105 78.1506 135.413C78.763 134.806 79.2413 134.077 79.5546 133.274C80.0109 132.098 80.1023 130.811 79.8167 129.582C79.7368 129.249 79.6336 128.922 79.5078 128.604C79.4559 128.495 79.4121 128.382 79.3768 128.267C79.3956 128.292 79.4128 128.319 79.4282 128.346C79.4563 128.398 79.4984 128.477 79.5499 128.585C79.7009 128.897 79.8216 129.223 79.9103 129.558C80.2356 130.807 80.1669 132.126 79.7137 133.335C79.399 134.168 78.9127 134.925 78.2863 135.558C77.5567 136.279 76.6666 136.816 75.6889 137.126C74.6006 137.457 73.4431 137.49 72.338 137.219C71.149 136.935 70.0699 136.306 69.2352 135.413C68.3988 134.523 67.8381 133.409 67.6206 132.207C67.5229 131.637 67.4993 131.057 67.5504 130.48C67.7091 128.895 68.4614 127.429 69.6564 126.376C70.3214 125.783 71.1069 125.341 71.959 125.08C73.1935 124.702 74.5146 124.717 75.7404 125.122C76.0651 125.232 76.3785 125.373 76.6764 125.543L76.9104 125.679L77.004 125.735Z" fill="#263238"/>
<path d="M185.252 146.514C185.252 146.584 156.045 146.64 120.027 146.64C84.01 146.64 54.7881 146.584 54.7881 146.514C54.7881 146.444 83.9866 146.392 120.023 146.392C156.059 146.392 185.252 146.448 185.252 146.514Z" fill="#263238"/>
<path d="M189.282 177.135H188.922H187.869H183.82H168.933C156.363 177.088 138.981 176.929 119.821 176.709C100.661 176.489 83.2659 176.302 70.6814 176.218L55.799 176.124L51.7508 176.096H55.799H70.686C83.2565 176.138 100.638 176.297 119.826 176.517C139.014 176.737 156.367 176.925 168.938 177.013L183.825 177.107L187.873 177.135H188.926H189.282Z" fill="#263238"/>
<path d="M174.919 197.591H62.8096V203.657H174.919V197.591Z" fill="#263238"/>
<path d="M65.2946 200.624L57.0906 222.948H181.752L172.284 200.624H65.2946Z" fill="white"/>
<path d="M65.2945 200.624C65.2945 200.624 65.4677 200.624 65.814 200.624H67.3584H73.3488L95.7051 200.591L172.284 200.54H172.364L172.392 200.615C175.438 207.789 178.611 215.272 181.864 222.938L181.934 223.107H173.154L57.0905 223.055H56.9922L57.0249 222.962L63.1089 206.507L64.7282 202.15C64.9108 201.682 65.0512 201.289 65.1448 201.031C65.2384 200.774 65.2898 200.661 65.2898 200.661C65.2898 200.661 65.2477 200.793 65.1588 201.05L64.7516 202.178L63.1651 206.544C61.7611 210.368 59.73 215.946 57.156 222.994L57.0951 222.906L173.159 222.849H181.756L181.644 223.018C178.391 215.352 175.223 207.869 172.181 200.694L172.289 200.764L95.7754 200.713L73.3956 200.68H67.3865H65.8327L65.2945 200.624Z" fill="#263238"/>
<g opacity="0.3">
<path d="M134.278 128.388C134.044 125.983 131.938 125.112 129.958 124.86C125.788 124.275 121.066 125.468 117.64 123.034C116.548 122.23 115.713 121.125 115.237 119.855C114.762 118.584 114.667 117.203 114.963 115.879C115.431 113.871 116.835 111.667 115.474 109.972C115.209 109.658 114.881 109.403 114.511 109.224C114.14 109.045 113.737 108.946 113.325 108.934C112.544 108.913 111.769 109.073 111.06 109.402C109.529 110.077 108.283 111.27 107.541 112.771C105.815 116.324 105.499 120.399 106.656 124.176C107.364 126.531 108.591 128.696 110.247 130.512C111.904 132.328 113.948 133.749 116.227 134.669C118.521 135.554 120.979 135.928 123.432 135.766C125.885 135.605 128.273 134.911 130.431 133.733C132.055 132.839 133.585 131.622 134.133 129.76C134.267 129.316 134.316 128.85 134.278 128.388Z" fill="white"/>
</g>
<g opacity="0.3">
<path d="M123.757 106.355C123.758 106.743 123.644 107.123 123.429 107.446C123.213 107.769 122.907 108.021 122.549 108.17C122.19 108.319 121.796 108.358 121.415 108.283C121.034 108.207 120.684 108.021 120.41 107.746C120.135 107.472 119.948 107.122 119.873 106.741C119.797 106.36 119.836 105.965 119.985 105.607C120.134 105.248 120.386 104.942 120.71 104.727C121.033 104.512 121.413 104.398 121.801 104.399C122.32 104.399 122.817 104.605 123.184 104.972C123.551 105.338 123.757 105.836 123.757 106.355Z" fill="white"/>
</g>
<path d="M115.258 136.447C115.144 136.415 115.034 136.369 114.931 136.311C114.725 136.208 114.406 136.082 114.027 135.843C112.933 135.248 111.904 134.539 110.957 133.728C109.549 132.526 108.324 131.124 107.321 129.568C104.805 125.733 103.836 121.087 104.611 116.567C104.907 114.747 105.465 112.98 106.268 111.32C106.811 110.2 107.469 109.139 108.233 108.157C108.496 107.806 108.739 107.562 108.889 107.384C108.963 107.293 109.045 107.207 109.132 107.127C109.072 107.229 109.003 107.326 108.926 107.417C108.79 107.604 108.561 107.852 108.313 108.217C107.586 109.213 106.959 110.277 106.441 111.395C105.659 113.052 105.118 114.812 104.836 116.623C104.093 121.087 105.048 125.669 107.513 129.465C108.496 131.01 109.693 132.408 111.07 133.616C111.999 134.432 113.005 135.156 114.074 135.778C114.444 136.012 114.757 136.148 114.954 136.246C115.062 136.303 115.164 136.37 115.258 136.447Z" fill="white"/>
<path d="M123.195 137.692C122.54 137.775 121.876 137.775 121.22 137.692C120.558 137.695 119.899 137.618 119.255 137.463C119.912 137.379 120.577 137.379 121.235 137.463C121.895 137.461 122.553 137.538 123.195 137.692Z" fill="white"/>
<path d="M139.852 122.136C139.8 122.136 140.016 121.2 140.086 119.716C140.086 119.337 140.109 118.93 140.086 118.49C140.062 118.05 140.03 117.577 139.983 117.086C139.725 114.951 139.058 112.885 138.017 111.002C137.764 110.576 137.549 110.16 137.282 109.804C137.016 109.448 136.814 109.107 136.562 108.807C135.626 107.632 134.924 107.019 134.956 106.982C135.14 107.102 135.309 107.241 135.462 107.398C135.657 107.567 135.841 107.746 136.014 107.937C136.22 108.161 136.482 108.405 136.697 108.699C136.963 109.016 137.213 109.345 137.446 109.687C137.713 110.047 137.952 110.464 138.214 110.89C139.291 112.794 139.967 114.897 140.203 117.072C140.254 117.538 140.282 118.007 140.287 118.476C140.3 118.89 140.289 119.304 140.254 119.716C140.236 120.056 140.201 120.395 140.147 120.732C140.118 120.987 140.074 121.24 140.016 121.49C139.979 121.709 139.924 121.926 139.852 122.136Z" fill="white"/>
<g opacity="0.3">
<path d="M50.8848 176.143V182.536H186.843V177.107L50.8848 176.143Z" fill="black"/>
</g>
<path d="M68.9496 200.624L62.5474 220.172H176.295L168.882 200.624H68.9496Z" fill="#455A64"/>
<path d="M172.785 200.624C172.785 200.69 148.599 200.746 118.778 200.746C88.9568 200.746 64.7659 200.69 64.7659 200.624C64.7659 200.559 88.9427 200.502 118.778 200.502C148.613 200.502 172.785 200.554 172.785 200.624Z" fill="#263238"/>
<path d="M171.633 103.336L179.926 105.625L173.8 107.122C170.669 107.623 169.27 108.966 168.704 110.712L166.79 126.156L164.45 110.712C164.161 109.993 163.724 109.342 163.167 108.803C162.609 108.265 161.945 107.85 161.216 107.586L153.26 105.644L161.656 103.266C162.349 102.981 162.977 102.558 163.5 102.022C164.024 101.486 164.433 100.849 164.702 100.149L166.794 82.6741L168.297 99.7701C168.541 100.581 168.969 101.325 169.547 101.944C170.126 102.563 170.84 103.039 171.633 103.336Z" fill="white"/>
<path d="M175.906 124.555L177.839 125.089L176.412 125.44C175.682 125.557 175.359 125.87 175.223 126.273L174.779 129.867L174.231 126.268C174.164 126.101 174.062 125.949 173.933 125.824C173.803 125.699 173.647 125.603 173.477 125.543L171.629 125.075L173.585 124.523C173.746 124.455 173.891 124.356 174.012 124.232C174.134 124.107 174.229 123.959 174.292 123.797L174.76 119.73L175.111 123.708C175.167 123.902 175.268 124.08 175.407 124.227C175.545 124.375 175.716 124.487 175.906 124.555Z" fill="white"/>
</g>
</svg>
