<svg width="23" height="21" viewBox="0 0 23 21" fill="none" xmlns="http://www.w3.org/2000/svg">
<path fill-rule="evenodd" clip-rule="evenodd" d="M9.72963 2.66797C9.43901 2.66783 9.15432 2.74607 8.90866 2.89359C8.663 3.04111 8.46647 3.25185 8.34191 3.5013C7.74191 3.5063 7.27525 3.53214 6.8577 3.68714C6.35926 3.87236 5.92577 4.18715 5.60683 4.59547C5.2849 5.0063 5.13314 5.53464 4.92612 6.26047L4.8849 6.40214L4.4349 8.87214C4.27291 8.97825 4.1308 9.10575 4.00858 9.25464C3.21823 10.2155 3.59454 11.6463 4.34718 14.5055C4.82525 16.3246 5.06472 17.2338 5.77875 17.7638C6.49279 18.293 7.47963 18.293 9.45332 18.293H13.5147C15.4884 18.293 16.4752 18.293 17.1893 17.7638C17.9033 17.2338 18.1419 16.3246 18.6209 14.5055C19.3735 11.6455 19.7498 10.2163 18.9595 9.25464C18.8385 9.10689 18.6944 8.97761 18.5323 8.8713L18.0823 6.40297L18.0419 6.2613C17.834 5.53464 17.6823 5.0063 17.3612 4.59464C17.0422 4.18662 16.6087 3.87213 16.1103 3.68714C15.6928 3.53214 15.2252 3.5063 14.6261 3.50214C14.5017 3.25253 14.3052 3.04162 14.0596 2.89395C13.8139 2.74627 13.5291 2.66791 13.2384 2.66797H9.72963ZM17.1138 8.41464L16.7963 6.67464C16.5481 5.80797 16.4577 5.53547 16.3051 5.34047C16.1333 5.12056 15.8998 4.95104 15.6314 4.8513C15.4384 4.77964 15.2051 4.7588 14.6244 4.75297C14.4997 5.00185 14.3033 5.21207 14.058 5.35927C13.8127 5.50646 13.5285 5.58461 13.2384 5.58464H9.72963C9.4395 5.58461 9.15531 5.50646 8.91001 5.35927C8.66471 5.21207 8.46834 5.00185 8.34367 4.75297C7.76209 4.7588 7.52963 4.77964 7.33665 4.8513C7.0682 4.95104 6.83473 5.12056 6.66297 5.34047C6.51033 5.53547 6.41998 5.80714 6.17174 6.6738L5.85419 8.41464C6.72963 8.29297 7.8963 8.29297 9.45332 8.29297H13.5147C15.0717 8.29297 16.2384 8.29297 17.1138 8.41464ZM7.97525 11.0013C8.14973 11.0013 8.31707 11.0672 8.44045 11.1844C8.56383 11.3016 8.63314 11.4605 8.63314 11.6263V14.9596C8.63314 15.1254 8.56383 15.2844 8.44045 15.4016C8.31707 15.5188 8.14973 15.5846 7.97525 15.5846C7.80076 15.5846 7.63342 15.5188 7.51004 15.4016C7.38667 15.2844 7.31735 15.1254 7.31735 14.9596V11.6263C7.31735 11.4605 7.38667 11.3016 7.51004 11.1844C7.63342 11.0672 7.80076 11.0013 7.97525 11.0013ZM15.6507 11.6263C15.6507 11.4605 15.5814 11.3016 15.458 11.1844C15.3346 11.0672 15.1673 11.0013 14.9928 11.0013C14.8183 11.0013 14.651 11.0672 14.5276 11.1844C14.4042 11.3016 14.3349 11.4605 14.3349 11.6263V14.9596C14.3349 15.1254 14.4042 15.2844 14.5276 15.4016C14.651 15.5188 14.8183 15.5846 14.9928 15.5846C15.1673 15.5846 15.3346 15.5188 15.458 15.4016C15.5814 15.2844 15.6507 15.1254 15.6507 14.9596V11.6263ZM11.484 11.0013C11.6585 11.0013 11.8258 11.0672 11.9492 11.1844C12.0726 11.3016 12.1419 11.4605 12.1419 11.6263V14.9596C12.1419 15.1254 12.0726 15.2844 11.9492 15.4016C11.8258 15.5188 11.6585 15.5846 11.484 15.5846C11.3095 15.5846 11.1422 15.5188 11.0188 15.4016C10.8954 15.2844 10.8261 15.1254 10.8261 14.9596V11.6263C10.8261 11.4605 10.8954 11.3016 11.0188 11.1844C11.1422 11.0672 11.3095 11.0013 11.484 11.0013Z" fill="#A7004D"/>
</svg>
