<svg width="73" height="69" viewBox="0 0 73 69" fill="none" xmlns="http://www.w3.org/2000/svg">
<path d="M54.9488 10.2188C55.929 9.05487 55.7859 7.30665 54.5475 6.42241C48.9866 2.45176 42.352 0.209284 35.4804 0.0139331C27.6879 -0.207601 20.05 2.21657 13.8115 6.89139C7.57298 11.5662 3.10164 18.2161 1.12612 25.7573C-0.849391 33.2986 -0.212612 41.2866 2.93269 48.4196C6.07799 55.5526 11.5464 61.4101 18.4467 65.0376C25.347 68.665 33.2725 69.8485 40.9315 68.3952C48.5906 66.9419 55.5317 62.9375 60.6236 57.0346C65.1138 51.8293 67.9326 45.4183 68.7514 38.6345C68.9337 37.1238 67.7395 35.8391 66.2191 35.7778C64.6986 35.7166 63.4299 36.9029 63.2246 38.4107C62.4707 43.9492 60.1276 49.1732 56.4511 53.4353C52.1724 58.3954 46.34 61.7602 39.9043 62.9814C33.4686 64.2025 26.809 63.2081 21.0108 60.16C15.2126 57.112 10.6176 52.19 7.97471 46.1963C5.33178 40.2026 4.79671 33.4905 6.45669 27.1537C8.11667 20.817 11.8738 15.2293 17.1159 11.3011C22.358 7.37297 28.7759 5.33599 35.3238 5.52214C40.9502 5.6821 46.3876 7.47538 50.9853 10.654C52.237 11.5194 53.9686 11.3827 54.9488 10.2188Z" fill="#A7004D"/>
<path d="M69.0002 10.7688L35.2729 44.6705L19.9424 29.2607" stroke="#A7004D" stroke-width="7" stroke-linecap="round" stroke-linejoin="round"/>
</svg>
