<svg width="21" height="22" viewBox="0 0 21 22" fill="none" xmlns="http://www.w3.org/2000/svg">
<path d="M1.9624 1.48438H12.2749C12.6212 1.48438 12.8999 1.77706 12.8999 2.14063V11.6562C12.8999 12.0198 12.6212 12.3125 12.2749 12.3125H1.9624C1.61615 12.3125 1.3374 12.0198 1.3374 11.6562V2.14063C1.3374 1.77706 1.61615 1.48438 1.9624 1.48438Z" fill="#FF9751"/>
<path d="M12.2749 1.48438V11C12.2749 11.3636 11.9962 11.6562 11.6499 11.6562H1.3374C1.3374 12.0198 1.61615 12.3125 1.96241 12.3125H12.2749C12.6212 12.3125 12.8999 12.0198 12.8999 11.6562V2.14063C12.8999 1.77706 12.6212 1.48438 12.2749 1.48438Z" fill="#FF7F29"/>
<path d="M4.25428 13.4759C4.46111 13.4606 4.67447 13.5085 4.8683 13.6265L7.97744 15.519C7.92476 15.3976 7.89382 15.2641 7.89382 15.1223C7.89382 14.5793 8.3231 14.1424 8.85634 14.1424H13.3461L14.7926 14.7903H16.3764V19.4789H14.8872C14.3197 19.4789 12.3333 20.3684 11.1983 20.3684C9.78835 20.2959 3.79103 15.594 3.79103 15.594C3.27417 15.2792 3.09833 14.5875 3.39675 14.0424C3.58325 13.7017 3.90958 13.5013 4.25428 13.4759Z" fill="#FFC6A0"/>
<path d="M15.6331 14.8267V18.9039H14.0733C13.436 18.9039 11.2483 19.8384 9.92676 19.8859C10.479 20.1876 10.9378 20.3852 11.2154 20.3994C12.3523 20.3994 14.3418 19.5085 14.9102 19.5085H16.3614V14.8267H15.6331Z" fill="#FFAF7A"/>
<path d="M5.7124 1.48438H8.5249V4.76563L7.11866 3.91562L5.7124 4.76563V1.48438Z" fill="#E4EFF8"/>
<path d="M7.8999 1.48438V4.38815L8.52491 4.76562V1.48438H7.8999Z" fill="#C4DCF0"/>
<path d="M7.11865 3.25977L5.7124 4.10956V4.7658L7.11865 3.91601L8.5249 4.7658V4.10956L7.11865 3.25977Z" fill="#C4DCF0"/>
<path d="M15.7124 10.3438C15.7124 11.7935 14.5931 12.9688 13.2124 12.9688C11.8317 12.9688 10.7124 11.7935 10.7124 10.3438C10.7124 8.894 11.8317 7.71875 13.2124 7.71875C14.5931 7.71875 15.7124 8.894 15.7124 10.3438Z" fill="#E4EFF8"/>
<path d="M13.2124 7.71875C12.8841 7.71875 12.559 7.78665 12.2557 7.91857C11.9524 8.05048 11.6768 8.24384 11.4446 8.4876C11.2125 8.73135 11.0283 9.02073 10.9027 9.33921C10.7771 9.65769 10.7124 9.99903 10.7124 10.3438C10.7124 10.7684 10.8106 11.1867 10.9984 11.5627C11.1863 11.9388 11.4582 12.2614 11.7909 12.5028C11.4967 12.0625 11.3384 11.5379 11.3374 11C11.3374 10.3038 11.6008 9.63614 12.0696 9.14385C12.5385 8.65157 13.1744 8.37501 13.8374 8.375C14.3453 8.37508 14.8412 8.5376 15.2589 8.84092C15.0288 8.49492 14.7227 8.21227 14.3664 8.01692C14.0102 7.82158 13.6143 7.7193 13.2124 7.71875Z" fill="#C4DCF0"/>
<path d="M18.8934 13.9531H16.9035C16.5891 13.9531 16.3359 14.2302 16.3359 14.5743V19.8944C16.3359 20.2386 16.5891 20.5156 16.9035 20.5156H18.5358C18.8503 20.5156 19.0803 20.2377 19.1034 19.8944L19.4609 14.5743C19.484 14.231 19.2078 13.9531 18.8934 13.9531Z" fill="#549AD4"/>
<path d="M18.8933 13.9531C19.2077 13.9531 19.484 14.2308 19.4609 14.5741L19.1033 19.8946C19.0802 20.2379 18.8501 20.5156 18.5356 20.5156H16.9036C16.5892 20.5156 16.3359 20.2388 16.3359 19.8946V19.8594H17.9107C18.2251 19.8594 18.4552 19.5817 18.4783 19.2384L18.8335 13.9531L18.8933 13.9531Z" fill="#3588CB"/>
<path d="M1.96181 1.15625C1.44783 1.15625 1.0249 1.59262 1.0249 2.13998V11.6568C1.0249 12.208 1.44783 12.6399 1.96181 12.6399H11.4432C11.926 13.0495 12.5449 13.2962 13.212 13.2962C14.7737 13.2962 16.0245 11.9708 16.0245 10.3437C16.0245 9.81757 15.8936 9.32122 15.6626 8.89277L16.2461 8.28011C16.444 8.07184 16.3009 7.70984 16.0148 7.71935C15.9337 7.72184 15.8619 7.75383 15.8054 7.81484L15.2909 8.35317C14.7761 7.76064 14.0335 7.39123 13.212 7.39123V2.13998C13.212 1.60031 12.797 1.15625 12.2757 1.15625H1.96181ZM1.96181 1.81314H5.39875V4.7656C5.39863 5.01925 5.66093 5.17714 5.86934 5.04887L7.11997 4.29329L8.36999 5.04887C8.57799 5.17491 8.83805 5.01774 8.83875 4.7656V1.81314H12.2757C12.4542 1.81314 12.587 1.9615 12.587 2.13998V7.46493C11.3276 7.76734 10.4 8.94261 10.4 10.3437C10.4 10.95 10.5735 11.5141 10.8737 11.9837H1.96181C1.7906 11.9837 1.65052 11.8443 1.65052 11.6568V2.13998C1.65052 1.95893 1.78328 1.81314 1.96181 1.81314ZM6.02377 1.81314H8.21313V4.19844L7.27439 3.63191C7.17801 3.57375 7.05949 3.57375 6.96311 3.63191L6.02377 4.19844V1.81314ZM13.212 8.04747C13.865 8.04747 14.4478 8.34644 14.8477 8.81972L13.212 10.5353L12.1835 9.45481C11.8796 9.15874 11.4596 9.59581 11.7404 9.92008L12.991 11.2326C13.1131 11.3611 13.3114 11.3611 13.4335 11.2326L15.1975 9.38111C15.3259 9.67388 15.3989 9.99906 15.3989 10.3437C15.3989 11.6161 14.4189 12.6399 13.212 12.6399C12.0001 12.6399 11.0257 11.6097 11.0257 10.3437C11.0257 9.07898 12.0001 8.04747 13.212 8.04747ZM2.89994 8.70244C2.74345 8.70244 2.58704 8.81194 2.58743 9.0312V10.6718C2.58666 11.1102 3.2132 11.1102 3.21243 10.6718V9.0312C3.21282 8.81199 3.05642 8.70244 2.89994 8.70244ZM4.14996 8.70244C3.99347 8.70244 3.83706 8.81194 3.83745 9.0312V10.6718C3.83667 11.1102 4.46322 11.1102 4.46245 10.6718V9.0312C4.46283 8.81199 4.30644 8.70244 4.14996 8.70244ZM5.39998 8.70244C5.24349 8.70244 5.08708 8.81194 5.08747 9.0312V10.6718C5.08669 11.1102 5.71324 11.1102 5.71247 10.6718V9.0312C5.71285 8.81199 5.55646 8.70244 5.39998 8.70244ZM6.75069 18.3731C7.59242 18.9681 8.47846 19.5669 9.25134 20.0252C10.0242 20.4835 10.713 20.8215 11.1429 20.8436C11.1488 20.8437 11.1535 20.8437 11.1593 20.8436C11.7826 20.8436 12.5898 20.6101 13.3047 20.386C13.6621 20.2739 13.9996 20.1621 14.2758 20.081C14.552 19.9999 14.7506 19.9547 14.8477 19.9547H16.0299C16.059 20.4496 16.4334 20.8436 16.9034 20.8436H18.5367C19.0265 20.8436 19.3819 20.42 19.4156 19.9182L19.7727 14.5971C19.8088 14.058 19.3836 13.6255 18.8938 13.6255H16.9034C16.4031 13.6255 16.0245 14.0622 16.0245 14.5753V14.6093H14.8153L13.4292 13.9863C13.3906 13.969 13.3485 13.9602 13.3065 13.96H8.81548C8.18825 13.96 7.66112 14.4285 7.56241 15.0591L4.98364 13.4903C4.73528 13.3391 4.45965 13.2768 4.19203 13.2961C4.10289 13.3023 4.01447 13.318 3.92839 13.3423C3.58407 13.4395 3.27579 13.6767 3.08487 14.0255C2.7005 14.7276 2.96738 15.5904 3.57895 16.0153C3.57895 16.0153 5.06724 17.183 6.75069 18.3731ZM4.23351 13.9498C4.38052 13.9387 4.53308 13.9721 4.67237 14.0569L7.71136 15.9083C7.93126 16.3068 8.34373 16.5787 8.8155 16.5787H11.9155C12.3323 16.5787 12.3323 15.9218 11.9155 15.9218H8.8155C8.44491 15.9218 8.1673 15.6176 8.1673 15.2707C8.1673 14.9238 8.44491 14.6164 8.8155 14.6164H13.2425L14.631 15.2386C14.6696 15.256 14.7111 15.2654 14.7531 15.2656H16.0245V19.2985H14.8477C14.6574 19.2985 14.3987 19.3629 14.1073 19.4485C13.816 19.5341 13.4791 19.6458 13.1271 19.7561C12.4265 19.9757 11.6903 20.1848 11.1684 20.1848C10.8875 20.1683 10.3068 19.896 9.56075 19.4536C8.81254 19.0099 7.93553 18.4179 7.10162 17.8284C5.43377 16.6494 3.92254 15.468 3.92254 15.468C3.55562 15.1874 3.41762 14.7355 3.62743 14.3523C3.75856 14.1127 3.98852 13.9688 4.23351 13.9498ZM16.9034 14.2825H18.8938C19.0328 14.2825 19.16 14.4035 19.1501 14.551L18.7925 19.8702C18.7789 20.0731 18.6585 20.1874 18.5367 20.1874H16.9034C16.7724 20.1874 16.6495 20.0697 16.6495 19.8945V14.5753C16.6495 14.4001 16.7699 14.2825 16.9034 14.2825ZM17.8537 18.8749C17.6811 18.8749 17.5412 19.0218 17.5412 19.203C17.5412 19.3842 17.6811 19.5311 17.8537 19.5311C18.0263 19.5311 18.1662 19.3842 18.1662 19.203C18.1662 19.0218 18.0263 18.8749 17.8537 18.8749Z" fill="black"/>
</svg>
