<svg width="245" height="246" viewBox="0 0 245 246" fill="none" xmlns="http://www.w3.org/2000/svg">
<g opacity="0.85">
<path d="M73.7247 20.3297H32.2886V63.6996H73.7247V20.3297Z" fill="#E0E0E0"/>
<path d="M70.9185 20.3297H29.4824V63.6996H70.9185V20.3297Z" fill="#EBEBEB"/>
<path d="M65.3502 26.1608H35.0552V57.8687H65.3502V26.1608Z" fill="#FAFAFA"/>
<path d="M35.0554 58.0793C34.8325 58.3989 34.5792 58.6959 34.299 58.9662C33.811 59.4562 33.1278 60.1667 32.347 60.9262C31.5662 61.6857 30.883 62.357 30.395 62.8323C30.1311 63.1073 29.8419 63.3567 29.5312 63.5771C29.7454 63.2565 29.9924 62.9593 30.2681 62.6902C30.7561 62.2002 31.4393 61.4848 32.2201 60.7302C33.0009 59.9756 33.6841 59.2994 34.1965 58.8192C34.455 58.5418 34.743 58.2937 35.0554 58.0793Z" fill="#E0E0E0"/>
<path d="M65.3506 57.9862C65.6604 58.2113 65.948 58.4656 66.2095 58.7457C66.6975 59.2357 67.4051 59.9217 68.1615 60.7057C68.9179 61.4897 69.5815 62.1757 70.0598 62.6657C70.3351 62.9294 70.5835 63.2199 70.8015 63.533C70.4894 63.3128 70.2014 63.0599 69.9427 62.7784C69.4547 62.2884 68.7471 61.6024 67.9907 60.8184C67.2343 60.0344 66.5706 59.3484 66.0923 58.8584C65.8152 58.5947 65.5665 58.3024 65.3506 57.9862Z" fill="#E0E0E0"/>
<path d="M65.2676 26.2441C65.4899 25.9315 65.7433 25.6426 66.024 25.3817C66.512 24.8917 67.1903 24.1812 67.9516 23.4217C68.7129 22.6622 69.4156 21.9909 69.928 21.5156C70.1928 21.2396 70.4837 20.9902 70.7966 20.7708C70.5733 21.081 70.32 21.3682 70.0402 21.6283C69.5522 22.1183 68.8739 22.8337 68.0882 23.5883C67.3025 24.3429 66.6242 25.0191 66.1069 25.4993C65.8529 25.7753 65.5717 26.0249 65.2676 26.2441Z" fill="#E0E0E0"/>
<path d="M34.9724 26.3224C34.6627 26.0974 34.3751 25.843 34.1136 25.5629C33.6256 25.0729 32.9131 24.3869 32.1616 23.6029C31.41 22.8189 30.7366 22.1329 30.2584 21.6429C29.9836 21.3802 29.7366 21.0895 29.5215 20.7756C29.8301 20.9985 30.1161 21.2512 30.3755 21.5302C30.8635 22.0202 31.576 22.7062 32.3275 23.4902C33.079 24.2742 33.7524 24.9602 34.2307 25.4502C34.5079 25.7139 34.7565 26.0063 34.9724 26.3224Z" fill="#E0E0E0"/>
<path d="M65.2672 57.8686C65.2672 57.8686 65.2672 57.8147 65.2672 57.7167C65.2672 57.6187 65.2672 57.4619 65.2672 57.2757C65.2672 56.8788 65.2672 56.2957 65.2672 55.5656C65.2672 54.0662 65.2672 51.8808 65.2672 49.1025C65.2672 43.5508 65.2379 35.6373 65.2135 26.1607L65.316 26.2587H35.1039L35.2162 26.146C35.2162 37.7835 35.2162 48.686 35.2162 57.8539L35.1186 57.7559L57.0005 57.8049L63.1395 57.8343H64.7646H63.1639H57.0395L35.0795 57.8833H34.9819V57.7853C34.9819 48.6027 34.9819 37.6953 34.9819 26.0774V25.9598H35.0991H65.3111H65.4087V26.0627C65.4087 35.5638 65.3697 43.5018 65.3599 49.0927C65.3599 51.8612 65.3599 54.0368 65.3307 55.5313C65.3307 56.2663 65.3307 56.8347 65.3307 57.2218C65.3307 57.408 65.3307 57.5501 65.3307 57.653C65.3307 57.7559 65.2672 57.8686 65.2672 57.8686Z" fill="#E0E0E0"/>
<path d="M43.0486 39.4055C43.0486 39.4055 42.3996 47.2455 50.8566 47.2455C50.8664 43.0658 47.426 39.7583 43.0486 39.4055Z" fill="#EBEBEB"/>
<path d="M58.5429 39.4103C58.5429 39.4103 50.7349 38.7586 50.7349 47.2503C54.8975 47.265 58.1915 43.8056 58.5429 39.4103Z" fill="#EBEBEB"/>
<path d="M50.4907 35.113C50.4907 35.113 44.1028 40.8705 50.8421 47.2552C53.975 43.9232 53.692 38.6949 50.4907 35.113Z" fill="#E0E0E0"/>
<path d="M180.406 179.144C177.828 177.525 174.915 176.52 171.891 176.204C170.5 176.062 168.963 176.101 167.86 176.949C167.732 177.024 167.626 177.133 167.553 177.263C167.481 177.392 167.443 177.539 167.445 177.688C167.514 177.894 167.655 178.068 167.84 178.178C171.305 180.829 176.546 181.167 180.406 179.134" fill="#E0E0E0"/>
<path d="M180.187 178.899C178.215 177.446 176.374 175.821 174.687 174.043C172.993 172.252 171.803 170.042 171.237 167.638C171.09 166.908 171.046 166.075 171.51 165.497C175.902 168.927 179.318 173.381 180.187 178.899Z" fill="#E0E0E0"/>
<path d="M180.362 179.109C179.955 176.706 179.988 174.249 180.46 171.857C181.011 169.491 182.295 167.227 184.31 165.875C185.066 167.653 184.739 169.701 184.208 171.559C183.381 174.437 182.092 177.162 180.391 179.624" fill="#E0E0E0"/>
<path d="M184.656 186.856C182.05 187.175 179.776 188.556 177.824 190.325C175.869 192.117 174.507 194.466 173.92 197.058C176.482 196.901 178.654 195.098 180.225 193.06C181.797 191.021 182.895 188.797 184.617 186.895" fill="#E0E0E0"/>
<path d="M185.593 188.076C184.567 185.458 184.208 182.624 184.549 179.831C184.89 177.038 185.92 174.375 187.545 172.083C189.034 177.389 188.487 183.387 185.593 188.076Z" fill="#E0E0E0"/>
<path d="M191.269 194.868C188.884 194.719 186.508 195.277 184.438 196.475C182.367 197.672 180.693 199.454 179.625 201.6C179.479 201.89 179.352 202.257 179.547 202.517C179.647 202.615 179.77 202.686 179.905 202.725C180.039 202.765 180.181 202.77 180.318 202.742C182.612 202.595 184.647 201.208 186.325 199.631C188.004 198.053 189.468 196.225 191.322 194.863" fill="#E0E0E0"/>
<path d="M191.088 194.5C189.866 190.548 189.792 186.327 190.874 182.334C191.298 180.766 192.016 179.119 193.46 178.384C193.517 178.345 193.582 178.319 193.65 178.307C193.718 178.295 193.788 178.298 193.855 178.316C193.972 178.377 194.06 178.48 194.104 178.605C194.588 179.7 194.797 180.898 194.714 182.093C194.628 183.284 194.445 184.466 194.168 185.626C193.714 187.787 193.475 190.11 192.294 191.972C192.014 192.419 191.763 192.884 191.542 193.363C191.318 193.853 191.318 194.005 191.113 194.383" fill="#E0E0E0"/>
<path d="M206.119 196.749C205.006 192.491 206.187 187.336 208.856 183.848C209.057 183.593 209.315 183.318 209.637 183.358C210.125 183.402 210.257 184.063 210.233 184.558C210.033 188.933 208.607 193.162 206.119 196.759" fill="#E0E0E0"/>
<path d="M207.476 197.675C212.624 199.023 218.529 197.715 222.809 194.544C220.243 193.253 217.312 192.893 214.513 193.525C211.741 194.162 209.208 195.407 207.48 197.675" fill="#E0E0E0"/>
<path d="M208.617 194.843C211.501 190.125 217.025 187.047 222.535 186.768C221.901 189.017 220.056 190.762 217.982 191.82C215.908 192.878 213.59 193.334 211.301 193.78C210.413 193.951 209.193 194.143 208.617 194.843Z" fill="#E0E0E0"/>
<path d="M206.407 181.104C207.188 178.419 207.973 175.714 208.188 172.921C208.403 170.128 208.003 167.222 206.563 164.826C203.869 170.059 203.601 176.169 206.324 181.383" fill="#E0E0E0"/>
<path d="M215.474 176.503C218.621 170.755 225.043 166.168 231.543 165.522C229.035 171.794 222.198 176.635 215.474 176.503Z" fill="#E0E0E0"/>
<path d="M213.493 177.63C218.187 178.345 222.189 181.358 226.576 183.181C227.495 183.629 228.515 183.825 229.533 183.75C230.008 183.747 230.471 183.598 230.858 183.323C231.246 183.047 231.54 182.658 231.7 182.209C231.86 181.76 231.878 181.273 231.752 180.813C231.627 180.353 231.363 179.943 230.997 179.639C230.375 179.063 229.645 178.618 228.85 178.33C224.068 176.331 218.944 176.282 213.907 177.492" fill="#E0E0E0"/>
<path d="M210.774 180.937C211.838 181.241 212.199 181.795 213.044 182.515C215.914 184.964 219.309 186.715 222.965 187.63C223.345 187.724 223.838 187.763 224.028 187.42C224.219 187.077 223.985 186.753 223.77 186.489C222.176 184.611 220.108 183.199 217.782 182.402C215.488 181.55 213.507 180.516 210.774 180.736" fill="#E0E0E0"/>
<path d="M207.705 160.96C209.632 162.74 211.909 164.096 214.389 164.94C216.869 165.784 219.498 166.097 222.106 165.86C222.345 165.865 222.578 165.781 222.76 165.625C223.121 165.228 222.687 164.615 222.272 164.287C218.036 160.974 212.912 159.598 207.71 160.94" fill="#E0E0E0"/>
<path d="M211.34 159.627C213.889 157.743 216.846 156.491 219.968 155.973C223.091 155.455 226.292 155.686 229.308 156.648C227.044 158.887 223.906 160.078 220.744 160.421C217.587 160.711 214.404 160.442 211.34 159.627Z" fill="#E0E0E0"/>
<path d="M209.896 150.449C209.481 146.206 209.75 142.859 209.457 138.596C209.457 138.253 209.364 137.846 209.047 137.724C208.603 137.552 208.237 138.096 208.071 138.547C207.456 140.523 207.298 142.614 207.61 144.661C207.922 146.707 208.696 148.655 209.872 150.356" fill="#E0E0E0"/>
<path d="M209.593 150.915C212.458 149.136 214.605 146.818 216.591 144.089C217.972 142.188 219.139 139.914 218.826 137.582C216.874 137.543 215.039 138.616 213.775 140.1C212.571 141.637 211.696 143.407 211.204 145.299C210.642 147.166 210.252 149.082 209.593 150.915Z" fill="#E0E0E0"/>
<path d="M216.469 148.999C222.768 146.656 228.6 143.203 233.691 138.802C231.636 137.969 229.299 138.469 227.225 139.292C222.525 141.198 218.685 144.412 216.381 148.94" fill="#E0E0E0"/>
<path d="M211.526 153.237C214.708 153.585 217.938 153.816 221.091 153.286C224.243 152.757 227.122 151.532 230.016 150.307C230.274 150.228 230.492 150.053 230.626 149.817C230.671 149.682 230.674 149.537 230.635 149.401C230.596 149.264 230.516 149.143 230.407 149.053C230.185 148.875 229.924 148.752 229.645 148.695C226.498 147.808 223.096 148.205 219.998 149.273C217.045 150.279 214.206 151.593 211.526 153.193" fill="#E0E0E0"/>
<path d="M193.372 161.107C191.206 156.697 191.347 151.581 193.216 147.049C194.539 149.068 194.68 151.635 194.456 154.041C194.231 156.447 193.48 158.912 193.441 161.327" fill="#E0E0E0"/>
<path d="M184.706 156.716C181.99 156.681 179.297 157.215 176.799 158.284C174.301 159.353 172.052 160.933 170.197 162.925C172.901 163.351 175.682 162.65 178.142 161.455C180.601 160.259 182.788 158.559 184.974 156.878" fill="#E0E0E0"/>
<path d="M178.884 154.761C176.234 154.546 173.682 154.217 171.134 155.001C168.587 155.785 166.254 157.564 165.234 160.029C167.734 160.23 170.242 159.755 172.496 158.652C174.736 157.549 176.874 156.247 178.884 154.761Z" fill="#E0E0E0"/>
<path d="M187.507 154.849C185.125 153.281 182.675 151.689 179.904 151.037C177.132 150.386 173.911 150.866 171.974 152.968C174.223 154.291 176.946 154.438 179.552 154.438C182.158 154.438 185.35 154.404 187.804 155.276" fill="#E0E0E0"/>
<path d="M187.521 154.977C183.446 150.959 181.904 143.741 183.544 138.253C186.759 143.197 188.165 149.108 187.521 154.977Z" fill="#E0E0E0"/>
<path d="M198.726 143.594C199.497 141.801 200.033 139.919 200.726 138.091C201.354 136.239 202.319 134.519 203.571 133.02C204.847 131.514 206.661 130.571 208.622 130.394C207.994 133.161 206.799 135.766 205.113 138.044C203.427 140.322 201.286 142.222 198.828 143.624" fill="#E0E0E0"/>
<path d="M196.7 145.966C195.427 144.212 193.958 141.825 192.235 140.512C190.513 139.199 188.263 138.405 186.16 138.91C187.25 140.827 188.77 142.463 190.6 143.688C192.43 144.913 194.518 145.693 196.7 145.966Z" fill="#E0E0E0"/>
<path d="M197.105 143.736C196.271 141.61 195.432 139.459 195.095 137.2C194.758 134.941 194.963 132.525 196.115 130.555C198.35 134.799 199.072 139.375 197.218 143.785" fill="#E0E0E0"/>
<path d="M198.745 130.56C200.014 126.351 203.85 123.249 207.993 121.828C208.508 121.619 209.064 121.535 209.618 121.583C209.893 121.615 210.153 121.728 210.365 121.906C210.578 122.085 210.733 122.322 210.813 122.588C210.965 123.303 210.374 123.945 209.837 124.42C206.597 127.197 202.831 129.285 198.765 130.56" fill="#E0E0E0"/>
<path d="M198.794 127.116C198.955 124.406 199.121 121.652 199.999 119.08C200.878 116.507 202.576 114.096 205.04 112.974C205.46 115.713 204.255 118.438 202.8 120.814C201.346 123.191 199.599 125.396 198.726 128.027" fill="#E0E0E0"/>
<path d="M198.726 128.987C197.681 125.92 197.569 122.024 195.744 119.349C194.465 117.482 192.416 116.208 191.313 114.233C190.648 116.13 190.741 118.211 191.572 120.04C192.403 121.85 193.548 123.498 194.953 124.906C196.31 126.376 197.467 127.449 198.726 128.987Z" fill="#E0E0E0"/>
<path d="M198.745 219.309C198.667 219.309 198.594 198.847 198.589 173.616C198.584 148.386 198.643 127.914 198.726 127.914C198.809 127.914 198.877 148.372 198.882 173.616C198.887 198.861 198.828 219.309 198.745 219.309Z" fill="#E0E0E0"/>
<path d="M216.552 158.02C216.307 158.14 216.05 158.237 215.786 158.309L213.678 159.024C211.902 159.632 209.457 160.494 206.807 161.602C204.157 162.709 201.707 163.65 200.297 164.875C199.736 165.348 199.289 165.943 198.989 166.614C198.789 167.104 198.755 167.389 198.726 167.384C198.714 167.312 198.714 167.239 198.726 167.168C198.757 166.965 198.808 166.764 198.877 166.57C199.143 165.857 199.58 165.22 200.151 164.718C201.002 163.996 201.954 163.404 202.976 162.959C204.103 162.43 205.358 161.876 206.685 161.327C209.345 160.235 211.809 159.367 213.605 158.823C214.503 158.544 215.235 158.333 215.747 158.196C216.009 158.112 216.279 158.053 216.552 158.02Z" fill="#E0E0E0"/>
<path d="M222.389 143.624C222.389 143.624 222.325 143.712 222.174 143.854L221.52 144.471L219.08 146.696L210.955 153.963C207.783 156.795 205.045 159.504 203.147 161.543C202.195 162.562 201.444 163.405 200.931 163.993C200.697 164.267 200.502 164.483 200.341 164.669C200.18 164.855 200.131 164.904 200.121 164.894C200.172 164.803 200.23 164.716 200.297 164.635C200.419 164.468 200.599 164.223 200.843 163.919C201.331 163.307 202.058 162.449 202.991 161.401C205.443 158.711 208.036 156.154 210.759 153.742C213.941 150.91 216.84 148.352 218.943 146.539L221.447 144.383L222.135 143.81C222.212 143.738 222.297 143.676 222.389 143.624Z" fill="#E0E0E0"/>
<path d="M207.534 156.844C207.451 156.805 208.11 155.271 208.773 153.326C209.437 151.38 209.749 149.744 209.837 149.758C209.925 149.773 209.725 151.454 209.052 153.424C208.77 154.257 208.444 155.075 208.076 155.874C207.942 156.221 207.76 156.548 207.534 156.844Z" fill="#E0E0E0"/>
<path d="M198.765 169.216C198.582 169.045 198.419 168.854 198.277 168.648L197.023 167.036C195.973 165.669 194.519 163.787 192.889 161.724C191.259 159.661 189.761 157.804 188.678 156.476L187.404 154.894C187.237 154.707 187.09 154.503 186.965 154.286C187.158 154.446 187.335 154.625 187.492 154.82C187.819 155.173 188.282 155.697 188.844 156.349C189.971 157.657 191.498 159.485 193.128 161.553C194.758 163.621 196.193 165.522 197.203 166.918C197.691 167.619 198.106 168.187 198.379 168.589C198.525 168.787 198.654 168.996 198.765 169.216Z" fill="#E0E0E0"/>
<path d="M194.861 164.194C194.812 164.248 193.772 163.003 193.226 161.121C192.918 160.118 192.792 159.068 192.855 158.02H192.982C192.928 158.255 192.884 158.382 192.86 158.377C192.835 158.373 192.835 158.24 192.86 158H192.992C193.053 159.021 193.228 160.032 193.514 161.014C194.036 162.846 194.939 164.145 194.861 164.194Z" fill="#E0E0E0"/>
<path d="M189.844 157.829C189.493 157.559 189.109 157.335 188.702 157.162C187.674 156.854 186.594 156.767 185.53 156.907C184.454 156.991 183.386 157.165 182.339 157.427C181.91 157.565 181.471 157.67 181.026 157.74C181.418 157.507 181.842 157.334 182.285 157.226C183.333 156.899 184.416 156.693 185.511 156.613C186.613 156.466 187.734 156.587 188.78 156.966C189.225 157.119 189.602 157.424 189.844 157.829Z" fill="#E0E0E0"/>
<path d="M188.624 156.285C188.624 156.329 187.961 156.016 186.877 155.643C184.043 154.668 181.007 154.437 178.059 154.972C176.932 155.173 176.249 155.384 176.234 155.335C176.377 155.244 176.533 155.178 176.697 155.139C177.13 154.986 177.572 154.862 178.02 154.766C180.997 154.109 184.101 154.346 186.945 155.447C187.373 155.612 187.79 155.801 188.195 156.016C188.483 156.172 188.634 156.266 188.624 156.285Z" fill="#E0E0E0"/>
<path d="M198.725 149.758C198.647 149.758 198.076 147.798 197.452 145.309C196.827 142.82 196.378 140.806 196.476 140.787C196.573 140.767 197.125 142.747 197.749 145.236C198.374 147.725 198.804 149.739 198.725 149.758Z" fill="#E0E0E0"/>
<path d="M198.809 149.758C198.721 149.788 198.35 148.455 197.393 147.093C196.793 146.288 196.093 145.563 195.31 144.937C195.606 145.011 195.882 145.154 196.115 145.353C196.705 145.788 197.219 146.32 197.632 146.926C198.264 147.751 198.669 148.727 198.809 149.758Z" fill="#E0E0E0"/>
<path d="M198.745 208.416C198.716 208.416 198.652 207.926 198.423 207.054C198.087 205.831 197.631 204.644 197.062 203.511C195.656 200.625 193.094 196.96 189.839 193.295C188.224 191.443 186.662 189.698 185.335 188.027C184.143 186.556 183.064 184.994 182.109 183.358C181.47 182.253 180.927 181.096 180.484 179.898C180.333 179.467 180.226 179.139 180.162 178.918C180.12 178.791 180.094 178.66 180.084 178.526C180.113 178.526 180.26 179.016 180.596 179.83C181.079 181.004 181.646 182.14 182.295 183.23C183.267 184.841 184.355 186.379 185.55 187.831C186.882 189.483 188.448 191.222 190.064 193.074C193.328 196.754 195.885 200.459 197.257 203.399C197.813 204.551 198.243 205.76 198.54 207.005C198.621 207.342 198.682 207.684 198.721 208.029C198.744 208.157 198.752 208.287 198.745 208.416Z" fill="#E0E0E0"/>
<path d="M214.839 190.154C214.568 190.334 214.286 190.498 213.995 190.644C213.232 191.08 212.501 191.571 211.809 192.114C210.784 192.914 209.822 193.794 208.935 194.745C207.924 195.813 206.885 197.058 205.826 198.386C203.708 201.056 201.727 203.418 200.541 205.305C199.936 206.241 199.497 207.03 199.209 207.583C199.076 207.879 198.921 208.164 198.745 208.436C198.759 208.352 198.785 208.271 198.823 208.196C198.887 208.044 198.974 207.814 199.106 207.534C199.479 206.73 199.897 205.948 200.36 205.192C201.517 203.261 203.484 200.865 205.597 198.2C206.66 196.867 207.71 195.622 208.739 194.554C209.642 193.606 210.621 192.734 211.667 191.947C212.378 191.419 213.135 190.955 213.927 190.561C214.205 190.419 214.415 190.33 214.586 190.267C214.662 190.212 214.748 190.174 214.839 190.154Z" fill="#E0E0E0"/>
<path d="M215.152 196.073C214.566 196.205 213.97 196.292 213.371 196.333C211.94 196.482 210.525 196.761 209.145 197.166C207.78 197.613 206.5 198.287 205.358 199.16C204.484 199.841 204.074 200.4 204.035 200.366C204.096 200.213 204.186 200.073 204.299 199.954C204.576 199.598 204.886 199.27 205.226 198.974C206.355 198.03 207.653 197.313 209.052 196.862C210.452 196.446 211.894 196.189 213.351 196.098C213.949 196.034 214.552 196.026 215.152 196.073Z" fill="#E0E0E0"/>
<path d="M204.552 199.719C204.46 199.665 205.265 198.43 205.884 196.779C206.504 195.127 206.607 193.643 206.714 193.657C206.76 193.983 206.75 194.315 206.685 194.637C206.596 195.409 206.421 196.169 206.163 196.901C205.893 197.627 205.546 198.322 205.128 198.974C204.978 199.252 204.783 199.504 204.552 199.719Z" fill="#E0E0E0"/>
<path d="M220.051 174.258C219.96 174.318 219.864 174.368 219.763 174.41L218.924 174.792C218.558 174.949 218.114 175.15 217.611 175.415C217.109 175.679 216.523 175.944 215.908 176.316L214.932 176.87C214.595 177.066 214.259 177.296 213.907 177.517C213.19 177.958 212.473 178.497 211.706 179.041C208.424 181.502 205.56 184.48 203.225 187.861C202.708 188.65 202.195 189.39 201.785 190.125C201.576 190.487 201.356 190.83 201.175 191.173L200.653 192.153C200.307 192.78 200.063 193.378 199.819 193.893C199.575 194.407 199.384 194.873 199.243 195.235L198.892 196.088C198.856 196.191 198.808 196.29 198.75 196.382C198.765 196.274 198.792 196.169 198.833 196.068C198.916 195.838 199.014 195.549 199.136 195.191C199.29 194.728 199.468 194.274 199.667 193.829C199.897 193.305 200.131 192.697 200.468 192.06L200.956 191.051C201.131 190.703 201.346 190.355 201.556 189.982C201.956 189.238 202.464 188.512 202.981 187.694C205.306 184.271 208.194 181.27 211.521 178.82C212.302 178.271 213.029 177.737 213.756 177.306C214.117 177.086 214.454 176.86 214.795 176.669L215.771 176.125C216.391 175.767 216.991 175.508 217.504 175.263C217.939 175.045 218.385 174.851 218.841 174.68L219.705 174.351C219.815 174.304 219.932 174.272 220.051 174.258Z" fill="#E0E0E0"/>
<path d="M207.314 182.824C207.434 182.412 207.678 182.047 208.012 181.78C208.796 181.093 209.797 180.707 210.838 180.692C211.856 180.685 212.865 180.883 213.805 181.275C214.203 181.402 214.581 181.585 214.927 181.819C214.527 181.739 214.134 181.621 213.756 181.466C212.824 181.146 211.847 180.981 210.862 180.976C209.886 180.997 208.943 181.33 208.168 181.927C207.863 182.205 207.578 182.505 207.314 182.824Z" fill="#E0E0E0"/>
<path d="M205.411 184.798C205.328 184.754 206.046 183.696 206.212 182.182C206.378 180.668 205.943 179.472 206.031 179.447C206.119 179.423 206.226 179.712 206.363 180.212C206.711 181.529 206.549 182.93 205.909 184.132C205.66 184.583 205.46 184.818 205.411 184.798Z" fill="#E0E0E0"/>
<path d="M184.671 211.356C185.111 219.196 187.458 227.129 191.069 235.17H206.763C210.208 227.183 212.39 219.245 212.78 211.356H184.671Z" fill="#E0E0E0"/>
<path d="M210.238 223.984C210.238 224.067 205.07 224.135 198.692 224.135C192.313 224.135 187.15 224.067 187.15 223.984C187.15 223.9 192.318 223.837 198.692 223.837C205.065 223.837 210.238 223.905 210.238 223.984Z" fill="#FAFAFA"/>
<path d="M209.886 226.816C209.886 226.899 205.04 226.968 199.067 226.968C193.094 226.968 188.243 226.899 188.243 226.816C188.243 226.732 193.089 226.669 199.067 226.669C205.045 226.669 209.886 226.737 209.886 226.816Z" fill="#FAFAFA"/>
<path d="M191.308 216.467C191.503 218.884 191.503 221.312 191.308 223.729C191.225 223.729 191.162 222.102 191.162 220.098C191.162 218.094 191.24 216.467 191.308 216.467Z" fill="#FAFAFA"/>
<path d="M199.731 216.467C199.814 216.467 199.877 218.148 199.877 220.225C199.877 222.303 199.814 223.984 199.731 223.984C199.648 223.984 199.584 222.303 199.584 220.225C199.584 218.148 199.648 216.467 199.731 216.467Z" fill="#FAFAFA"/>
<path d="M207.627 216.403C207.71 216.403 207.773 218.118 207.773 220.235C207.773 222.352 207.71 224.072 207.627 224.072C207.544 224.072 207.48 222.357 207.48 220.235C207.48 218.113 207.544 216.403 207.627 216.403Z" fill="#FAFAFA"/>
<path d="M212.292 216.467C212.292 216.55 206.231 216.614 198.755 216.614C191.279 216.614 185.218 216.55 185.218 216.467C185.218 216.384 191.274 216.32 198.755 216.32C206.236 216.32 212.292 216.384 212.292 216.467Z" fill="#FAFAFA"/>
<path d="M203.859 138.459H25.9932V143.962H203.859V138.459Z" fill="#EBEBEB"/>
<path d="M41.38 143.285L28.0527 235.146H30.9124L47.3483 143.962L41.38 143.285Z" fill="#EBEBEB"/>
<path d="M191.298 142.702L205.358 235.146H202.503L185.325 143.545L191.298 142.702Z" fill="#EBEBEB"/>
<path d="M32.7469 116.296V128.683H30.6875V130.016H32.7469V138.307H71.2598V130.761H68.4099V129.115H71.2598V126.665H72.5286V125.547H71.0158V116.296H32.7469Z" fill="#F5F5F5"/>
<path d="M61.0269 116.316V138.165H71.2505V130.624H68.4005V129.12L71.2505 129.169V126.704H72.5437L72.5193 125.43L71.0162 125.396V116.282L61.0269 116.316Z" fill="#E0E0E0"/>
<path d="M61.754 129.835C61.754 129.913 54.7903 129.972 46.1966 129.972C37.6029 129.972 30.6343 129.913 30.6343 129.835C30.6343 129.757 37.6029 129.698 46.1966 129.698C54.7903 129.698 61.754 129.761 61.754 129.835Z" fill="#E0E0E0"/>
<path d="M61.754 128.576C61.754 128.654 54.7903 128.713 46.1966 128.713C37.6029 128.713 30.6343 128.654 30.6343 128.576C30.6343 128.497 37.6029 128.438 46.1966 128.438C54.7903 128.438 61.754 128.502 61.754 128.576Z" fill="#E0E0E0"/>
<path d="M63.7545 125.19C63.7545 125.268 56.7859 125.327 48.1971 125.327C39.6083 125.327 32.6348 125.268 32.6348 125.19C32.6348 125.111 39.5985 125.053 48.1971 125.053C56.7956 125.053 63.7545 125.116 63.7545 125.19Z" fill="#E0E0E0"/>
<path d="M63.9401 134.426C63.9401 134.505 56.9763 134.568 48.3826 134.568C39.789 134.568 32.8203 134.505 32.8203 134.426C32.8203 134.348 39.7841 134.289 48.3826 134.289C56.9812 134.289 63.9401 134.343 63.9401 134.426Z" fill="#E0E0E0"/>
<path d="M74.105 107.986H67.3901V116.002H74.105V107.986Z" fill="#F5F5F5"/>
<path d="M67.6197 107.462H37.2759V116.502H67.6197V107.462Z" fill="#E0E0E0"/>
<path d="M74.3053 108.226H66.8047V107.476H74.3053C74.4062 107.476 74.503 107.517 74.5744 107.588C74.6458 107.66 74.6859 107.757 74.6859 107.859C74.6821 107.957 74.6403 108.051 74.5694 108.119C74.4984 108.188 74.4037 108.226 74.3053 108.226Z" fill="#E0E0E0"/>
<path d="M74.3053 116.507H66.8047V115.743H74.3053C74.4062 115.743 74.503 115.783 74.5744 115.854C74.6458 115.926 74.6859 116.023 74.6859 116.125C74.6859 116.226 74.6458 116.323 74.5744 116.395C74.503 116.467 74.4062 116.507 74.3053 116.507Z" fill="#E0E0E0"/>
<path d="M65.2382 107.462H61.6514V116.502H65.2382V107.462Z" fill="#EBEBEB"/>
<path d="M43.7513 107.564H40.1646V116.605H43.7513V107.564Z" fill="#EBEBEB"/>
<path d="M74.1051 109.314C74.1051 109.314 72.6411 109.353 70.8599 109.353C69.0787 109.353 67.6099 109.353 67.6099 109.314C67.6099 109.275 69.0739 109.27 70.8599 109.27C72.646 109.27 74.1051 109.289 74.1051 109.314Z" fill="#E0E0E0"/>
<path d="M74.1051 110.514C74.1051 110.514 72.6411 110.553 70.8599 110.553C69.0787 110.553 67.6099 110.553 67.6099 110.514C67.6099 110.475 69.0739 110.475 70.8599 110.475C72.646 110.475 74.1051 110.49 74.1051 110.514Z" fill="#E0E0E0"/>
<path d="M74.1051 111.994C74.1051 111.994 72.6411 112.033 70.8599 112.033C69.0787 112.033 67.6099 112.033 67.6099 111.994C67.6099 111.955 69.0739 111.955 70.8599 111.955C72.646 111.955 74.1051 111.97 74.1051 111.994Z" fill="#E0E0E0"/>
<path d="M74.1051 113.474C74.1051 113.474 72.6411 113.513 70.8599 113.513C69.0787 113.513 67.6099 113.513 67.6099 113.474C67.6099 113.435 69.0739 113.435 70.8599 113.435C72.646 113.435 74.1051 113.449 74.1051 113.474Z" fill="#E0E0E0"/>
<path d="M74.1051 114.954C74.1051 114.954 72.6411 114.993 70.8599 114.993C69.0787 114.993 67.6099 114.993 67.6099 114.954C67.6099 114.914 69.0739 114.914 70.8599 114.914C72.646 114.914 74.1051 114.929 74.1051 114.954Z" fill="#E0E0E0"/>
<path d="M59.7187 111.181H46.0693V112.807H59.7187V111.181Z" fill="#EBEBEB"/>
<path d="M61.2464 98.6857L65.0235 107.594H62.5933L60.9146 102.836L61.2464 98.6857Z" fill="#E0E0E0"/>
<path d="M49.6515 90.63L48.1924 107.594H60.5339L61.8905 90.63H49.6515Z" fill="#EBEBEB"/>
<path d="M50.8567 91.9727L49.5781 106.183L58.8452 106.305L60.0945 91.8894L50.8567 91.9727Z" fill="#FAFAFA"/>
<path d="M52.8233 93.9425L52.0962 103.718H57.0396L57.9083 93.9425H52.8233Z" fill="#E0E0E0"/>
<path d="M194.647 27.5749L190.084 27.5997L190.207 50.3991L194.77 50.3743L194.647 27.5749Z" fill="#E0E0E0"/>
<path d="M162.367 27.6328L150.547 27.697L150.615 40.2849L162.434 40.2207L162.367 27.6328Z" fill="#EBEBEB"/>
<path d="M174.127 27.5739L162.308 27.6381L162.375 40.226L174.195 40.1618L174.127 27.5739Z" fill="#F5F5F5"/>
<path d="M150.565 31.1833C158.417 31.2519 166.293 31.1833 174.145 31.0755C174.174 31.0697 174.2 31.0541 174.218 31.0313C174.237 31.0085 174.247 30.98 174.247 30.9505C174.247 30.921 174.237 30.8925 174.218 30.8697C174.2 30.8469 174.174 30.8313 174.145 30.8256C166.295 30.7798 158.436 30.8272 150.57 30.9677C150.541 30.9677 150.514 30.979 150.494 30.9992C150.474 31.0195 150.462 31.0469 150.462 31.0755C150.462 31.1041 150.474 31.1315 150.494 31.1517C150.514 31.1719 150.541 31.1833 150.57 31.1833H150.565Z" fill="#E0E0E0"/>
<path d="M164.654 40.0173L143.182 40.1339L143.237 50.3895L164.709 50.2728L164.654 40.0173Z" fill="#EBEBEB"/>
<path d="M186.022 39.8963L164.551 40.0129L164.606 50.2685L186.078 50.1518L186.022 39.8963Z" fill="#F5F5F5"/>
<path d="M143.191 42.9923C157.456 43.154 171.769 42.9923 186.033 42.7816C186.067 42.7816 186.099 42.7682 186.123 42.7443C186.146 42.7204 186.16 42.688 186.16 42.6542C186.16 42.6204 186.146 42.588 186.123 42.5641C186.099 42.5402 186.067 42.5268 186.033 42.5268C171.769 42.4533 157.451 42.4582 143.191 42.7767C143.163 42.7767 143.136 42.7881 143.115 42.8083C143.095 42.8285 143.084 42.8559 143.084 42.8845C143.084 42.9131 143.095 42.9405 143.115 42.9607C143.136 42.981 143.163 42.9923 143.191 42.9923Z" fill="#E0E0E0"/>
<path d="M218.348 50.3961H135.164V54.0711H218.348V50.3961Z" fill="#E0E0E0"/>
<path d="M152.161 52.165H148.784V64.7041H152.161V52.165Z" fill="#E0E0E0"/>
<path d="M202.571 52.165H199.194V64.7041H202.571V52.165Z" fill="#E0E0E0"/>
<path d="M199.095 19.0737L194.533 19.0985L194.702 50.458L199.264 50.4333L199.095 19.0737Z" fill="#EBEBEB"/>
<path d="M206.227 24.915L199.137 24.9535L199.274 50.3645L206.364 50.326L206.227 24.915Z" fill="#F5F5F5"/>
<path d="M206.182 29.8161C205.004 29.9388 203.819 29.9798 202.635 29.9386C201.452 29.9799 200.269 29.9389 199.092 29.8161C201.453 29.6528 203.822 29.6528 206.182 29.8161Z" fill="#E0E0E0"/>
<path d="M206.182 28.748C205.004 28.8707 203.819 28.9116 202.635 28.8705C201.452 28.9117 200.269 28.8708 199.092 28.748C201.453 28.5847 203.822 28.5847 206.182 28.748Z" fill="#E0E0E0"/>
<path d="M206.182 46.5104C203.822 46.6738 201.453 46.6738 199.092 46.5104C201.453 46.3471 203.822 46.3471 206.182 46.5104Z" fill="#E0E0E0"/>
<path d="M206.182 45.4422C203.822 45.6055 201.453 45.6055 199.092 45.4422C201.453 45.2789 203.822 45.2789 206.182 45.4422Z" fill="#E0E0E0"/>
<path d="M202.752 43.1148C202.684 43.1148 202.625 40.5521 202.625 37.3867C202.625 34.2213 202.684 31.6635 202.752 31.6635C202.82 31.6635 202.874 34.2262 202.874 37.3867C202.874 40.5472 202.815 43.1148 202.752 43.1148Z" fill="#E0E0E0"/>
<path d="M213.976 31.1637H206.255V50.3472H213.976V31.1637Z" fill="#EBEBEB"/>
<path d="M198.062 24.436C198.063 24.6969 197.987 24.9522 197.843 25.1696C197.699 25.387 197.495 25.5567 197.255 25.6573C197.015 25.7578 196.751 25.7846 196.496 25.7343C196.241 25.684 196.007 25.5588 195.823 25.3747C195.639 25.1905 195.513 24.9557 195.462 24.6999C195.411 24.444 195.437 24.1788 195.536 23.9376C195.635 23.6965 195.803 23.4903 196.019 23.3453C196.235 23.2002 196.489 23.1228 196.749 23.1228C197.097 23.1228 197.43 23.261 197.676 23.5071C197.922 23.7533 198.061 24.0873 198.062 24.436Z" fill="#E0E0E0"/>
<path d="M197.154 28.062H196.344V46.7163H197.154V28.062Z" fill="#E0E0E0"/>
<path d="M224.907 235.146C224.907 235.214 179.035 235.273 122.505 235.273C65.975 235.273 20.0933 235.214 20.0933 235.146C20.0933 235.077 65.936 235.018 122.505 235.018C179.074 235.018 224.907 235.072 224.907 235.146Z" fill="#263238"/>
<path d="M121.666 173.073L141.786 235.146H138.121L114.551 173.073H121.666Z" fill="#E0E0E0"/>
<path d="M121.666 173.073H121.178H119.811L114.531 173.102L114.58 173.028C118.621 183.598 127.331 206.456 137.423 232.916C137.697 233.641 137.97 234.386 138.243 235.077L138.126 234.999H141.786L141.664 235.165C136.047 217.765 131.035 202.257 127.429 191.095C125.633 185.504 124.189 181.006 123.193 177.894C122.705 176.341 122.315 175.135 122.051 174.312L121.759 173.376C121.695 173.166 121.666 173.053 121.666 173.053C121.666 173.053 121.705 173.151 121.773 173.357L122.081 174.273C122.349 175.091 122.744 176.282 123.252 177.821C124.267 180.922 125.731 185.406 127.556 190.972C131.192 202.149 136.242 217.672 141.903 235.072L141.957 235.239H138.053L138.019 235.156C137.75 234.44 137.472 233.72 137.199 232.995C127.17 206.495 118.508 183.612 114.512 173.058V172.984H114.59L119.899 173.014H121.251C121.524 173.063 121.666 173.073 121.666 173.073Z" fill="#263238"/>
<path d="M82.0695 173.073L61.9492 235.146H65.6092L89.1845 173.073H82.0695Z" fill="#E0E0E0"/>
<path d="M82.0694 173.072C82.0694 173.072 82.2206 173.072 82.5232 173.072H83.875L89.1844 173.043H89.2625L89.2332 173.117C85.2414 183.671 76.5794 206.554 66.551 233.053L65.7263 235.214L65.697 235.298H61.793L61.8466 235.131L76.1987 191.031L80.5029 177.879C80.9909 176.341 81.4057 175.15 81.6741 174.332L81.9815 173.415C82.0499 173.21 82.0889 173.112 82.0889 173.112C82.0889 173.112 82.0596 173.224 81.9962 173.435L81.7034 174.371C81.4398 175.194 81.0543 176.4 80.5614 177.953C79.561 181.064 78.1215 185.563 76.3256 191.153C72.7144 202.316 67.7075 217.824 62.0906 235.224L61.9686 235.057H65.6287L65.5115 235.136L66.3314 232.975C76.4232 206.515 85.134 183.637 89.1503 173.092L89.2039 173.166L83.9189 173.136H82.5574L82.0694 173.072Z" fill="#263238"/>
<path d="M115.068 174.435C114.958 174.529 114.84 174.614 114.717 174.69L113.682 175.375L109.871 177.884C106.655 180.011 102.219 182.961 97.3438 186.244L84.8608 194.696L81.0739 197.249L80.0442 197.906C79.928 197.992 79.8038 198.068 79.6733 198.131C79.7808 198.035 79.8949 197.946 80.0149 197.866L81.0202 197.146L84.7632 194.53C87.9303 192.334 92.3272 189.321 97.2072 186.038C102.087 182.755 106.533 179.825 109.778 177.737C111.398 176.699 112.706 175.861 113.633 175.287L114.692 174.64C114.812 174.562 114.938 174.494 115.068 174.435Z" fill="#263238"/>
<path d="M76.467 106.898C76.467 106.898 70.1621 107.55 69.2446 111.362C68.3272 115.174 65.3406 162.322 69.2446 169.001C73.1486 175.679 123.413 174.748 126.902 173.832C130.391 172.916 132.036 170.642 131.679 167.864C131.323 165.086 97.0948 161.641 97.0948 161.641L99.1834 112.435C99.1834 112.435 86.8761 106.212 76.467 106.898Z" fill="#263238"/>
<path d="M131.709 169.055H131.557H131.108L129.386 169.099C127.888 169.138 125.721 169.157 123.042 169.153C117.674 169.153 110.281 168.966 102.126 168.378C98.0514 168.079 94.1718 167.702 90.6533 167.3C87.1348 166.899 83.9726 166.458 81.3276 166.041C80.0002 165.845 78.8095 165.634 77.7603 165.458C76.7111 165.282 75.8083 165.12 75.0714 164.968L73.3781 164.64L72.9389 164.551L72.7925 164.512C72.8427 164.506 72.8935 164.506 72.9438 164.512L73.3878 164.576L75.091 164.855C75.8278 164.983 76.7306 165.135 77.7847 165.291C78.8388 165.448 80.0295 165.654 81.352 165.835C84.0018 166.232 87.1641 166.639 90.6777 167.041C94.1913 167.442 98.0709 167.8 102.146 168.099C110.295 168.687 117.688 168.888 123.042 168.947C125.716 168.976 127.883 168.981 129.386 168.976H131.562L131.709 169.055Z" fill="#455A64"/>
<path d="M124.33 198.827C124.291 198.886 116.327 193.265 106.548 186.283C96.7681 179.3 88.8674 173.582 88.9064 173.543C88.9454 173.504 96.9096 179.104 106.694 186.092C116.478 193.079 124.369 198.768 124.33 198.827Z" fill="#263238"/>
<path d="M80.9227 64.567L76.8967 57.4473C79.3832 53.3934 80.2698 48.5523 79.382 43.8755C78.4942 39.1987 75.8963 35.0245 72.099 32.1733C68.3017 29.3221 63.5796 28.0002 58.8609 28.4675C54.1422 28.9347 49.7682 31.1573 46.5987 34.6983C43.4292 38.2394 41.6934 42.8428 41.7326 47.6036C41.7717 52.3644 43.5829 56.9384 46.8102 60.4265C50.0375 63.9145 54.4474 66.0643 59.1731 66.4533C63.8989 66.8422 68.5986 65.4423 72.3485 62.5286L80.9227 64.567Z" fill="white"/>
<path d="M80.9226 64.5669L72.324 62.6069H72.2069L72.2801 62.5089L72.3875 62.6167C69.7442 64.6904 66.6002 66.0228 63.2765 66.4779C62.2811 66.6199 61.2751 66.6724 60.2704 66.6347C59.7532 66.6053 59.2261 66.5906 58.6942 66.5465L57.0887 66.3064C52.3044 65.3638 48.0572 62.6271 45.2108 58.6526C43.63 56.4604 42.5336 53.9545 41.9948 51.3026C41.4481 48.4898 41.5248 45.5906 42.2193 42.8109C42.9382 39.9097 44.335 37.2222 46.2941 34.9709C48.2831 32.6601 50.7926 30.8593 53.6141 29.7181C56.3205 28.645 59.2323 28.1963 62.1346 28.4049C64.8754 28.5947 67.5411 29.3877 69.9426 30.7275C74.2586 33.1247 77.4937 37.0939 78.9804 41.8162C79.5661 43.8319 79.8442 45.9251 79.8051 48.0245C79.7016 51.3732 78.7202 54.6353 76.96 57.4815V57.4031L80.9226 64.562C80.6591 64.1112 79.4196 61.9601 76.8332 57.4766V57.4423V57.4031C78.5555 54.5702 79.5063 51.3327 79.5904 48.0147C79.6222 45.9421 79.3392 43.8767 78.751 41.8897C77.2819 37.2215 74.088 33.2955 69.8255 30.9186C67.456 29.6022 64.8268 28.826 62.1248 28.645C59.267 28.4413 56.4001 28.8851 53.7361 29.9435C50.9595 31.0687 48.4903 32.8425 46.5332 35.1179C44.6033 37.335 43.2281 39.9824 42.5219 42.8403C41.8332 45.5758 41.7548 48.4303 42.2925 51.1997C42.8142 53.8233 43.8891 56.3043 45.445 58.4762C48.2468 62.4067 52.4349 65.1174 57.157 66.0565L58.743 66.3015C59.27 66.3456 59.7873 66.3603 60.2997 66.3946C61.2926 66.4346 62.287 66.3871 63.2716 66.2525C66.5647 65.8161 69.6852 64.5165 72.3192 62.4844L72.8072 62.1169L72.4412 62.6069L72.3972 62.4893L80.9226 64.5669Z" fill="#263238"/>
<path d="M57.4839 44.9179H58.6844L61.3 41.2527V38.8468C61.3 38.8468 63.1544 38.7341 62.9397 41.8799C62.725 45.0257 62.9397 44.227 62.9397 44.227C62.9397 44.227 66.8779 44.227 67.2048 44.5896C67.444 44.8346 67.5513 48.7644 67.5904 50.891C67.6176 51.405 67.4723 51.9132 67.1776 52.3343C66.883 52.7555 66.4561 53.0651 65.9653 53.2136C65.8271 53.2524 65.6843 53.2721 65.5408 53.2724C64.5648 53.2724 59.5432 52.4688 59.5432 52.4688H57.4692L57.4839 44.9179Z" fill="#A7004D"/>
<path d="M54.0483 44.2563L54.7901 52.4932H56.8446V44.4229L54.0483 44.2563Z" fill="#A7004D"/>
<path d="M156.841 148.636C156.841 148.636 168.133 148.636 168.597 159.201C169.061 169.765 135.725 225.498 135.725 225.498L125.17 220.465L147.803 166.384L98.6909 161.533L100.082 149.126L156.841 148.636Z" fill="#FFBE9D"/>
<path d="M137.955 222.283L137.628 223.033C137.628 223.033 147.974 233.715 147.047 236.175L122.105 224.905L126.18 216.722C129.113 220.127 132.909 222.077 137.955 222.283Z" fill="#455A64"/>
<g opacity="0.6">
<path d="M127.512 220.534C127.239 220.5 126.963 220.567 126.736 220.723C126.51 220.879 126.348 221.114 126.282 221.382C126.237 221.654 126.298 221.934 126.452 222.163C126.607 222.392 126.843 222.552 127.112 222.612C127.401 222.647 127.692 222.574 127.931 222.407C128.17 222.24 128.339 221.99 128.405 221.705C128.424 221.416 128.33 221.131 128.143 220.911C127.957 220.69 127.692 220.552 127.405 220.524" fill="white"/>
</g>
<g opacity="0.6">
<path d="M122.105 224.91L123.081 222.95L146.627 234.47C146.627 234.47 147.52 235.45 147.042 236.185L122.105 224.91Z" fill="white"/>
</g>
<path d="M137.682 223.141C137.624 223.258 136.989 223.043 136.218 223.165C135.447 223.288 134.891 223.655 134.798 223.557C134.705 223.459 135.208 222.832 136.15 222.7C137.092 222.567 137.76 223.038 137.682 223.141Z" fill="#263238"/>
<path d="M139.814 225.409C139.79 225.537 139.165 225.507 138.521 225.841C137.877 226.174 137.511 226.664 137.394 226.605C137.277 226.546 137.506 225.816 138.316 225.419C139.126 225.022 139.863 225.292 139.814 225.409Z" fill="#263238"/>
<path d="M139.892 229.222C139.77 229.222 139.892 228.511 140.483 227.982C141.073 227.453 141.786 227.448 141.791 227.57C141.796 227.693 141.303 227.894 140.815 228.335C140.327 228.776 140.019 229.266 139.892 229.222Z" fill="#263238"/>
<path d="M135.476 108.804L137.482 114.963L126.546 115.821L125.272 112.523L135.476 108.804Z" fill="#FFBE9D"/>
<path d="M166.528 116.884C166.738 117.306 167.284 117.374 167.704 117.595C168.095 117.82 168.415 118.15 168.628 118.548C168.841 118.947 168.939 119.397 168.909 119.849C168.839 120.751 168.542 121.621 168.045 122.377C167.893 122.684 167.671 122.951 167.396 123.156C167.257 123.253 167.092 123.305 166.923 123.305C166.754 123.305 166.589 123.253 166.45 123.156C166.128 122.887 166.167 122.387 166.235 121.97C166.494 120.407 166.157 118.433 166.523 116.889" fill="#FFBE9D"/>
<path d="M93.796 39.6554C93.7033 38.9682 93.8704 38.2712 94.2642 37.7016C94.6581 37.132 95.2501 36.7312 95.9237 36.5782L107.997 28.8656C112.599 27.8268 118.396 35.5443 119.221 40.1993C120.054 45.3156 120.381 50.5022 120.197 55.6833C119.865 63.6507 114.663 64.5033 114.663 64.5033L118.567 90.9976L99.7545 79.3503L93.796 39.6554Z" fill="#FFBE9D"/>
<path d="M116.713 46.8094C116.745 47.0699 116.675 47.3329 116.517 47.5424C116.359 47.7519 116.127 47.8914 115.868 47.9315C115.614 47.9787 115.351 47.9227 115.138 47.7757C114.925 47.6287 114.779 47.4028 114.731 47.1475C114.699 46.8869 114.769 46.624 114.927 46.4145C115.084 46.205 115.317 46.0654 115.576 46.0254C115.83 45.9781 116.092 46.0342 116.306 46.1812C116.519 46.3282 116.665 46.5541 116.713 46.8094Z" fill="#263238"/>
<path d="M118.264 43.9478C118.167 44.0556 117.367 44.0409 116.356 44.4378C115.346 44.8347 114.678 45.3639 114.551 45.3345C114.424 45.3051 114.551 45.163 114.858 44.918C115.282 44.5702 115.762 44.2984 116.278 44.1144C116.77 43.9242 117.293 43.8262 117.82 43.8253C118.172 43.8155 118.313 43.8988 118.264 43.9478Z" fill="#263238"/>
<path d="M106.719 47.2945C106.749 47.5556 106.678 47.8185 106.52 48.0278C106.361 48.2371 106.128 48.3765 105.869 48.4166C105.616 48.4624 105.355 48.4057 105.142 48.2588C104.93 48.112 104.785 47.8869 104.737 47.6326C104.704 47.3718 104.773 47.1083 104.931 46.8985C105.089 46.6887 105.323 46.5494 105.581 46.5105C105.836 46.4633 106.098 46.5193 106.312 46.6663C106.525 46.8133 106.671 47.0392 106.719 47.2945Z" fill="#263238"/>
<path d="M107.768 46.0009C107.621 46.0597 106.87 45.6089 105.704 45.4374C104.537 45.2659 103.625 45.4374 103.512 45.359C103.4 45.2806 103.625 45.1973 104 45.1042C104.586 44.9875 105.187 44.9759 105.777 45.0699C106.348 45.1484 106.899 45.3346 107.402 45.6187C107.748 45.8196 107.86 45.9764 107.768 46.0009Z" fill="#263238"/>
<path d="M112.531 52.6648C113.075 52.4173 113.649 52.2411 114.239 52.1405C114.507 52.0817 114.761 51.9984 114.785 51.8024C114.776 51.5152 114.679 51.2379 114.507 51.0086C114.182 50.3553 113.83 49.6872 113.453 49.0045C111.989 46.1478 110.876 43.786 111.013 43.7272C111.149 43.6684 112.418 45.9371 113.892 48.7938L114.912 50.8126C115.124 51.1258 115.219 51.5041 115.18 51.8808C115.151 51.9825 115.1 52.0764 115.03 52.1553C114.96 52.2342 114.873 52.2962 114.775 52.3365C114.628 52.3945 114.474 52.434 114.317 52.4541C113.732 52.5989 113.132 52.6697 112.531 52.6648Z" fill="#263238"/>
<path d="M114.658 64.5229C111.013 65.064 107.29 64.5542 103.922 63.0529C103.922 63.0529 107.128 68.5605 114.838 66.9141L114.658 64.5229Z" fill="#EB996E"/>
<path d="M112.653 55.306C112.39 54.9627 112.054 54.6829 111.67 54.487C111.286 54.2911 110.863 54.1842 110.432 54.1741C110.183 54.1793 109.941 54.2603 109.739 54.4064C109.537 54.5526 109.384 54.7569 109.3 54.9924C109.216 55.2966 109.206 55.6167 109.271 55.9255C109.337 56.2344 109.475 56.5228 109.676 56.7662C109.872 57.0237 110.14 57.218 110.445 57.325C110.75 57.4321 111.08 57.4474 111.393 57.3689C111.903 57.158 112.336 56.7976 112.638 56.335C112.747 56.2172 112.826 56.0741 112.867 55.9185C112.885 55.8203 112.881 55.7193 112.856 55.6228C112.831 55.5263 112.785 55.4365 112.721 55.3599" fill="#EB996E"/>
<path d="M109.451 53.7821C109.627 53.7478 109.764 54.9189 110.857 55.6343C111.95 56.3497 113.18 56.0753 113.209 56.237C113.209 56.3105 112.96 56.4967 112.433 56.5751C111.752 56.6643 111.061 56.5099 110.481 56.139C109.925 55.7799 109.529 55.2176 109.378 54.571C109.276 54.0663 109.373 53.7821 109.451 53.7821Z" fill="#263238"/>
<path d="M108.109 41.1841C108.007 41.4781 106.923 41.3556 105.669 41.532C104.415 41.7084 103.38 42.0661 103.205 41.8064C103.127 41.679 103.302 41.3997 103.693 41.1057C104.238 40.7439 104.859 40.5117 105.508 40.4268C106.156 40.3419 106.816 40.4065 107.436 40.6157C107.914 40.8362 108.153 41.042 108.109 41.1841Z" fill="#263238"/>
<path d="M118.323 41.532C118.113 41.8015 117.166 41.6545 116.058 41.7672C114.951 41.8799 114.033 42.1641 113.789 41.9289C113.677 41.8162 113.789 41.5516 114.185 41.2772C114.722 40.9315 115.334 40.7215 115.97 40.6651C116.606 40.6088 117.246 40.7079 117.835 40.9538C118.254 41.1645 118.411 41.3997 118.323 41.532Z" fill="#263238"/>
<path d="M88.5012 60.0198C88.6964 56.4673 89.2625 45.0944 91.5463 38.891C93.8302 32.6876 97.0461 29.9093 100.355 28.601C101.604 28.0649 102.971 27.8617 104.321 28.011C105.672 28.1604 106.962 28.6573 108.065 29.4536C109.763 30.659 110.749 34.628 110.749 34.628C110.749 34.628 102.722 37.4112 100.501 42.468C97.9294 48.25 97.4707 51.0626 97.4707 51.0626L96.7777 54.1447C96.7777 54.1447 98.2856 67.5413 98.9639 70.3147L88.0815 80.8791C88.4378 77.3903 88.306 63.5674 88.5012 60.0198Z" fill="#263238"/>
<path d="M110.988 34.6476C110.988 34.6476 115.639 33.5941 117.986 38.7342C119.05 41.0617 120.104 48.1078 120.104 48.1078C120.104 48.1078 120.499 42.3504 119.884 39.2193C119.27 36.0882 117.244 32.2662 114.58 30.3307C111.915 28.3952 109.895 27.6651 105.728 28.4001C106.982 28.7151 108.122 29.3832 109.012 30.3258C109.641 31.0657 109.954 31.7223 110.988 34.6476Z" fill="#263238"/>
<path d="M97.5586 51.4448C97.2756 49.72 95.2651 48.7792 93.8694 49.8229C93.1032 50.3913 92.5859 51.4203 92.869 53.2529C93.6302 58.1529 98.3492 56.3595 98.3346 56.2223C98.3199 56.0851 97.8905 53.4587 97.5586 51.4448Z" fill="#FFBE9D"/>
<path d="M96.5631 54.6003C96.5631 54.6003 96.4899 54.6738 96.3581 54.762C96.1681 54.878 95.9418 54.9182 95.7237 54.8747C95.182 54.7669 94.6257 54.0123 94.4647 53.1401C94.3866 52.7236 94.4033 52.2948 94.5135 51.8857C94.5334 51.7257 94.5925 51.5731 94.6852 51.4415C94.778 51.3099 94.9017 51.2032 95.0454 51.1311C95.1392 51.0915 95.2437 51.0855 95.3414 51.1141C95.4392 51.1426 95.5241 51.204 95.5822 51.2879C95.67 51.4153 95.6505 51.5133 95.6798 51.5182C95.7091 51.5231 95.7725 51.4202 95.6798 51.2242C95.6342 51.1076 95.5497 51.0106 95.4407 50.9498C95.2906 50.87 95.1155 50.8524 94.9527 50.9008C94.7589 50.9722 94.5864 51.092 94.4515 51.2489C94.3166 51.4058 94.2237 51.5946 94.1816 51.7975C94.0415 52.2512 94.0147 52.7324 94.1035 53.1989C94.2841 54.1789 94.9283 55.0217 95.6651 55.1148C95.801 55.1321 95.9391 55.1187 96.0691 55.0755C96.1992 55.0322 96.3179 54.9603 96.4167 54.8649C96.5728 54.7179 96.5826 54.6052 96.5631 54.6003Z" fill="#EB996E"/>
<path d="M102.272 28.062C102.272 28.1012 102.946 28.0032 104.02 28.0228C104.648 28.0351 105.27 28.1459 105.864 28.3511C106.586 28.619 107.249 29.025 107.816 29.5467C108.866 30.4891 109.685 31.6632 110.207 32.9767C110.607 33.9567 110.695 34.6525 110.754 34.6427C110.747 34.4856 110.724 34.3296 110.686 34.1772C110.297 32.3414 109.332 30.679 107.933 29.434C107.348 28.8895 106.659 28.4695 105.908 28.1992C105.298 27.9942 104.658 27.8932 104.015 27.9003C103.584 27.9001 103.153 27.9279 102.726 27.9836C102.573 27.997 102.421 28.0232 102.272 28.062Z" fill="#455A64"/>
<path d="M93.4447 55.5068C93.4465 55.4791 93.4465 55.4513 93.4447 55.4235L93.3763 55.203C93.3422 55.1001 93.308 54.9776 93.2641 54.8404L93.1323 54.3504C92.8663 53.2793 92.7546 52.1753 92.8005 51.0723C92.8625 49.4361 93.2631 47.8308 93.9766 46.3585C94.8886 44.576 96.1898 43.0233 97.783 41.8162C98.6006 41.1826 99.4562 40.6001 100.345 40.0718C101.204 39.5524 102.068 39.1212 102.868 38.641C104.268 37.7837 105.599 36.8188 106.85 35.7549C107.919 34.8484 108.743 34.0693 109.29 33.5205C109.568 33.2461 109.778 33.0305 109.92 32.8786L110.081 32.7071C110.115 32.6679 110.134 32.6483 110.129 32.6434L110.071 32.6924L109.895 32.8541L109.251 33.4862C108.68 34.0203 107.846 34.7847 106.767 35.6716C105.511 36.7179 104.18 37.6694 102.785 38.5185C101.994 39.0085 101.121 39.4152 100.257 39.9395C99.3597 40.4675 98.4974 41.0535 97.6756 41.6937C96.0556 42.9123 94.7337 44.4859 93.8107 46.2948C93.0948 47.7877 92.7023 49.416 92.659 51.0723C92.6254 52.1846 92.7553 53.2958 93.0445 54.37L93.1909 54.86C93.2446 54.9972 93.2885 55.1148 93.3227 55.2177L93.4105 55.4382C93.43 55.4823 93.4398 55.5068 93.4447 55.5068Z" fill="#455A64"/>
<path d="M92.1029 53.782C92.1029 53.782 92.1029 53.7526 92.1029 53.7036L92.0736 53.4684C92.0736 53.2626 91.9955 52.9784 91.9565 52.5717C91.8415 51.4681 91.8236 50.3564 91.9028 49.2495C92.022 47.6103 92.35 45.9932 92.8788 44.4377C93.5394 42.5379 94.5036 40.7588 95.7336 39.1702C97.0003 37.6002 98.4785 36.2149 100.126 35.0542C101.59 33.9566 103.054 33.0942 104.22 32.32C105.386 31.5458 106.357 30.9529 107.006 30.5021C107.333 30.2865 107.577 30.1052 107.743 29.9827L107.934 29.8455L107.997 29.7916C107.997 29.7916 107.968 29.7916 107.924 29.8308L107.724 29.9533L106.967 30.4433C106.313 30.8696 105.347 31.4723 104.152 32.2073C102.956 32.9423 101.531 33.8243 100.028 34.9219C98.3773 36.084 96.8987 37.4746 95.636 39.0526C94.3815 40.6564 93.4003 42.4579 92.7324 44.3838C92.1974 45.9544 91.8693 47.5886 91.7564 49.2446C91.6885 50.3564 91.7261 51.472 91.8687 52.5766C91.9175 52.9686 91.9858 53.2675 92.0199 53.4733C92.0199 53.5664 92.0541 53.6448 92.0687 53.7036C92.0834 53.7624 92.098 53.782 92.1029 53.782Z" fill="#455A64"/>
<path d="M118.157 72.652C118.157 72.652 124.448 75.2196 125.653 78.5075C126.858 81.7954 136.003 108.946 136.003 108.946L125.389 113.033L120.548 90.6889L118.157 72.652Z" fill="#455A64"/>
<path d="M85.6368 149.753C85.6368 149.753 150.541 146.76 154.616 147.838C158.69 148.916 161.125 150.978 161.936 155.883C162.746 160.788 175.258 225.772 175.258 225.772L163.878 229.133C163.878 229.133 147.91 192.53 147.232 186.405C146.554 180.28 144.304 167.727 144.304 167.727C144.304 167.727 119.631 168.133 101.463 167.727C83.2944 167.32 85.7344 150.435 85.7344 150.435L85.6368 149.753Z" fill="#FFBE9D"/>
<path d="M163.736 229.427L163.653 229.231C162.999 227.732 147.666 192.526 146.993 186.43C146.368 180.81 144.402 169.623 144.109 167.972C141.669 168.011 118.552 168.354 101.467 167.972C95.8211 167.844 91.5706 166.124 88.8232 162.866C84.6654 157.932 85.4072 151.023 85.4999 150.439L85.3486 149.523H85.6219C88.2766 149.401 150.619 146.539 154.679 147.617C159.237 148.827 161.408 151.214 162.179 155.854C162.98 160.695 175.355 225.091 175.502 225.743L175.541 225.958L163.736 229.427ZM144.514 167.477L144.553 167.683C144.577 167.805 146.807 180.315 147.481 186.376C148.12 192.163 162.75 225.924 164.019 228.835L174.984 225.601C174.184 221.44 162.482 160.627 161.701 155.923C160.969 151.513 158.9 149.229 154.557 148.083C150.711 147.058 90.5263 149.783 85.9245 149.994L85.9977 150.439V150.474C85.9977 150.547 85.0217 157.598 89.2087 162.557C91.8634 165.703 95.9919 167.359 101.487 167.487C119.44 167.888 144.07 167.487 144.319 167.487L144.514 167.477Z" fill="#EB996E"/>
<path d="M90.019 114.606L91.6538 124.759C91.6538 124.759 84.5534 138.268 83.7531 149.881C83.3724 155.398 86.5249 166.698 86.5249 166.698C86.5249 166.698 111.53 169.456 125.018 169.104L139.409 168.471L141.947 145.897L125.794 143.555L126.038 112.793C126.038 112.793 128.966 104.693 129.191 102.297C129.708 97.2401 129.493 92.1245 124.462 85.5683L118.157 72.6519L116.054 71.6719L117.054 87.3176L98.9299 70.0255L89.7506 73.333L87.1496 85.6565L90.019 114.606Z" fill="#455A64"/>
<g opacity="0.3">
<path d="M121.436 147.294C120.26 147.5 111.774 147.622 110.598 147.828C110.398 147.889 110.187 147.909 109.979 147.887C109.771 147.864 109.57 147.799 109.388 147.695C109.241 147.556 109.139 147.375 109.095 147.177C109.052 146.979 109.069 146.772 109.144 146.583C109.299 146.204 109.544 145.868 109.856 145.603C111.911 143.643 114.58 142.511 117.176 141.404C118.006 141.056 118.904 140.698 119.772 140.914C120.198 141.055 120.583 141.299 120.895 141.623C121.206 141.948 121.434 142.343 121.558 142.776C121.806 143.64 121.908 144.539 121.861 145.437" fill="black"/>
</g>
<g opacity="0.3">
<path d="M90.6873 121.686C93.7178 120.976 95.621 117.977 96.8508 115.106C98.0805 112.234 99.0956 109.064 101.506 107.084C103.273 105.614 105.64 104.967 107.167 103.262C107.893 102.427 108.375 101.406 108.558 100.313C108.741 99.2196 108.62 98.0967 108.207 97.0686C107.767 96.02 106.884 95.0302 105.767 94.9714C104.449 94.9028 103.424 96.0494 102.619 97.1029C98.9362 101.947 95.4632 106.945 92.2001 112.097C90.4482 114.865 88.7012 118.227 89.9212 121.27" fill="black"/>
</g>
<path d="M90.707 74.9501C90.707 74.9501 85.5781 76.5867 83.7237 79.8158C81.8693 83.0449 78.7949 98.7249 78.0531 102.949C77.3114 107.172 73.7246 124.553 78.0531 127.287C82.3817 130.021 88.0718 125.817 89.5553 123.313C91.0388 120.809 97.0949 107.79 97.0949 107.79L91.6537 103.199C91.6537 103.199 92.6297 90.782 92.2734 88.1703C91.9172 85.5586 90.707 74.9501 90.707 74.9501Z" fill="#FFBE9D"/>
<path d="M74.6226 107.187L86.5249 107.966L91.9612 101.557L93.4642 91.463L93.0641 72.1521C93.0641 72.1521 82.4403 74.754 80.1418 82.8635C78.4387 88.8562 74.6226 107.187 74.6226 107.187Z" fill="#455A64"/>
<path d="M95.6846 84.3482C95.0014 84.2551 94.1279 85.0636 94.7086 87.0138C95.1966 88.6406 96.114 90.2233 96.0457 91.1298C95.9774 92.0363 95.626 93.9228 95.626 94.9028C95.5835 95.861 95.4907 96.8162 95.3479 97.7644L87.2471 107.564L94.2596 113.778L99.8082 105.026C99.8082 105.026 101.482 105.306 102.453 104.188L103.917 102.508C103.917 102.508 107.675 101.111 106.909 99.0776C106.909 99.0776 108.021 98.0143 107.011 96.3091C107.011 96.3091 107.538 94.5353 106.772 93.4916C106.772 93.4916 106.704 91.1151 106.074 90.6937C105.445 90.2723 98.9347 90.2037 98.9347 90.2037C98.5801 89.1172 98.1713 88.0493 97.7098 87.004C96.9973 85.8231 96.6362 84.4756 95.6846 84.3482Z" fill="#FFBE9D"/>
<path d="M98.4563 93.9866C98.4563 94.0111 98.2855 93.918 98.1342 93.6877C97.9371 93.3773 97.851 93.0089 97.89 92.6429C97.9291 92.277 98.0909 91.9352 98.349 91.6738C98.5442 91.4827 98.7101 91.4239 98.7247 91.4484C98.4345 91.8012 98.2351 92.2202 98.144 92.6685C98.1445 93.1263 98.2514 93.5776 98.4563 93.9866Z" fill="#EB996E"/>
<path d="M106.499 93.3153C105.518 93.6026 104.508 93.7817 103.488 93.8494C102.477 93.9971 101.452 94.0316 100.433 93.9523C101.436 93.777 102.448 93.6575 103.464 93.5946C104.469 93.4433 105.483 93.3501 106.499 93.3153Z" fill="#EB996E"/>
<path d="M107.075 96.118C106.266 96.4479 105.412 96.6527 104.542 96.7256C103.684 96.8851 102.807 96.9148 101.941 96.8138C101.941 96.7403 103.093 96.6668 104.508 96.4708C105.923 96.2748 107.06 96.0494 107.075 96.118Z" fill="#EB996E"/>
<path d="M106.933 98.9943C105.67 99.3831 104.343 99.5147 103.029 99.3814C103.671 99.2404 104.324 99.1568 104.981 99.1315C105.626 99.029 106.279 98.9831 106.933 98.9943Z" fill="#EB996E"/>
<path d="M100.784 99.8763C100.784 99.9057 100.648 99.8763 100.482 99.7832C100.263 99.6335 100.109 99.4057 100.052 99.1462C99.9898 98.8897 100.025 98.6189 100.15 98.3867C100.248 98.2152 100.355 98.1466 100.379 98.1662C100.404 98.1858 100.179 98.5925 100.296 99.0874C100.413 99.5823 100.819 99.8126 100.784 99.8763Z" fill="#EB996E"/>
<path d="M99.1835 97.5439C99.1835 97.5684 99.0225 97.4851 98.8712 97.2744C98.677 96.9961 98.5653 96.6682 98.5491 96.3287C98.529 95.9884 98.6033 95.6491 98.7638 95.3487C98.8956 95.1233 99.0225 95.0253 99.0469 95.0449C98.8976 95.4502 98.8152 95.8772 98.8029 96.3091C98.8651 96.7381 98.9936 97.1547 99.1835 97.5439Z" fill="#EB996E"/>
<path d="M104.932 102.086C104.578 102.275 104.19 102.388 103.79 102.419C103.404 102.531 102.998 102.559 102.6 102.503C102.953 102.312 103.342 102.199 103.742 102.169C104.128 102.055 104.534 102.026 104.932 102.086Z" fill="#EB996E"/>
<path d="M101.794 90.2478C101.794 90.3213 100.818 90.3213 99.5837 90.4438C98.349 90.5663 97.3974 90.7574 97.3779 90.6888C98.0696 90.3946 98.8087 90.2286 99.5593 90.1988C100.301 90.0822 101.058 90.0988 101.794 90.2478Z" fill="#EB996E"/>
<path d="M123.223 113.802H163.561C164.273 113.802 164.955 114.086 165.459 114.591C165.962 115.097 166.245 115.782 166.245 116.497V145.206H120.548V116.492C120.55 115.78 120.832 115.097 121.333 114.593C121.834 114.089 122.513 113.805 123.223 113.802Z" fill="#E0E0E0"/>
<path d="M166.244 147.294H112.564C112.564 146.745 112.781 146.219 113.168 145.831C113.554 145.444 114.078 145.226 114.624 145.226H166.244V147.294Z" fill="#E0E0E0"/>
<path d="M164.556 115.821H121.934V145.226H164.556V115.821Z" fill="white"/>
<path d="M164.551 145.206C164.551 145.206 164.551 145.02 164.551 144.667C164.551 144.314 164.551 143.785 164.551 143.109C164.551 141.742 164.551 139.743 164.522 137.185C164.522 132.069 164.493 124.734 164.468 115.801L164.571 115.904H121.954L122.08 115.777C122.08 126.278 122.08 136.249 122.08 145.177L121.968 145.059L152.668 145.118L161.452 145.152H163.79H164.39H164.6H164.405H163.814H161.501L152.761 145.182L121.983 145.241H121.866V145.206C121.866 136.274 121.866 126.302 121.866 115.806V115.679H121.993H164.61H164.712V115.806C164.712 124.763 164.673 132.123 164.658 137.254C164.658 139.802 164.658 141.791 164.658 143.134C164.658 143.805 164.658 144.319 164.658 144.672C164.658 145.025 164.551 145.206 164.551 145.206Z" fill="#263238"/>
<path d="M166.02 145.206C166.02 145.28 154.498 145.334 140.288 145.334C126.077 145.334 114.551 145.28 114.551 145.206C114.551 145.133 126.072 145.079 140.288 145.079C154.503 145.079 166.02 145.157 166.02 145.206Z" fill="#263238"/>
<path d="M143.24 141.771C149.426 141.771 154.44 136.737 154.44 130.526C154.44 124.315 149.426 119.28 143.24 119.28C137.055 119.28 132.041 124.315 132.041 130.526C132.041 136.737 137.055 141.771 143.24 141.771Z" fill="#A7004D"/>
<path d="M136.281 130.8L138.653 128.546L141.927 131.574L148.374 125.484L150.716 127.708L141.893 136.117L136.281 130.8Z" fill="white"/>
<path d="M95.3576 97.7644C95.4113 97.8085 92.049 101.885 87.8473 106.864C83.6456 111.842 80.1954 115.841 80.1417 115.806C80.0881 115.772 83.4504 111.69 87.6521 106.707C91.8537 101.724 95.3039 97.7203 95.3576 97.7644Z" fill="#EB996E"/>
<path d="M94.777 91.4484C94.6673 92.8699 94.4734 94.2836 94.1963 95.682C94.0041 97.0956 93.7271 98.4963 93.3667 99.8764C93.4762 98.4532 93.6701 97.0379 93.9474 95.6379C94.1427 94.2264 94.4197 92.8275 94.777 91.4484Z" fill="#263238"/>
<path d="M126.038 112.793C126.056 112.693 126.082 112.594 126.116 112.499L126.38 111.676C126.614 110.965 126.961 109.936 127.356 108.657C127.828 107.163 128.222 105.645 128.537 104.11C128.93 102.235 129.105 100.321 129.059 98.4063C128.883 94.9195 127.907 91.5205 126.209 88.474C125.705 87.5463 125.151 86.6467 124.55 85.779C124.345 85.4703 124.169 85.24 124.062 85.0783C123.999 84.9978 123.945 84.9107 123.901 84.8186C123.975 84.8863 124.042 84.9619 124.101 85.044C124.228 85.2008 124.418 85.4213 124.638 85.7251C125.272 86.5744 125.852 87.4631 126.375 88.3858C127.152 89.7595 127.791 91.2072 128.283 92.7076C128.895 94.5455 129.248 96.4604 129.332 98.3965C129.382 100.332 129.198 102.267 128.786 104.159C128.457 105.698 128.043 107.218 127.546 108.711C127.127 109.985 126.756 111.009 126.492 111.71C126.365 112.036 126.263 112.306 126.185 112.518C126.147 112.615 126.098 112.708 126.038 112.793Z" fill="#263238"/>
<path d="M115.668 97.5342C115.688 97.7624 115.688 97.9919 115.668 98.2202C115.668 98.4891 115.648 98.7576 115.61 99.0238C115.574 99.3792 115.521 99.7325 115.449 100.082C115.371 100.506 115.266 100.925 115.136 101.337C114.999 101.814 114.836 102.283 114.648 102.743C114.198 103.78 113.638 104.765 112.979 105.683C112.304 106.599 111.53 107.437 110.671 108.182C110.295 108.505 109.901 108.806 109.49 109.083C109.139 109.334 108.772 109.561 108.392 109.765C108.077 109.948 107.751 110.111 107.416 110.255C107.176 110.372 106.928 110.472 106.674 110.553C106.463 110.641 106.244 110.708 106.02 110.754C105.996 110.7 106.933 110.411 108.28 109.622C108.648 109.41 109.005 109.178 109.349 108.927C109.729 108.672 110.095 108.348 110.495 108.02C112.177 106.535 113.51 104.694 114.399 102.63C114.586 102.182 114.748 101.724 114.887 101.258C115.022 100.853 115.135 100.441 115.224 100.023C115.629 98.5142 115.619 97.5342 115.668 97.5342Z" fill="#263238"/>
<path d="M129.083 101.988C129.055 101.961 129.032 101.93 129.015 101.895L128.844 101.596C128.683 101.327 128.463 100.959 128.185 100.504C127.907 100.048 127.473 99.4892 127.019 98.8522C126.565 98.2152 125.989 97.5194 125.379 96.7403C122.871 93.6631 119.167 89.6206 114.921 85.3037C110.676 80.9868 106.689 77.2236 103.766 74.5237L101.775 72.7352C101.189 72.2158 100.682 71.7552 100.257 71.4024L99.2811 70.5743L99.0322 70.3538C99.0001 70.3309 98.972 70.3027 98.9492 70.2705C98.9842 70.2878 99.0169 70.3091 99.0468 70.3342C99.12 70.3881 99.2079 70.4518 99.3103 70.5351L100.316 71.324L101.863 72.6274C102.463 73.1468 103.136 73.7397 103.878 74.3914C106.84 77.0374 110.837 80.7957 115.102 85.1077C119.367 89.4197 123.042 93.4965 125.516 96.608C126.121 97.3969 126.668 98.1074 127.136 98.7444L128.268 100.43C128.527 100.92 128.756 101.273 128.888 101.552L129.044 101.846C129.077 101.941 129.09 101.988 129.083 101.988Z" fill="#263238"/>
<path d="M119.606 124.656C119.517 124.687 119.423 124.705 119.328 124.71L118.533 124.822C117.84 124.915 116.829 125.023 115.605 125.136C113.111 125.361 109.651 125.543 105.845 125.498C102.038 125.454 98.5637 125.175 96.0846 124.891C94.8402 124.749 93.8349 124.612 93.1566 124.499L92.3612 124.371C92.2679 124.361 92.1761 124.34 92.0879 124.308C92.1819 124.296 92.277 124.296 92.3709 124.308L93.1713 124.391C93.8642 124.474 94.8744 124.582 96.0993 124.7C98.5832 124.94 102.033 125.19 105.859 125.234C109.685 125.278 113.126 125.121 115.619 124.945C116.864 124.857 117.874 124.778 118.547 124.714L119.348 124.651C119.434 124.643 119.52 124.645 119.606 124.656Z" fill="#263238"/>
<path d="M140.742 113.768C140.742 113.768 148.735 110.637 149.492 110.387C150.248 110.137 157.236 109.588 157.236 109.588L166.245 112.837C166.245 112.837 166.328 114.694 164.224 114.444C162.37 114.13 160.541 113.678 158.754 113.092L157.49 113.846L140.742 113.768Z" fill="#FFBE9D"/>
<path d="M165.81 114.959C166.02 115.385 166.567 115.449 166.986 115.674C167.375 115.902 167.693 116.233 167.905 116.63C168.118 117.028 168.217 117.477 168.192 117.928C168.121 118.829 167.824 119.697 167.328 120.451C167.175 120.756 166.955 121.021 166.684 121.226C166.545 121.323 166.38 121.375 166.21 121.375C166.041 121.375 165.876 121.323 165.737 121.226C165.604 121.063 165.514 120.868 165.476 120.661C165.439 120.453 165.455 120.239 165.522 120.04C165.781 118.477 165.444 116.497 165.81 114.954" fill="#FFBE9D"/>
<path d="M174.867 223.347L175.141 224.111C175.141 224.111 189.976 224.694 190.991 227.115L165.185 236.219L162.516 227.472C166.981 227.904 171.066 226.688 174.867 223.347Z" fill="#455A64"/>
<g opacity="0.6">
<path d="M166.098 229.305C165.876 229.469 165.722 229.71 165.665 229.981C165.608 230.252 165.653 230.535 165.791 230.775C165.946 231.008 166.186 231.172 166.459 231.231C166.732 231.29 167.017 231.241 167.255 231.093C167.49 230.92 167.653 230.665 167.712 230.378C167.77 230.091 167.72 229.792 167.572 229.54C167.386 229.32 167.122 229.18 166.836 229.149C166.549 229.119 166.262 229.201 166.035 229.378" fill="white"/>
</g>
<g opacity="0.6">
<path d="M165.186 236.219L164.546 234.117L189.512 226.159C189.512 226.159 190.835 226.257 190.976 227.139L165.186 236.219Z" fill="white"/>
</g>
<path d="M175.258 224.155C175.297 224.282 174.687 224.562 174.209 225.189C173.731 225.816 173.589 226.463 173.457 226.453C173.326 226.443 173.252 225.645 173.843 224.9C174.433 224.155 175.243 224.028 175.258 224.155Z" fill="#263238"/>
<path d="M178.357 224.322C178.43 224.434 177.957 224.841 177.718 225.527C177.478 226.213 177.552 226.826 177.425 226.865C177.298 226.904 176.966 226.213 177.283 225.365C177.6 224.518 178.313 224.204 178.357 224.322Z" fill="#263238"/>
<path d="M181.031 227.036C180.928 227.105 180.543 226.546 180.611 225.728C180.679 224.91 181.187 224.439 181.275 224.523C181.363 224.606 181.133 225.111 181.075 225.772C181.016 226.434 181.153 226.977 181.031 227.036Z" fill="#263238"/>
</g>
</svg>
