<svg width="35" height="24" viewBox="0 0 35 24" fill="none" xmlns="http://www.w3.org/2000/svg">
<rect x="0.896484" width="34" height="24" rx="4" fill="#FBFBFB"/>
<path fill-rule="evenodd" clip-rule="evenodd" d="M17.7536 15.5666C16.7096 16.4604 15.3553 17 13.8754 17C10.5733 17 7.89648 14.3137 7.89648 11C7.89648 7.68629 10.5733 5 13.8754 5C15.3553 5 16.7096 5.53956 17.7536 6.43335C18.7977 5.53956 20.152 5 21.6319 5C24.934 5 27.6108 7.68629 27.6108 11C27.6108 14.3137 24.934 17 21.6319 17C20.152 17 18.7977 16.4604 17.7536 15.5666Z" fill="#ED0006"/>
<path fill-rule="evenodd" clip-rule="evenodd" d="M17.7534 15.5669C19.0391 14.4664 19.8544 12.8287 19.8544 11C19.8544 9.17126 19.0391 7.5336 17.7534 6.43309C18.7974 5.53946 20.1516 5 21.6314 5C24.9334 5 27.6103 7.68629 27.6103 11C27.6103 14.3137 24.9334 17 21.6314 17C20.1516 17 18.7974 16.4605 17.7534 15.5669Z" fill="#F9A000"/>
<path fill-rule="evenodd" clip-rule="evenodd" d="M17.7536 15.5666C19.0392 14.4661 19.8544 12.8285 19.8544 10.9998C19.8544 9.1712 19.0392 7.53362 17.7536 6.43311C16.468 7.53362 15.6528 9.1712 15.6528 10.9998C15.6528 12.8285 16.468 14.4661 17.7536 15.5666Z" fill="#FF5E00"/>
</svg>
