<svg width="48" height="48" viewBox="0 0 48 48" fill="none" xmlns="http://www.w3.org/2000/svg">
<rect width="48" height="48" rx="12" fill="#A7004D"/>
<g clip-path="url(#clip0_670_3516)">
<path d="M8.88919 29.1121C8.67669 29.1121 8.5125 29.1121 8.40625 29.1121V31.1188H8.60908V29.1666H8.82158C9.21758 29.1666 9.42042 29.321 9.42042 29.6478C9.42042 29.9747 9.37212 29.9021 9.28519 29.9929C9.18861 30.0928 9.05338 30.1382 8.87953 30.1382H8.82158V30.2017C8.85055 30.2017 8.88919 30.2017 8.92782 30.2017C9.121 30.2017 9.28519 30.1563 9.42042 30.0474C9.55564 29.9384 9.63291 29.8113 9.63291 29.6569C9.63291 29.2937 9.38178 29.103 8.88919 29.1121Z" fill="white"/>
<path d="M11.2654 29.9202C11.3523 29.8385 11.4006 29.7295 11.4006 29.6024C11.4006 29.2755 11.1495 29.1121 10.6472 29.1121C10.4347 29.1121 10.3091 29.1121 10.2705 29.1121V31.1278H10.4733V29.1665H10.6086C10.9949 29.1665 11.1784 29.3027 11.1784 29.6024C11.1784 29.902 11.0239 30.0019 10.7245 30.0019C10.425 30.0019 10.6569 30.0019 10.6279 30.0019L11.3136 31.1187H11.5358L10.8887 30.0564C11.0432 30.0382 11.1688 29.9928 11.2557 29.902L11.2654 29.9202Z" fill="white"/>
<path d="M13.3026 29.0938C12.9935 29.0938 12.7327 29.1936 12.5299 29.3934C12.3367 29.5931 12.2305 29.8292 12.2305 30.1198C12.2305 30.4103 12.3271 30.6555 12.5299 30.8462C12.7327 31.0459 12.9935 31.1458 13.3026 31.1458C13.6117 31.1458 13.8725 31.0459 14.0753 30.8462C14.2685 30.6555 14.3747 30.4103 14.3747 30.1198C14.3747 29.8292 14.2781 29.5931 14.0753 29.3934C13.8725 29.1936 13.6213 29.0938 13.3026 29.0938ZM13.9111 30.8099C13.7565 31.0005 13.5537 31.1004 13.3026 31.1004C13.0515 31.1004 12.8486 31.0005 12.6844 30.8099C12.5299 30.6283 12.4623 30.3922 12.4623 30.1198C12.4623 29.8474 12.5395 29.6113 12.6844 29.4297C12.839 29.239 13.0418 29.1391 13.3026 29.1391C13.5634 29.1391 13.7565 29.239 13.9111 29.4297C14.0656 29.6113 14.1332 29.8474 14.1332 30.1198C14.1332 30.3922 14.056 30.6283 13.9111 30.8099Z" fill="white"/>
<path d="M15.0801 31.1278H15.2829V30.0473H15.959V29.9837H15.2829V29.1756H16.0363V29.1121H15.0801V31.1278Z" fill="white"/>
<path d="M16.9342 29.1121H16.7217V31.1187H16.9342V29.1121Z" fill="white"/>
<path d="M18.3734 29.92C18.1126 29.7747 17.987 29.6204 17.9967 29.4479C17.9967 29.3661 18.045 29.2935 18.1126 29.239C18.1802 29.1845 18.2768 29.1573 18.3734 29.1573C18.4699 29.1573 18.5472 29.1845 18.6341 29.239C18.6921 29.2753 18.7404 29.3207 18.779 29.3661L18.8563 29.2935C18.7887 29.2118 18.6921 29.1573 18.5569 29.121C18.4989 29.1028 18.441 29.1028 18.3734 29.0938C18.2285 29.0938 18.1029 29.1301 17.9967 29.2027C17.8904 29.2753 17.8325 29.3752 17.8325 29.5023C17.8228 29.7475 17.9774 29.9563 18.3058 30.1289C18.5955 30.2832 18.7404 30.4648 18.7404 30.6737C18.7404 30.8825 18.7018 30.8916 18.6245 30.9642C18.5472 31.0368 18.441 31.0732 18.3154 31.0732C18.1898 31.0732 17.987 31.0096 17.8518 30.8916L17.7842 30.9824C17.9387 31.0913 18.1126 31.1458 18.3154 31.1458C18.5182 31.1458 18.6052 31.1004 18.7211 31.0187C18.8466 30.9188 18.9143 30.7917 18.9143 30.6373C18.9143 30.483 18.8853 30.3922 18.8177 30.2923C18.7307 30.1652 18.5859 30.0471 18.3734 29.9291V29.92Z" fill="white"/>
<path d="M20.2093 29.92C19.9485 29.7747 19.823 29.6204 19.8326 29.4479C19.8326 29.3661 19.8809 29.2935 19.9485 29.239C20.0161 29.1845 20.1127 29.1573 20.2093 29.1573C20.3059 29.1573 20.3832 29.1845 20.4701 29.239C20.528 29.2753 20.5763 29.3207 20.615 29.3661L20.6922 29.2935C20.6246 29.2118 20.528 29.1573 20.3928 29.121C20.3349 29.1028 20.2769 29.1028 20.2093 29.0938C20.0644 29.0938 19.9389 29.1301 19.8326 29.2027C19.7264 29.2753 19.6684 29.3752 19.6684 29.5023C19.6588 29.7475 19.8133 29.9563 20.1417 30.1289C20.4314 30.2832 20.5763 30.4648 20.5763 30.6737C20.5763 30.8825 20.5377 30.8916 20.4604 30.9642C20.3832 31.0368 20.2769 31.0732 20.1513 31.0732C20.0258 31.0732 19.823 31.0096 19.6877 30.8916L19.6201 30.9824C19.7747 31.0913 19.9485 31.1458 20.1513 31.1458C20.3542 31.1458 20.4411 31.1004 20.557 31.0187C20.6826 30.9188 20.7502 30.7917 20.7502 30.6373C20.7502 30.483 20.7212 30.3922 20.6536 30.2923C20.5667 30.1652 20.4218 30.0471 20.2093 29.9291V29.92Z" fill="white"/>
<path d="M21.6773 29.1121H21.4648V31.1187H21.6773V29.1121Z" fill="white"/>
<path d="M23.6092 29.0938C23.3001 29.0938 23.0394 29.1936 22.8365 29.3934C22.6434 29.5931 22.5371 29.8292 22.5371 30.1198C22.5371 30.4103 22.6337 30.6555 22.8365 30.8462C23.0394 31.0459 23.3001 31.1458 23.6092 31.1458C23.9183 31.1458 24.1791 31.0459 24.3819 30.8462C24.5751 30.6555 24.6813 30.4103 24.6813 30.1198C24.6813 29.8292 24.5848 29.5931 24.3819 29.3934C24.1791 29.1936 23.928 29.0938 23.6092 29.0938ZM24.2177 30.8099C24.0632 31.0005 23.8604 31.1004 23.6092 31.1004C23.3581 31.1004 23.1553 31.0005 22.9911 30.8099C22.8365 30.6283 22.7689 30.3922 22.7689 30.1198C22.7689 29.8474 22.8462 29.6113 22.9911 29.4297C23.1456 29.239 23.3581 29.1391 23.6092 29.1391C23.8604 29.1391 24.0632 29.239 24.2177 29.4297C24.3723 29.6113 24.4399 29.8474 24.4399 30.1198C24.4399 30.3922 24.3626 30.6283 24.2177 30.8099Z" fill="white"/>
<path d="M26.6896 30.7373L25.376 29.0757V31.1277H25.4436V29.4843L26.7572 31.155V29.112H26.6896V30.7373Z" fill="white"/>
<path d="M27.3174 31.1277H27.3947L28.0901 29.4207L28.4185 30.2107H27.9549V30.2742H28.4475L28.7952 31.1277H29.0173L28.1674 29.0757L27.3174 31.1277Z" fill="white"/>
<path d="M29.9157 29.1121H29.7129V31.1278H30.7077V31.0642H29.9157V29.1121Z" fill="white"/>
<path d="M7.12138 29.5295H1.5V30.7281H7.12138V29.5295Z" fill="white"/>
<path d="M35.6529 29.5298H32.1758V30.7283H35.6529V29.5298Z" fill="white"/>
<path d="M13.3417 28.4763L14.607 17.8982H13.4383L8.01974 26.4333L4.69714 17.8982H3.47048L2.21484 28.4763H2.98754L4.01137 19.8958L7.36294 28.4763H7.66236L13.0809 19.8595L12.0571 28.4763H13.3417Z" fill="white"/>
<path d="M28.0707 24.3996L28.8724 17.626H27.8389L26.96 24.9989H31.2871L31.374 24.2815C31.374 24.2815 30.6786 24.3996 29.2008 24.3996C28.8144 24.3996 28.0707 24.3996 28.0707 24.3996Z" fill="white"/>
<path d="M33.8853 21.2216C33.9916 20.3317 34.3296 17.635 34.3296 17.635H33.3058C33.3058 17.635 33.045 20.3045 32.9484 21.1853C32.8325 22.1477 32.4365 25.0079 32.4365 25.0079H33.4603C33.4603 25.0079 33.7791 22.175 33.895 21.2216H33.8853Z" fill="white"/>
<path d="M41.2938 19.687C41.2938 19.687 41.8927 19.1331 42.733 19.0423C43.7471 18.9334 45.0318 19.4146 45.109 21.4031H46.4999C46.4999 21.4031 46.5482 18.2614 43.1676 18.2251C43.1676 18.2251 40.8109 18.0526 39.7291 19.805C39.449 19.1331 38.8115 18.3795 37.3531 18.3522C37.3531 18.3522 33.9146 18.216 34.1271 21.5211C34.1271 21.5211 34.3106 22.9104 35.8753 23.6367C35.8753 23.6367 38.7729 24.8353 38.3672 26.615C38.3672 26.615 38.0388 27.6773 36.7253 27.9588C35.7787 28.1676 34.61 27.6501 33.6828 26.5423L33.5186 27.9406C33.5186 27.9406 36.2037 29.8474 38.7246 27.7318C38.7246 27.7318 40.4825 26.0883 38.9757 24.118C38.9757 24.118 38.8212 23.8183 37.9326 23.2826C37.7684 23.1828 37.5366 23.0738 37.3531 22.9558C36.6576 22.5018 35.9043 22.1204 35.5469 21.5211C35.1992 20.94 35.2185 20.1591 36.0202 19.5145C36.0202 19.5145 36.3679 19.2058 37.0247 19.1422C37.8167 19.0605 38.8115 19.2693 38.8695 20.8311H39.3234C39.2365 21.1943 39.1979 21.6119 39.2075 22.0841C39.2075 22.0841 39.5166 23.9182 41.516 24.8444C41.516 24.8444 45.3408 26.4515 44.4619 28.776C44.4619 28.776 44.0659 30.138 42.3756 30.5012C41.1683 30.7645 39.6229 30.3468 38.4348 28.9394L38.2513 30.4739C38.2513 30.4739 41.6898 32.9164 44.9062 30.2106C44.9062 30.2106 47.1567 28.1131 45.2249 25.5889C45.2249 25.5889 45.0318 25.2076 43.892 24.5175C43.6795 24.3904 43.3801 24.2542 43.1483 24.1089C42.2694 23.5187 41.3035 23.0375 40.8399 22.2748C40.3956 21.5393 40.2507 20.4951 41.2745 19.6688L41.2938 19.687Z" fill="white"/>
<path d="M26.4001 25.0079H26.5257C26.5257 25.0079 26.2359 24.6992 25.5888 23.6186C25.2121 22.9831 24.0627 21.049 24.0627 21.049C24.0627 21.049 24.2173 20.8765 24.4394 20.6223C24.4394 20.6223 24.4394 20.6223 24.4491 20.6132C24.8837 20.1229 25.5792 19.342 25.8786 19.0061C25.8979 18.9788 25.9365 18.9425 25.9655 18.9062C25.9655 18.9062 25.9655 18.9062 25.9752 18.888C26.4291 18.3977 27.762 17.0085 28.1387 16.609C28.158 16.609 28.1677 16.5908 28.1677 16.5726C28.216 16.5272 28.245 16.5 28.245 16.5H28.1194H27.1245C27.1245 16.5182 27.1052 16.5272 27.1052 16.5363L23.6667 20.4498L21.9668 17.5896L20.7401 17.635C20.7401 17.635 21.339 18.4976 21.6384 19.0151C21.9764 19.5962 22.9327 21.2125 22.9327 21.2125C22.9327 21.2125 21.3486 23.0375 20.8367 23.6096C20.7594 23.7004 20.7788 23.664 20.6822 23.773L18.7601 16.9086H18.2772C18.2772 16.9086 16.9443 19.3965 16.2102 20.8674C16.1909 20.9038 16.1716 20.9401 16.1522 20.9764C15.254 22.747 14.2012 24.3904 14.2012 24.3904H15.0222C15.0222 24.3904 15.4278 23.5732 15.5631 23.3008C15.7562 22.9104 16.3454 21.7391 16.3454 21.7391H19.1754L19.9288 24.5993C18.9822 25.6344 17.8908 26.8057 17.8908 26.8057H18.8277L23.2707 21.7663L25.1638 24.9988H26.3905L26.4001 25.0079ZM16.5772 21.2851C16.5772 21.2851 17.0602 20.3226 17.3692 19.6961C17.7073 19.0151 18.1999 18.0436 18.1999 18.0436L19.0499 21.2851H16.5772ZM20.1123 24.4086H20.122C20.122 24.4086 20.122 24.4086 20.1123 24.4086ZM20.093 24.4358C20.0447 24.4812 20.0061 24.5357 19.9578 24.5811L20.093 24.4358Z" fill="white"/>
</g>
<defs>
<clipPath id="clip0_670_3516">
<rect width="45" height="15" fill="white" transform="translate(1.5 16.5)"/>
</clipPath>
</defs>
</svg>
