<svg width="25" height="25" viewBox="0 0 25 25" fill="none" xmlns="http://www.w3.org/2000/svg">
<path d="M17.9302 7.53571V11.5357M17.9302 7.53571C17.9302 6.20962 17.4034 4.93785 16.4657 4.00017C15.528 3.06249 14.2563 2.53571 12.9302 2.53571C11.6041 2.53571 10.3323 3.06249 9.39464 4.00017C8.45696 4.93785 7.93018 6.20962 7.93018 7.53571V11.5357C7.93018 12.8618 8.45696 14.1336 9.39464 15.0712C10.3323 16.0089 11.6041 16.5357 12.9302 16.5357C14.2563 16.5357 15.528 16.0089 16.4657 15.0712C17.4034 14.1336 17.9302 12.8618 17.9302 11.5357M17.9302 7.53571H14.9302M17.9302 11.5357H14.9302M20.9302 11.5357C20.9302 13.6574 20.0873 15.6923 18.587 17.1926C17.0867 18.6929 15.0519 19.5357 12.9302 19.5357M12.9302 19.5357C10.8084 19.5357 8.77361 18.6929 7.27332 17.1926C5.77303 15.6923 4.93018 13.6574 4.93018 11.5357M12.9302 19.5357V22.5357M12.9302 22.5357H15.9302M12.9302 22.5357H9.93018" stroke="#ADB5BD" stroke-width="1.5" stroke-linecap="round" stroke-linejoin="round"/>
</svg>
