<svg width="20" height="20" viewBox="0 0 20 20" fill="none" xmlns="http://www.w3.org/2000/svg">
<g clip-path="url(#clip0_1615_1913)">
<path d="M13.8291 0.654785H15.6132V2.88307H13.8291V0.654785Z" fill="#837683"/>
<path d="M15.1865 0.654785H15.6134V2.88307H15.1865V0.654785Z" fill="#685E68"/>
<path d="M14.7212 11.3091C17.0269 11.3091 18.896 9.34158 18.896 6.91455C18.896 4.48752 17.0269 2.52002 14.7212 2.52002C12.4155 2.52002 10.5464 4.48752 10.5464 6.91455C10.5464 9.34158 12.4155 11.3091 14.7212 11.3091Z" fill="#FE646F"/>
<path fill-rule="evenodd" clip-rule="evenodd" d="M18.5249 6.91451C18.5249 8.04621 18.1102 9.1343 17.367 9.95213C16.6239 10.77 15.6097 11.2545 14.5356 11.3048C14.5972 11.3076 14.659 11.3091 14.7212 11.3091C15.8284 11.3091 16.8903 10.8461 17.6732 10.022C18.4562 9.19782 18.896 8.08005 18.896 6.91455C18.896 5.74905 18.4562 4.63128 17.6732 3.80715C16.8903 2.98301 15.8284 2.52002 14.7212 2.52002C14.659 2.52002 14.5972 2.52144 14.5356 2.52428C15.6097 2.57457 16.6239 3.05909 17.367 3.87692C18.1102 4.69474 18.5249 5.78282 18.5249 6.91451Z" fill="#FD4755"/>
<path d="M15.9244 0.215332H13.5173C13.2866 0.215332 13.0996 0.412187 13.0996 0.65502C13.0996 0.897852 13.2866 1.09471 13.5173 1.09471H15.9244C16.1551 1.09471 16.3422 0.897852 16.3422 0.65502C16.3422 0.412187 16.1551 0.215332 15.9244 0.215332Z" fill="#837683"/>
<path fill-rule="evenodd" clip-rule="evenodd" d="M15.5535 0.704023H13.1463C13.1315 0.704033 13.1168 0.703211 13.1021 0.701563C13.1133 0.809357 13.1619 0.909013 13.2385 0.98152C13.3151 1.05403 13.4144 1.09431 13.5174 1.09469H15.9246C16.0315 1.09473 16.1344 1.05156 16.2121 0.9741C16.2897 0.896636 16.3361 0.790773 16.3418 0.678333C16.3475 0.565893 16.312 0.455446 16.2426 0.369758C16.1732 0.284069 16.0752 0.22967 15.9688 0.217773C15.975 0.279097 15.9689 0.34111 15.9509 0.399784C15.9328 0.458457 15.9033 0.512478 15.8641 0.558336C15.8249 0.604195 15.777 0.640865 15.7235 0.665965C15.67 0.691064 15.612 0.704031 15.5535 0.704023Z" fill="#685E68"/>
<path d="M16.8177 9.12441C17.9769 7.90421 17.9769 5.92587 16.8177 4.70566C15.6585 3.48546 13.7791 3.48546 12.6199 4.70566C11.4607 5.92587 11.4607 7.90421 12.6199 9.12441C13.7791 10.3446 15.6585 10.3446 16.8177 9.12441Z" fill="#ECEFF1"/>
<path fill-rule="evenodd" clip-rule="evenodd" d="M13.1358 8.38631H17.2372C17.6283 8.38631 17.9618 8.6058 18.1032 8.95627L19.5754 12.605C19.6177 12.7067 19.6391 12.8167 19.6382 12.9277V17.4419C19.6379 17.5972 19.5792 17.7461 19.4748 17.8559C19.3705 17.9657 19.2291 18.0275 19.0815 18.0278H1.97412C1.7774 18.0274 1.58884 17.945 1.44974 17.7986C1.31063 17.6521 1.23232 17.4537 1.23193 17.2466V6.66064C1.23232 6.45357 1.31063 6.25509 1.44974 6.10866C1.58884 5.96224 1.7774 5.8798 1.97412 5.87939H12.3937C12.5904 5.8798 12.7789 5.96224 12.918 6.10866C13.0571 6.25509 13.1355 6.45357 13.1358 6.66064V8.38631Z" fill="#FFD064"/>
<path d="M13.1357 8.38623H13.6323V18.0278H13.1357V8.38623Z" fill="#FFC338"/>
<path fill-rule="evenodd" clip-rule="evenodd" d="M18.6965 14.9624H19.6384V16.6371H18.6965C18.6285 16.6369 18.5633 16.6084 18.5152 16.5578C18.4671 16.5072 18.4401 16.4386 18.4399 16.367V15.2325C18.4401 15.1609 18.4671 15.0923 18.5152 15.0417C18.5633 14.9911 18.6285 14.9625 18.6965 14.9624Z" fill="#837683"/>
<path d="M19.3042 14.9624H19.6382V16.6371H19.3042V14.9624Z" fill="#685E68"/>
<path fill-rule="evenodd" clip-rule="evenodd" d="M18.2388 12.3644L17.2144 9.82536C17.1866 9.75427 17.1393 9.69358 17.0784 9.65116C17.0175 9.60874 16.946 9.58654 16.873 9.58743H14.6479C14.5496 9.58762 14.4553 9.62884 14.3858 9.70206C14.3162 9.77527 14.277 9.87451 14.2769 9.97805V12.2456C14.277 12.3491 14.3162 12.4484 14.3858 12.5216C14.4553 12.5948 14.5496 12.636 14.6479 12.6362H18.0681C18.0987 12.6362 18.1289 12.6282 18.1559 12.6129C18.1828 12.5976 18.2058 12.5756 18.2227 12.5487C18.2396 12.5218 18.2499 12.4909 18.2527 12.4587C18.2555 12.4266 18.2507 12.3943 18.2388 12.3646L18.2388 12.3644Z" fill="#ECEFF1"/>
<path fill-rule="evenodd" clip-rule="evenodd" d="M14.6479 12.2456V9.97803C14.6481 9.87449 14.6873 9.77524 14.7568 9.70203C14.8264 9.62882 14.9207 9.5876 15.019 9.5874H14.6479C14.5496 9.5876 14.4553 9.62882 14.3858 9.70203C14.3162 9.77524 14.277 9.87449 14.2769 9.97803V12.2456C14.277 12.3491 14.3162 12.4483 14.3858 12.5216C14.4553 12.5948 14.5496 12.636 14.6479 12.6362H15.019C14.9207 12.636 14.8264 12.5948 14.7568 12.5216C14.6873 12.4483 14.6481 12.3491 14.6479 12.2456Z" fill="#D1D1D6"/>
<path fill-rule="evenodd" clip-rule="evenodd" d="M1.23193 17.2466V6.66064C1.23232 6.45357 1.31063 6.25509 1.44974 6.10866C1.58884 5.96224 1.7774 5.8798 1.97412 5.87939H12.3937C12.5904 5.8798 12.7789 5.96224 12.918 6.10866C13.0571 6.25509 13.1355 6.45357 13.1358 6.66064V18.0278H1.97412C1.7774 18.0274 1.58884 17.945 1.44974 17.7986C1.31063 17.6521 1.23232 17.4537 1.23193 17.2466Z" fill="#C48958"/>
<path fill-rule="evenodd" clip-rule="evenodd" d="M2.70696 17.2466V6.66064C2.70734 6.45357 2.78566 6.25509 2.92476 6.10866C3.06387 5.96224 3.25242 5.8798 3.44914 5.87939H1.97412C1.7774 5.8798 1.58884 5.96224 1.44974 6.10866C1.31063 6.25509 1.23232 6.45357 1.23193 6.66064V17.2466C1.23232 17.4537 1.31063 17.6521 1.44974 17.7986C1.58884 17.945 1.7774 18.0274 1.97412 18.0278H3.44796C3.25144 18.0271 3.06318 17.9445 2.92433 17.7981C2.78548 17.6517 2.70733 17.4534 2.70696 17.2466Z" fill="#B5733E"/>
<path d="M1.23193 9.99902H13.1359V11.6982H1.23193V9.99902Z" fill="#E3A76F"/>
<path d="M1.23193 9.99902H2.70703V11.6982H1.23193V9.99902Z" fill="#C48958"/>
<path d="M16.3872 19.7856C17.3095 19.7856 18.0571 18.9986 18.0571 18.0278C18.0571 17.057 17.3095 16.27 16.3872 16.27C15.4649 16.27 14.7173 17.057 14.7173 18.0278C14.7173 18.9986 15.4649 19.7856 16.3872 19.7856Z" fill="#685E68"/>
<path fill-rule="evenodd" clip-rule="evenodd" d="M16.3872 17.2466C16.2221 17.2466 16.0606 17.2981 15.9233 17.3947C15.786 17.4913 15.679 17.6285 15.6158 17.7891C15.5526 17.9497 15.5361 18.1265 15.5683 18.297C15.6005 18.4674 15.68 18.6241 15.7968 18.747C15.9136 18.8699 16.0623 18.9536 16.2243 18.9875C16.3863 19.0214 16.5542 19.004 16.7067 18.9375C16.8593 18.871 16.9897 18.7583 17.0815 18.6138C17.1732 18.4692 17.2222 18.2993 17.2222 18.1255C17.2222 18.0101 17.2007 17.8957 17.1587 17.7891C17.1168 17.6824 17.0553 17.5855 16.9777 17.5039C16.9002 17.4222 16.8081 17.3575 16.7068 17.3134C16.6055 17.2692 16.4969 17.2465 16.3872 17.2466Z" fill="#837683"/>
<path d="M7.25636 18.7062C7.60959 17.8091 7.20511 16.7805 6.35293 16.4087C5.50075 16.0369 4.52357 16.4626 4.17034 17.3597C3.81711 18.2567 4.22159 19.2853 5.07377 19.6571C5.92595 20.029 6.90313 19.6032 7.25636 18.7062Z" fill="#685E68"/>
<path fill-rule="evenodd" clip-rule="evenodd" d="M5.70996 17.2466C5.54482 17.2466 5.38339 17.2981 5.24608 17.3947C5.10877 17.4913 5.00175 17.6285 4.93856 17.7891C4.87536 17.9497 4.85883 18.1265 4.89104 18.297C4.92326 18.4674 5.00278 18.6241 5.11955 18.747C5.23633 18.8699 5.3851 18.9536 5.54707 18.9875C5.70903 19.0214 5.87692 19.004 6.02949 18.9375C6.18206 18.871 6.31246 18.7583 6.40421 18.6138C6.49595 18.4692 6.54492 18.2993 6.54492 18.1255C6.54498 18.0101 6.52342 17.8957 6.48148 17.7891C6.43954 17.6824 6.37804 17.5855 6.3005 17.5039C6.22295 17.4222 6.13088 17.3575 6.02956 17.3134C5.92823 17.2692 5.81963 17.2465 5.70996 17.2466Z" fill="#837683"/>
<path fill-rule="evenodd" clip-rule="evenodd" d="M14.4243 7.01232V5.49693C14.4243 5.41405 14.4556 5.33457 14.5113 5.27596C14.5669 5.21736 14.6425 5.18443 14.7212 5.18443C14.7999 5.18443 14.8754 5.21736 14.9311 5.27596C14.9868 5.33457 15.0181 5.41405 15.0181 5.49693V6.69978H16.194C16.2728 6.69978 16.3483 6.73271 16.4039 6.79131C16.4596 6.84992 16.4909 6.9294 16.4909 7.01228C16.4909 7.09516 16.4596 7.17465 16.4039 7.23326C16.3483 7.29186 16.2728 7.32478 16.194 7.32478H14.7212C14.6425 7.32478 14.5669 7.29186 14.5113 7.23326C14.4556 7.17465 14.4243 7.09516 14.4243 7.01228V7.01232ZM8.90211 3.91498C8.98084 3.91498 9.05635 3.9479 9.11203 4.00651C9.1677 4.06511 9.19898 4.1446 9.19898 4.22748C9.19898 4.31036 9.1677 4.38985 9.11203 4.44845C9.05635 4.50706 8.98084 4.53998 8.90211 4.53998H4.78297C4.70423 4.53998 4.62872 4.50706 4.57304 4.44845C4.51737 4.38985 4.48609 4.31036 4.48609 4.22748C4.48609 4.1446 4.51737 4.06511 4.57304 4.00651C4.62872 3.9479 4.70423 3.91498 4.78297 3.91498H8.90211ZM3.7439 2.62592C3.7439 2.54304 3.77518 2.46355 3.83086 2.40495C3.88653 2.34634 3.96204 2.31342 4.04078 2.31342H7.4734C7.55213 2.31342 7.62764 2.34634 7.68332 2.40495C7.73899 2.46355 7.77027 2.54304 7.77027 2.62592C7.77027 2.7088 7.73899 2.78828 7.68332 2.84689C7.62764 2.90549 7.55213 2.93842 7.4734 2.93842H4.04078C3.96204 2.93842 3.88653 2.90549 3.83086 2.84689C3.77518 2.78828 3.7439 2.7088 3.7439 2.62592ZM5.22828 1.02436C5.22828 0.941475 5.25956 0.86199 5.31523 0.803385C5.37091 0.744779 5.44642 0.711855 5.52515 0.711855H8.77222C8.85096 0.711855 8.92647 0.744779 8.98215 0.803385C9.03782 0.86199 9.0691 0.941475 9.0691 1.02436C9.0691 1.10724 9.03782 1.18672 8.98215 1.24533C8.92647 1.30393 8.85096 1.33686 8.77222 1.33686H5.52515C5.44642 1.33686 5.37091 1.30393 5.31523 1.24533C5.25956 1.18672 5.22828 1.10724 5.22828 1.02436ZM16.8929 18.1259C16.893 18.2312 16.8633 18.3342 16.8077 18.4217C16.7521 18.5093 16.6732 18.5775 16.5807 18.6178C16.4883 18.6581 16.3866 18.6687 16.2885 18.6482C16.1904 18.6276 16.1002 18.5769 16.0295 18.5024C15.9588 18.428 15.9106 18.3331 15.8911 18.2298C15.8715 18.1266 15.8816 18.0195 15.9198 17.9222C15.9581 17.8249 16.023 17.7418 16.1061 17.6833C16.1893 17.6248 16.2871 17.5935 16.3871 17.5935C16.4536 17.5935 16.5194 17.6072 16.5807 17.634C16.6421 17.6607 16.6979 17.6999 16.7449 17.7494C16.7918 17.7988 16.8291 17.8575 16.8545 17.9221C16.8799 17.9867 16.893 18.056 16.8929 18.1259ZM6.21569 18.1259C6.21564 18.2311 6.18596 18.334 6.1304 18.4215C6.07483 18.5089 5.99588 18.5771 5.90351 18.6174C5.81115 18.6576 5.70952 18.6681 5.61148 18.6476C5.51343 18.6271 5.42338 18.5764 5.35269 18.502C5.282 18.4276 5.23385 18.3328 5.21433 18.2296C5.19482 18.1264 5.2048 18.0194 5.24303 17.9222C5.28126 17.8249 5.34602 17.7418 5.42912 17.6833C5.51221 17.6248 5.60992 17.5936 5.70989 17.5935C5.77633 17.5935 5.84213 17.6072 5.90353 17.6339C5.96493 17.6606 6.02072 17.6998 6.0677 17.7493C6.11468 17.7987 6.15194 17.8575 6.17733 17.9221C6.20273 17.9867 6.21576 18.056 6.21569 18.1259ZM14.5735 12.4212V9.99744H16.9218L17.8996 12.4212H14.5735ZM18.5962 12.9064C18.6232 12.8634 18.6397 12.8139 18.6442 12.7625C18.6487 12.7111 18.6409 12.6593 18.6217 12.6118L17.3917 9.56268C17.3689 9.50623 17.3308 9.45809 17.2822 9.42427C17.2336 9.39046 17.1766 9.37246 17.1183 9.37252H14.2765C14.1978 9.37252 14.1223 9.40544 14.0666 9.46405C14.011 9.52265 13.9797 9.60214 13.9797 9.68502V12.7337C13.9798 12.8165 14.0111 12.896 14.0667 12.9546C14.1224 13.0132 14.1978 13.0461 14.2765 13.0462H18.3483C18.3973 13.0461 18.4457 13.0333 18.4889 13.0089C18.5322 12.9845 18.569 12.9491 18.5962 12.9061V12.9064ZM19.3413 15.3729V16.4226H18.7367V15.3729H19.3413ZM19.0815 17.8131C19.1504 17.813 19.2164 17.7842 19.2651 17.7329C19.3138 17.6817 19.3412 17.6122 19.3413 17.5397V17.0475H18.6963C18.5497 17.0473 18.409 16.9859 18.3053 16.8767C18.2016 16.7675 18.1433 16.6194 18.1431 16.465V15.3306C18.1432 15.1761 18.2016 15.0281 18.3053 14.9189C18.409 14.8097 18.5496 14.7482 18.6963 14.748H19.3413V13.0254C19.3421 12.9563 19.3287 12.8878 19.3019 12.8247L17.8299 9.17623C17.7355 8.94185 17.5085 8.79658 17.2373 8.79658H13.4327V17.8131H14.6311C14.7012 17.3762 14.916 16.9796 15.2374 16.6935C15.5589 16.4075 15.9662 16.2506 16.3871 16.2506C16.808 16.2506 17.2153 16.4075 17.5368 16.6935C17.8582 16.9796 18.073 17.3762 18.1431 17.8131H19.0815ZM16.3871 19.3756C16.622 19.3756 16.8516 19.3023 17.0469 19.1649C17.2422 19.0276 17.3944 18.8324 17.4842 18.604C17.5741 18.3756 17.5976 18.1242 17.5518 17.8817C17.506 17.6393 17.3929 17.4165 17.2268 17.2417C17.0608 17.0669 16.8492 16.9479 16.6188 16.8996C16.3885 16.8514 16.1497 16.8761 15.9327 16.9708C15.7157 17.0654 15.5303 17.2256 15.3998 17.4311C15.2693 17.6367 15.1996 17.8784 15.1996 18.1256C15.1999 18.457 15.3252 18.7748 15.5478 19.0091C15.7704 19.2435 16.0723 19.3753 16.3871 19.3756ZM5.70989 16.2506C6.13067 16.2511 6.53773 16.4082 6.85908 16.6942C7.18043 16.9801 7.39538 17.3764 7.4659 17.8131H12.839V12.1088H1.52881V17.3443C1.52891 17.4686 1.57586 17.5877 1.65935 17.6756C1.74284 17.7635 1.85605 17.8129 1.97412 17.813H3.95383C4.02445 17.3764 4.23941 16.9801 4.56073 16.6942C4.88206 16.4083 5.28906 16.2511 5.70981 16.2505L5.70989 16.2506ZM5.70989 19.3756C5.94475 19.3756 6.17434 19.3023 6.36962 19.1649C6.56491 19.0276 6.71711 18.8324 6.80699 18.604C6.89687 18.3756 6.92039 18.1242 6.87457 17.8817C6.82875 17.6393 6.71565 17.4165 6.54957 17.2417C6.3835 17.0669 6.17191 16.9479 5.94155 16.8996C5.7112 16.8514 5.47244 16.8761 5.25545 16.9708C5.03846 17.0654 4.853 17.2256 4.72251 17.4311C4.59203 17.6367 4.52238 17.8784 4.52238 18.1256C4.52266 18.457 4.64786 18.7748 4.8705 19.0092C5.09314 19.2435 5.39502 19.3753 5.70989 19.3756ZM1.97412 6.28955H12.3936C12.5117 6.28968 12.6249 6.33911 12.7084 6.42699C12.7918 6.51487 12.8388 6.63402 12.8389 6.7583V9.78471H1.52881V6.75818C1.5289 6.63389 1.57584 6.51472 1.65934 6.42683C1.74283 6.33894 1.85604 6.28953 1.97412 6.28943V6.28955ZM14.7212 2.93018C13.9165 2.92789 13.1312 3.19012 12.4749 3.68027C11.8187 4.17042 11.3241 4.86402 11.0604 5.66428H11.4215C11.5909 5.20559 11.8449 4.78675 12.1688 4.43195C12.4928 4.07715 12.8803 3.79341 13.309 3.59712C13.7377 3.40083 14.1991 3.29587 14.6666 3.28831C15.134 3.28075 15.5982 3.37073 16.0325 3.55306C16.4667 3.7354 16.8623 4.00647 17.1965 4.35062C17.5306 4.69478 17.7967 5.1052 17.9794 5.5582C18.162 6.0112 18.2576 6.4978 18.2607 6.98989C18.2637 7.48199 18.1741 7.96985 17.997 8.42529C18.0957 8.50174 18.1822 8.59439 18.253 8.69971C18.5209 8.07785 18.6364 7.3952 18.5888 6.71423C18.5413 6.03326 18.3323 5.37571 17.9809 4.80175C17.6296 4.22779 17.1471 3.75575 16.5776 3.42881C16.0081 3.10187 15.3699 2.93049 14.7212 2.93033V2.93018ZM14.126 1.50502H15.3163V2.34705C15.119 2.31919 14.9202 2.30522 14.7211 2.30521C14.5221 2.30528 14.3233 2.31907 14.126 2.3465V1.50502ZM13.3968 0.752754C13.3972 0.71914 13.4101 0.687034 13.4327 0.663282C13.4553 0.63953 13.4858 0.62601 13.5178 0.625605H15.9247C15.9408 0.625309 15.9567 0.62838 15.9716 0.634638C15.9865 0.640896 16.0001 0.650216 16.0115 0.662054C16.023 0.673892 16.0321 0.688011 16.0383 0.703586C16.0445 0.719162 16.0477 0.735883 16.0477 0.752773C16.0477 0.769663 16.0445 0.786384 16.0383 0.80196C16.0321 0.817536 16.023 0.831655 16.0115 0.843493C16.0001 0.855331 15.9865 0.864651 15.9716 0.870909C15.9567 0.877167 15.9408 0.880237 15.9247 0.879941H13.5178C13.4858 0.879537 13.4553 0.866012 13.4327 0.842251C13.4101 0.81849 13.3972 0.786374 13.3968 0.752754ZM12.3936 5.66443C12.6691 5.66473 12.9332 5.78006 13.128 5.98512C13.3228 6.19017 13.4324 6.46819 13.4327 6.75818V8.1715H17.2372C17.3075 8.17164 17.3778 8.17743 17.4473 8.18881C17.5933 7.81566 17.6679 7.41587 17.6668 7.01232C17.6667 6.31004 17.4402 5.62858 17.0243 5.07944C16.6084 4.53031 16.0278 4.14602 15.3774 3.98946C14.727 3.8329 14.0454 3.91334 13.4441 4.21762C12.8429 4.52189 12.3575 5.03199 12.0674 5.66443H12.3936ZM12.8389 11.4837H1.52881V10.4095H12.839V11.4837H12.8389ZM19.8486 12.5806L18.5694 9.41033C18.9194 8.78773 19.1284 8.0886 19.1801 7.36723C19.2318 6.64585 19.125 5.92163 18.8678 5.25077C18.6105 4.57992 18.2099 3.98048 17.697 3.49898C17.1841 3.01748 16.5727 2.66688 15.9102 2.47439V1.50502H15.9247C16.1143 1.50502 16.296 1.42576 16.4301 1.28469C16.5641 1.14361 16.6394 0.952267 16.6394 0.752754C16.6394 0.553241 16.5641 0.361899 16.4301 0.220822C16.296 0.0797446 16.1143 0.000488281 15.9247 0.000488281H13.5178C13.3282 0.000488281 13.1465 0.0797446 13.0124 0.220822C12.8784 0.361899 12.8031 0.553241 12.8031 0.752754C12.8031 0.952267 12.8784 1.14361 13.0124 1.28469C13.1465 1.42576 13.3282 1.50502 13.5178 1.50502H13.5321V2.47283C12.9499 2.64104 12.4065 2.93278 11.9353 3.33014C11.2225 3.93024 10.6998 4.74432 10.4368 5.66436H1.97412C1.69863 5.66466 1.43451 5.77999 1.23971 5.98504C1.04491 6.19009 0.935343 6.46812 0.935059 6.75811L0.935059 17.344C0.935343 17.634 1.04491 17.9121 1.23971 18.1171C1.43451 18.3222 1.69863 18.4375 1.97412 18.4378H3.95383C4.0239 18.8747 4.23871 19.2713 4.56016 19.5574C4.88161 19.8434 5.28891 20.0003 5.70983 20.0003C6.13074 20.0003 6.53805 19.8434 6.8595 19.5574C7.18095 19.2713 7.39576 18.8747 7.46583 18.4378H14.6311C14.7012 18.8747 14.916 19.2713 15.2374 19.5574C15.5589 19.8434 15.9662 20.0003 16.3871 20.0003C16.808 20.0003 17.2153 19.8434 17.5368 19.5574C17.8582 19.2713 18.073 18.8747 18.1431 18.4378H19.0815C19.3078 18.4375 19.5248 18.3428 19.6848 18.1743C19.8448 18.0059 19.9348 17.7776 19.9351 17.5394V13.0255C19.9359 12.8725 19.9065 12.721 19.8486 12.5806H19.8486Z" fill="black"/>
</g>
<defs>
<clipPath id="clip0_1615_1913">
<rect width="19" height="20" fill="white" transform="translate(0.935059)"/>
</clipPath>
</defs>
</svg>
