<svg width="14" height="15" viewBox="0 0 14 15" fill="none" xmlns="http://www.w3.org/2000/svg">
<path d="M8.31958 2.60008C7.69775 1.97708 7.38625 1.66675 7.00008 1.66675C6.61391 1.66675 6.30241 1.97766 5.68058 2.60008C5.30725 2.97341 4.93741 3.14608 4.40541 3.14608C3.94108 3.14608 3.27958 3.05625 2.91675 3.422C2.55625 3.78541 2.64608 4.444 2.64608 4.90541C2.64608 5.43741 2.47283 5.80725 2.0995 6.18058C1.47766 6.80241 1.16675 7.11391 1.16675 7.50008C1.16675 7.88625 1.47766 8.19775 2.10008 8.81958C2.51775 9.23783 2.64608 9.50791 2.64608 10.0947C2.64608 10.5591 2.55625 11.2206 2.922 11.5834C3.28541 11.9433 3.944 11.8541 4.40541 11.8541C4.97183 11.8541 5.24541 11.9649 5.64966 12.3692C5.99383 12.7133 6.45525 13.3334 7.00008 13.3334C7.54491 13.3334 8.00633 12.7133 8.3505 12.3692C8.75533 11.9649 9.02833 11.8541 9.59475 11.8541C10.0562 11.8541 10.7147 11.9439 11.0782 11.5834M11.0782 11.5834C11.4439 11.2206 11.3541 10.5591 11.3541 10.0947C11.3541 9.50791 11.4824 9.23783 11.9001 8.81958C12.5225 8.19775 12.8334 7.88625 12.8334 7.50008C12.8334 7.11391 12.5225 6.80241 11.9007 6.18058M11.0782 11.5834H11.0834" stroke="#A7004D" stroke-linecap="round" stroke-linejoin="round"/>
<path d="M4.66675 6.51308C4.66675 6.51308 5.97925 6.33341 7.00008 8.66675C7.00008 8.66675 9.95117 2.83341 12.8334 1.66675" stroke="#A7004D" stroke-linecap="round" stroke-linejoin="round"/>
</svg>
