<svg width="27" height="27" viewBox="0 0 27 27" fill="none" xmlns="http://www.w3.org/2000/svg">
<g clip-path="url(#clip0_1656_3003)">
<path fill-rule="evenodd" clip-rule="evenodd" d="M19.1561 25.472V26.2204C19.1561 26.4675 18.8715 26.6187 18.667 26.4607L15.7426 24.2008C15.5852 24.0792 15.5852 23.8422 15.7426 23.7205L18.667 21.4607C18.8715 21.3026 19.1562 21.4539 19.1561 21.701V22.3834C24.2972 21.5545 25.6132 16.8087 25.776 13.1875C28.1156 18.3542 24.7207 24.7987 19.1561 25.472Z" fill="#72D561"/>
<path fill-rule="evenodd" clip-rule="evenodd" d="M15.8734 24.3019L15.7426 24.2008C15.5852 24.0792 15.5852 23.8422 15.7426 23.7205L18.667 21.4607C18.8715 21.3026 19.1562 21.4539 19.1561 21.701V22.3834V23.0659C24.2972 22.2369 25.6132 17.4911 25.776 13.8699C26.2388 14.892 26.4764 15.964 26.518 17.0315C26.5679 15.7415 26.3376 14.4278 25.776 13.1875C25.6132 16.8087 24.2972 21.5545 19.1561 22.3834C19.1562 22.1363 18.8715 21.985 18.667 22.1431L15.8734 24.3019Z" fill="#57CA5A"/>
<path fill-rule="evenodd" clip-rule="evenodd" d="M7.84398 1.52803V0.779574C7.84392 0.532514 8.12853 0.381271 8.33309 0.539316L11.2575 2.7992C11.4149 2.9208 11.4149 3.15784 11.2575 3.2795L8.33309 5.53933C8.12858 5.69742 7.84387 5.54613 7.84398 5.29902V4.61653C2.7028 5.44551 1.38686 10.1913 1.22402 13.8125C-1.11549 8.6458 2.27945 2.20135 7.84398 1.52803Z" fill="#72D561"/>
<path fill-rule="evenodd" clip-rule="evenodd" d="M11.1264 2.69824L11.2572 2.79933C11.4146 2.92094 11.4146 3.15798 11.2572 3.27964L8.33283 5.53946C8.12833 5.69756 7.84361 5.54627 7.84372 5.29915V4.61667V3.93423C2.70249 4.76321 1.38655 9.50905 1.22371 13.1302C0.760912 12.1081 0.523344 11.0361 0.481737 9.96857C0.431797 11.2586 0.662088 12.5724 1.22371 13.8126C1.38655 10.1914 2.70249 5.44565 7.84367 4.61667C7.84351 4.86378 8.12822 5.01507 8.33278 4.85698L11.1264 2.69824Z" fill="#57CA5A"/>
<path d="M19.6436 14.2383C23.4443 14.2383 26.5254 11.1572 26.5254 7.35645C26.5254 3.55571 23.4443 0.474609 19.6436 0.474609C15.8428 0.474609 12.7617 3.55571 12.7617 7.35645C12.7617 11.1572 15.8428 14.2383 19.6436 14.2383Z" fill="#FDB800"/>
<path fill-rule="evenodd" clip-rule="evenodd" d="M24.1045 2.11621C25.5858 3.37846 26.5256 5.25749 26.5256 7.35627C26.5256 11.157 23.4445 14.2381 19.6438 14.2381C17.545 14.2381 15.6661 13.2983 14.4038 11.817C15.6051 12.8405 17.1624 13.4587 18.8645 13.4587C22.6652 13.4587 25.7463 10.3776 25.7463 6.57691C25.7462 4.8749 25.1281 3.3175 24.1045 2.11621Z" fill="#F4A40E"/>
<path d="M19.6437 12.1601C22.2966 12.1601 24.4472 10.0095 24.4472 7.35664C24.4472 4.70379 22.2966 2.55322 19.6437 2.55322C16.9909 2.55322 14.8403 4.70379 14.8403 7.35664C14.8403 10.0095 16.9909 12.1601 19.6437 12.1601Z" fill="#FFDA2D"/>
<path fill-rule="evenodd" clip-rule="evenodd" d="M19.6438 2.55322C21.0328 2.55322 22.2837 3.143 23.1608 4.08547C22.3641 3.49849 21.3799 3.15134 20.3144 3.15134C17.6616 3.15134 15.511 5.3019 15.511 7.95475C15.511 9.21864 15.9994 10.3683 16.7975 11.2259C15.6106 10.3514 14.8403 8.944 14.8403 7.35664C14.8404 4.70378 16.9909 2.55322 19.6438 2.55322Z" fill="#FFC700"/>
<path fill-rule="evenodd" clip-rule="evenodd" d="M18.8493 4.96484C18.8493 4.73186 19.0382 4.54297 19.2712 4.54297C19.5042 4.54297 19.6931 4.73186 19.6931 4.96484V5.41483C19.8433 5.43877 19.9867 5.48681 20.1195 5.55494C20.3223 5.65909 20.4961 5.80849 20.6264 5.98863C20.7629 6.177 20.7208 6.4404 20.5324 6.57693C20.3441 6.71346 20.0807 6.67138 19.9441 6.48301C19.8889 6.40655 19.8178 6.34453 19.7372 6.30314C19.6602 6.26364 19.5709 6.24123 19.4743 6.24123H19.1594C19.0009 6.24123 18.8564 6.30641 18.7513 6.41145C18.6463 6.51645 18.5811 6.66099 18.5811 6.81956C18.5811 6.97814 18.6463 7.12268 18.7513 7.22768C18.8563 7.33272 19.0009 7.3979 19.1594 7.3979H19.383C19.7745 7.3979 20.1302 7.55774 20.3877 7.81529C20.6452 8.0728 20.8051 8.42849 20.8051 8.81994C20.8051 9.21144 20.6452 9.56708 20.3877 9.82463C20.2002 10.0122 19.9606 10.1479 19.6931 10.2078V10.6747C19.6931 10.9076 19.5042 11.0965 19.2712 11.0965C19.0382 11.0965 18.8493 10.9076 18.8493 10.6747V10.2247C18.6991 10.2007 18.5556 10.1527 18.423 10.0846C18.2201 9.98041 18.0463 9.83101 17.9161 9.65087C17.7795 9.46251 17.8216 9.1991 18.01 9.06257C18.1984 8.92604 18.4618 8.96812 18.5983 9.15649C18.6536 9.23295 18.7246 9.29497 18.8052 9.33637C18.8822 9.37586 18.9715 9.39828 19.0681 9.39828H19.3829C19.5415 9.39828 19.686 9.33304 19.791 9.22805C19.896 9.12305 19.9613 8.97851 19.9613 8.81988C19.9613 8.66131 19.8961 8.51677 19.791 8.41177C19.6861 8.30673 19.5415 8.24155 19.3829 8.24155H19.1593C18.7678 8.24155 18.4122 8.08166 18.1547 7.82415C17.8971 7.5666 17.7373 7.21096 17.7373 6.81946C17.7373 6.42796 17.8971 6.07232 18.1547 5.81476C18.3422 5.62724 18.5817 5.4915 18.8493 5.4316V4.96484Z" fill="#FFC700"/>
<path d="M7.35645 26.5254C11.1572 26.5254 14.2383 23.4443 14.2383 19.6436C14.2383 15.8428 11.1572 12.7617 7.35645 12.7617C3.55571 12.7617 0.474609 15.8428 0.474609 19.6436C0.474609 23.4443 3.55571 26.5254 7.35645 26.5254Z" fill="#64B5F6"/>
<path fill-rule="evenodd" clip-rule="evenodd" d="M11.8169 14.4033C13.2983 15.6656 14.2381 17.5446 14.2381 19.6434C14.2381 23.4441 11.157 26.5252 7.35627 26.5252C5.25749 26.5252 3.37851 25.5854 2.11621 24.1041C3.3175 25.1276 4.8749 25.7459 6.57685 25.7459C10.3776 25.7459 13.4587 22.6647 13.4587 18.864C13.4587 17.162 12.8405 15.6046 11.8169 14.4033Z" fill="#42A5F5"/>
<path d="M7.35664 24.4472C10.0095 24.4472 12.1601 22.2966 12.1601 19.6437C12.1601 16.9909 10.0095 14.8403 7.35664 14.8403C4.70379 14.8403 2.55322 16.9909 2.55322 19.6437C2.55322 22.2966 4.70379 24.4472 7.35664 24.4472Z" fill="#EFF4F7"/>
<path fill-rule="evenodd" clip-rule="evenodd" d="M7.35669 14.8403C8.74566 14.8403 9.99663 15.4301 10.8737 16.3726C10.077 15.7856 9.09276 15.4384 8.02731 15.4384C5.37446 15.4384 3.2239 17.589 3.2239 20.2419C3.2239 21.5057 3.71232 22.6554 4.51035 23.513C3.32346 22.6385 2.55322 21.2311 2.55322 19.6437C2.55328 16.9909 4.70384 14.8403 7.35669 14.8403Z" fill="#E2E3E3"/>
<path fill-rule="evenodd" clip-rule="evenodd" d="M8.89244 17.5884C9.2272 17.2518 9.77142 17.2503 10.108 17.585C10.4446 17.9198 10.4461 18.464 10.1113 18.8005L7.24049 21.6984C6.908 22.0327 6.36884 22.0364 6.03176 21.7084L4.61131 20.3239C4.27101 19.9929 4.26347 19.4486 4.59449 19.1084C4.9255 18.7681 5.46972 18.7605 5.81001 19.0915L6.62049 19.8816L8.89244 17.5884Z" fill="#64B5F6"/>
<path fill-rule="evenodd" clip-rule="evenodd" d="M8.89287 17.5884C9.22762 17.2518 9.77184 17.2503 10.1084 17.585C10.3455 17.8207 10.4163 18.1603 10.3206 18.4582C10.2799 18.3316 10.2092 18.2126 10.1084 18.1124C9.77184 17.7776 9.22762 17.7791 8.89287 18.1157L6.62091 20.409L5.81044 19.6189C5.47014 19.2879 4.92592 19.2955 4.59491 19.6358C4.49935 19.734 4.43207 19.8492 4.39283 19.9714C4.2987 19.6784 4.36541 19.3443 4.59491 19.1084C4.92592 18.7681 5.47014 18.7606 5.81044 19.0916L6.62091 19.8817L8.89287 17.5884Z" fill="#42A5F5"/>
<path fill-rule="evenodd" clip-rule="evenodd" d="M9.81181 18.5035L6.94158 21.4008C6.77331 21.5699 6.49719 21.5727 6.32649 21.4066L4.90567 20.0217C4.73265 19.8536 4.72885 19.5755 4.89712 19.4027C4.97865 19.3188 5.08792 19.2718 5.20478 19.2704H5.211C5.32564 19.2704 5.4337 19.3141 5.5158 19.3938L6.32617 20.1837C6.49213 20.3456 6.75733 20.3436 6.92038 20.1784L9.19218 17.8855C9.27455 17.8027 9.38419 17.7574 9.50094 17.7569H9.50221C9.61859 17.7569 9.72817 17.8022 9.81076 17.8845C9.89365 17.9668 9.93948 18.0765 9.93974 18.1934C9.94001 18.31 9.89487 18.4202 9.81181 18.5035ZM9.50215 16.9129C9.50099 16.9129 9.49973 16.9129 9.49857 16.9129C9.15627 16.9141 8.83491 17.048 8.59349 17.2912C8.59328 17.2912 8.59317 17.2912 8.59291 17.2918L6.61547 19.2877L6.10432 18.7893C5.86327 18.5547 5.54686 18.4267 5.21126 18.4267C5.20525 18.4267 5.19913 18.4267 5.19312 18.4267C4.85082 18.4314 4.53088 18.5689 4.29221 18.8141C3.79962 19.321 3.8108 20.1336 4.3171 20.626L5.73782 22.0109C5.98535 22.2519 6.30814 22.372 6.63087 22.372C6.96094 22.372 7.29095 22.2462 7.54033 21.9957L10.4107 19.0984C10.6521 18.8551 10.7844 18.533 10.7836 18.1908C10.7826 17.8486 10.6485 17.5275 10.4058 17.286C10.1638 17.0455 9.84319 16.9129 9.50215 16.9129ZM7.3565 24.0248C9.77236 24.0248 11.7379 22.0594 11.7379 19.6436C11.7379 17.2273 9.77242 15.262 7.3565 15.262C4.94053 15.262 2.97506 17.2273 2.97506 19.6436C2.97506 22.0594 4.94047 24.0248 7.3565 24.0248ZM7.3565 14.4183C4.47525 14.4183 2.13126 16.7623 2.13126 19.6436C2.13126 22.5245 4.4752 24.8687 7.3565 24.8687C10.2376 24.8687 12.5817 22.5245 12.5817 19.6436C12.5817 16.7622 10.2376 14.4183 7.3565 14.4183ZM2.03402 6.01662C3.32379 3.72468 5.45991 2.24132 7.89465 1.94658C8.10654 1.92122 8.2659 1.74139 8.2659 1.52777V1.02036L10.8784 3.03919L8.2659 5.05775V4.61653C8.2659 4.49292 8.21169 4.37527 8.11756 4.29516C8.02354 4.21506 7.89908 4.18025 7.77695 4.19992C3.15684 4.94485 1.54728 8.64802 1.02125 11.7257C0.68966 9.82246 1.03438 7.79272 2.03402 6.01662ZM1.22386 14.2342C1.25028 14.2342 1.27702 14.232 1.3037 14.2267C1.49539 14.1899 1.63677 14.0263 1.64547 13.8313C1.77293 10.9967 2.70295 6.18796 7.42215 5.12694V5.2988C7.42194 5.57787 7.57788 5.82783 7.82905 5.95118C8.07827 6.07405 8.37021 6.04346 8.59106 5.87308L11.5156 3.61346C11.6947 3.47467 11.7975 3.26552 11.7975 3.03919C11.7975 2.81285 11.6947 2.60371 11.5156 2.46538L8.59101 0.205294C8.37016 0.0349096 8.07812 0.00485105 7.829 0.127195C7.57793 0.25054 7.42199 0.500554 7.4221 0.779572V1.16237C4.87292 1.58894 2.65613 3.19043 1.29869 5.6025C-0.177873 8.22598 -0.349471 11.3601 0.839637 13.9863C0.90893 14.1392 1.0607 14.2342 1.22386 14.2342ZM24.9661 20.983C23.6764 23.2749 21.5402 24.7583 19.1053 25.0532C18.8935 25.0784 18.7341 25.2584 18.7341 25.4718V25.9792L16.1217 23.9605L18.7341 21.9417V22.3832C18.7341 22.5071 18.7884 22.6242 18.8824 22.7043C18.9765 22.7844 19.101 22.8197 19.2231 22.7998C23.8432 22.0547 25.4526 18.3515 25.9789 15.2741C26.3102 17.1773 25.9658 19.2069 24.9661 20.983ZM25.6961 12.7735C25.5046 12.8099 25.3633 12.9738 25.3546 13.1685C25.227 16.0029 24.297 20.8116 19.5778 21.8726V21.7013C19.5781 21.4219 19.4221 21.1717 19.1709 21.0483C18.9217 20.9262 18.6298 20.9561 18.4089 21.1264L15.4846 23.3868C15.3053 23.5248 15.2025 23.7343 15.2025 23.9606C15.2025 24.1867 15.3053 24.3961 15.4845 24.5349L18.409 26.7945C18.5398 26.8957 18.6954 26.9475 18.8523 26.9475C18.9606 26.9475 19.0693 26.9226 19.171 26.8724C19.4221 26.749 19.578 26.4991 19.5779 26.2202V25.8372C22.1271 25.4106 24.3439 23.8091 25.7014 21.3971C27.1778 18.7736 27.3494 15.6395 26.1603 13.0133C26.0799 12.8357 25.8877 12.7365 25.6961 12.7735ZM18.1097 6.35613C18.1097 5.6786 18.5861 5.11007 19.2217 4.96826V4.50141C19.2217 4.26837 19.4106 4.07958 19.6436 4.07958C19.8765 4.07958 20.0655 4.26837 20.0655 4.50141V4.95134C20.4365 5.00977 20.7752 5.21495 20.9994 5.52514C21.1359 5.71393 21.0936 5.97755 20.9048 6.11408C20.7159 6.25061 20.4522 6.20858 20.3158 6.01958C20.2063 5.86833 20.0309 5.77758 19.8467 5.77758H19.5318C19.2128 5.77758 18.9535 6.03698 18.9535 6.35607C18.9535 6.67517 19.2129 6.93457 19.5318 6.93457H19.7554C20.5395 6.93457 21.1774 7.57229 21.1774 8.35624C21.1774 9.03398 20.701 9.60303 20.0655 9.74484V10.2114C20.0655 10.444 19.8765 10.6335 19.6436 10.6335C19.4106 10.6335 19.2217 10.444 19.2217 10.2114V9.76124C18.8506 9.70328 18.5119 9.49762 18.2877 9.18743C18.1512 8.99865 18.1935 8.73503 18.3824 8.59844C18.5711 8.46192 18.8349 8.50442 18.9714 8.69321C19.0809 8.84466 19.2563 8.93473 19.4405 8.93473H19.7554C20.0742 8.93473 20.3337 8.67533 20.3337 8.35624C20.3337 8.03788 20.0742 7.77821 19.7554 7.77821H19.5318C18.7475 7.77827 18.1097 7.14029 18.1097 6.35613ZM19.6436 2.9748C17.2276 2.9748 15.2621 4.94042 15.2621 7.35644C15.2621 9.77226 17.2276 11.7376 19.6436 11.7376C22.0595 11.7376 24.0251 9.77226 24.0251 7.35644C24.0251 4.94042 22.0595 2.9748 19.6436 2.9748ZM19.6436 12.5815C22.5248 12.5815 24.8689 10.2374 24.8689 7.35644C24.8689 4.47504 22.5248 2.13115 19.6436 2.13115C16.7623 2.13115 14.4183 4.47504 14.4183 7.35644C14.4183 10.2373 16.7623 12.5815 19.6436 12.5815ZM19.6436 0.896484C23.2056 0.896484 26.1036 3.79429 26.1036 7.35644C26.1036 10.9183 23.2056 13.8164 19.6436 13.8164C16.0815 13.8164 13.1835 10.9183 13.1835 7.35644C13.1835 3.79434 16.0815 0.896484 19.6436 0.896484ZM19.6436 14.6603C15.6163 14.6603 12.3399 11.3839 12.3399 7.35644C12.3398 3.32923 15.6163 0.0528393 19.6436 0.0528393C23.6708 0.0528393 26.9472 3.32923 26.9472 7.35644C26.9472 11.3839 23.6708 14.6603 19.6436 14.6603ZM7.3565 26.1036C10.9185 26.1036 13.8165 23.2052 13.8165 19.6436C13.8165 16.0815 10.9185 13.1836 7.3565 13.1836C3.79434 13.1836 0.896432 16.0815 0.896432 19.6436C0.896432 23.2052 3.79434 26.1036 7.3565 26.1036ZM7.3565 12.34C3.32917 12.34 0.0527344 15.6164 0.0527344 19.6436C0.0527344 23.6704 3.32917 26.9475 7.3565 26.9475C11.3838 26.9475 14.6602 23.6704 14.6602 19.6436C14.6602 15.6164 11.3838 12.34 7.3565 12.34Z" fill="black"/>
</g>
<defs>
<clipPath id="clip0_1656_3003">
<rect width="27" height="27" fill="white"/>
</clipPath>
</defs>
</svg>
