<svg width="35" height="24" viewBox="0 0 35 24" fill="none" xmlns="http://www.w3.org/2000/svg">
<rect x="0.896484" width="34" height="24" rx="4" fill="#FBFBFB"/>
<g clip-path="url(#clip0_670_4071)">
<path d="M23.6923 8.54932H11.5104C11.2096 8.54932 10.9658 8.7931 10.9658 9.09385V10.5566H24.2368V9.09385C24.2368 8.7931 23.993 8.54932 23.6923 8.54932Z" fill="#FFB125"/>
<path d="M19.2699 5.52539L18.1667 16.6935C18.139 16.974 17.8891 17.179 17.6086 17.1513L12.0189 16.5991C11.7384 16.5714 11.5334 16.3215 11.5611 16.041L12.6643 4.87289C12.692 4.59236 12.9419 4.38739 13.2224 4.41511L18.8121 4.96727C19.0927 4.99498 19.2977 5.24486 19.2699 5.52539Z" fill="#B6FA4C"/>
<path d="M18.8123 4.96727L13.2225 4.41511C12.942 4.38739 12.6921 4.59236 12.6644 4.87289L12.5654 5.87486C12.6493 5.83227 12.7456 5.81189 12.8462 5.82183L18.4359 6.37399C18.7165 6.40171 18.9214 6.65158 18.8937 6.93211L17.8895 17.0982C18.0396 17.0219 18.1491 16.8735 18.1669 16.6935L19.2701 5.52542C19.2978 5.24486 19.0928 4.99498 18.8123 4.96727Z" fill="#A8E83A"/>
<path d="M13.2565 6.4565L12.4517 14.6039C12.4402 14.7205 12.4951 14.8342 12.5946 14.8961C12.8686 15.067 13.0808 15.3233 13.1974 15.6243C13.2393 15.7324 13.3395 15.807 13.4549 15.8184L16.3526 16.1047C16.468 16.1161 16.5808 16.0625 16.6431 15.9646C16.8163 15.6923 17.0746 15.4825 17.3768 15.3686C17.4864 15.3272 17.5625 15.2265 17.574 15.1099L18.3788 6.96251C18.3904 6.84588 18.3354 6.73222 18.236 6.67025C17.9619 6.49941 17.7498 6.24307 17.6331 5.94213C17.5912 5.83397 17.4911 5.75938 17.3757 5.74797L14.478 5.46172C14.3625 5.45031 14.2497 5.50388 14.1875 5.60175C14.0142 5.87407 13.756 6.08391 13.4538 6.19785C13.3441 6.23919 13.268 6.33988 13.2565 6.4565Z" fill="#77DD00"/>
<path d="M18.2357 6.67025C17.9616 6.49941 17.7494 6.24307 17.6328 5.94213C17.5909 5.83397 17.4908 5.75938 17.3753 5.74797L14.4777 5.46172C14.3622 5.45031 14.2494 5.50388 14.1872 5.60175C14.0139 5.87407 13.7556 6.08391 13.4535 6.19785C13.3438 6.23919 13.2677 6.33991 13.2562 6.4565L13.2256 6.76666L16.9802 7.12597C17.0956 7.13738 17.1957 7.21197 17.2377 7.32013C17.3543 7.62107 17.5665 7.87738 17.8405 8.04826C17.94 8.11026 17.9949 8.22391 17.9834 8.34051L17.2854 15.4067C17.3153 15.3931 17.3456 15.3802 17.3765 15.3686C17.4862 15.3272 17.5623 15.2265 17.5738 15.1099L18.3786 6.96251C18.39 6.84591 18.3351 6.73225 18.2357 6.67025Z" fill="#73CC00"/>
<path d="M24.0089 7.18934L17.6891 16.4631C17.5304 16.6961 17.2128 16.7562 16.9799 16.5975L12.3383 13.4343C12.1053 13.2756 12.0452 12.958 12.2039 12.7251L18.5237 3.4513C18.6825 3.21833 19 3.15821 19.233 3.31696L23.8746 6.48009C24.1075 6.63884 24.1677 6.95637 24.0089 7.18934Z" fill="#B6FA4C"/>
<path d="M23.8747 6.48011L19.2331 3.31695C19.0001 3.1582 18.6826 3.21836 18.5238 3.45129L17.9833 4.24458C18.0302 4.25927 18.0758 4.28086 18.1185 4.30995L22.7601 7.47308C22.9931 7.63183 23.0532 7.94937 22.8945 8.18234L17.1152 16.6629C17.3241 16.7282 17.5596 16.6533 17.6892 16.4631L24.0091 7.18933C24.1678 6.9564 24.1077 6.63886 23.8747 6.48011Z" fill="#A8E83A"/>
<path d="M18.2856 5.12515L13.6751 11.8906C13.6091 11.9874 13.6029 12.1135 13.6604 12.2156C13.8191 12.4969 13.8825 12.8235 13.8407 13.1435C13.8256 13.2585 13.8778 13.372 13.9736 13.4374L16.3798 15.0771C16.4756 15.1424 16.6003 15.1495 16.7019 15.0934C16.9844 14.9374 17.3116 14.877 17.6315 14.9218C17.7475 14.938 17.8626 14.8861 17.9286 14.7892L22.539 8.02379C22.605 7.92694 22.6113 7.80088 22.5537 7.69882C22.395 7.41753 22.3316 7.09085 22.3735 6.77085C22.3885 6.65584 22.3364 6.54238 22.2405 6.47703L19.8343 4.83728C19.7385 4.77197 19.6138 4.76493 19.5123 4.821C19.2297 4.977 18.9025 5.03744 18.5827 4.99262C18.4666 4.97637 18.3516 5.02831 18.2856 5.12515Z" fill="#77DD00"/>
<path d="M22.5528 7.69882C22.3942 7.41753 22.3308 7.09088 22.3726 6.77085C22.3876 6.65584 22.3355 6.54238 22.2397 6.47703L19.8335 4.83728C19.7376 4.77197 19.6129 4.76493 19.5114 4.821C19.2289 4.977 18.9017 5.03744 18.5818 4.99262C18.4657 4.97637 18.3507 5.02831 18.2847 5.12515L18.0926 5.40712L21.0997 7.43419C21.1956 7.4995 21.2477 7.61297 21.2327 7.728C21.1908 8.04804 21.2543 8.37469 21.4129 8.65597C21.4705 8.75804 21.4643 8.8841 21.3983 8.98094L17.3584 14.9091C17.449 14.9051 17.5401 14.909 17.6306 14.9217C17.7467 14.938 17.8617 14.8861 17.9277 14.7892L22.5382 8.02379C22.6042 7.92694 22.6104 7.80088 22.5528 7.69882Z" fill="#73CC00"/>
<path d="M18.8124 10.9816C19.7243 10.9816 20.4636 10.2424 20.4636 9.33042C20.4636 8.41848 19.7243 7.6792 18.8124 7.6792C17.9004 7.6792 17.1611 8.41848 17.1611 9.33042C17.1611 10.2424 17.9004 10.9816 18.8124 10.9816Z" fill="#B6FA4C"/>
<path d="M23.8812 18.772H11.1603C10.7266 18.772 10.375 18.4205 10.375 17.9867V10.215C10.375 9.78128 10.7266 9.42969 11.1603 9.42969H23.8812C24.3149 9.42969 24.6665 9.78128 24.6665 10.215V17.9867C24.6665 18.4204 24.3149 18.772 23.8812 18.772Z" fill="#FFB125"/>
<path d="M23.8808 9.42969H22.4521C22.8859 9.42969 23.2375 9.78128 23.2375 10.215V17.9868C23.2375 18.4205 22.8859 18.7721 22.4521 18.7721H23.8808C24.3146 18.7721 24.6662 18.4205 24.6662 17.9868V10.215C24.6662 9.78128 24.3146 9.42969 23.8808 9.42969Z" fill="#FF901D"/>
<path d="M25.1338 12.5996H22.2707C21.4416 12.5996 20.7695 13.2717 20.7695 14.1008C20.7695 14.9298 21.4416 15.6019 22.2707 15.6019H25.1338C25.291 15.6019 25.4184 15.4745 25.4184 15.3174V12.8841C25.4184 12.727 25.2909 12.5996 25.1338 12.5996Z" fill="#FF6D3A"/>
<path d="M25.1338 12.5996H23.7C23.8572 12.5996 23.9846 12.727 23.9846 12.8841V14.9337C23.9846 15.1013 23.8487 15.2372 23.6811 15.2372H22.2707C21.5034 15.2372 20.871 14.6614 20.7809 13.9184C20.7737 13.9782 20.7695 14.039 20.7695 14.1008C20.7695 14.9298 21.4416 15.602 22.2707 15.602H23.7001H25.1338C25.291 15.602 25.4184 15.4746 25.4184 15.3174V14.9526V12.8841C25.4184 12.727 25.2909 12.5996 25.1338 12.5996Z" fill="#ED5729"/>
<path d="M23.8812 9.42969H11.1603C10.7266 9.42969 10.375 9.78128 10.375 10.215V11.0756H24.6665V10.215C24.6665 9.78128 24.3149 9.42969 23.8812 9.42969Z" fill="#FF6D3A"/>
<path d="M24.532 9.77597C24.5038 9.73419 24.4717 9.69528 24.4361 9.65975C24.4357 9.65934 24.4353 9.65894 24.4348 9.65853C24.3997 9.6235 24.3612 9.59175 24.3199 9.56384C24.3094 9.55678 24.2988 9.54997 24.288 9.54341C24.2719 9.53366 24.2554 9.52466 24.2386 9.51603C24.2277 9.51044 24.2167 9.50512 24.2055 9.50003C24.1065 9.455 23.9967 9.42969 23.8808 9.42969H22.4521C22.8858 9.42972 23.2374 9.78131 23.2374 10.215V11.0756H24.6661V10.2151C24.6661 10.0795 24.6317 9.952 24.5713 9.84072C24.5593 9.81847 24.5461 9.79684 24.532 9.77597Z" fill="#ED5729"/>
<path d="M11.1603 18.7721H23.8812C24.3149 18.7721 24.6665 18.4205 24.6665 17.9868V17.1262H10.375V17.9868C10.375 18.4205 10.7266 18.7721 11.1603 18.7721Z" fill="#FF6D3A"/>
<path d="M23.2378 17.1262V17.9868C23.2378 17.9873 23.2378 17.9877 23.2378 17.9882C23.2377 18.0607 23.177 18.1186 23.1045 18.1186H11.1603C10.7266 18.1186 10.375 17.767 10.375 17.3333V17.9868C10.375 18.4206 10.7266 18.7722 11.1603 18.7722H22.4525H23.8812C23.8967 18.7722 23.9121 18.7716 23.9274 18.7707C23.9322 18.7704 23.9369 18.77 23.9416 18.7696C23.9523 18.7688 23.9629 18.7678 23.9734 18.7666C23.9786 18.766 23.9838 18.7653 23.9891 18.7646C23.9995 18.7631 24.0099 18.7614 24.0202 18.7596C24.0248 18.7588 24.0294 18.758 24.034 18.7571C24.0486 18.7543 24.0631 18.7511 24.0774 18.7474C24.0774 18.7474 24.0774 18.7474 24.0775 18.7474C24.0837 18.7458 24.0899 18.7439 24.0961 18.7421C24.1272 18.7333 24.1575 18.7228 24.1869 18.7104C24.1986 18.7055 24.2102 18.7002 24.2217 18.6947C24.2331 18.6892 24.2444 18.6834 24.2555 18.6774L24.2556 18.6773C24.2778 18.6653 24.2994 18.6522 24.3202 18.6381L24.3203 18.638L24.3203 18.638C24.3381 18.626 24.3552 18.6131 24.3719 18.5998C24.3727 18.5991 24.3735 18.5985 24.3743 18.5979C24.3912 18.5842 24.4075 18.5698 24.4232 18.5548C24.4417 18.5372 24.4593 18.5186 24.476 18.4993C24.5022 18.4689 24.526 18.4367 24.5473 18.4026C24.5479 18.4017 24.5485 18.4008 24.5491 18.3998C24.5569 18.3872 24.5645 18.3744 24.5717 18.3613C24.5717 18.3612 24.5717 18.3612 24.5717 18.3612V18.3611C24.5907 18.3262 24.607 18.2896 24.6206 18.2517C24.6222 18.2473 24.6235 18.2429 24.625 18.2386C24.6283 18.2289 24.6314 18.2192 24.6343 18.2093C24.6358 18.2043 24.6372 18.1993 24.6386 18.1942C24.6413 18.1843 24.6438 18.1743 24.6461 18.1643C24.6472 18.1597 24.6483 18.1551 24.6493 18.1505C24.6524 18.136 24.6552 18.1214 24.6574 18.1067C24.6574 18.1066 24.6575 18.1065 24.6575 18.1064C24.6575 18.1064 24.6575 18.1063 24.6575 18.1063C24.6601 18.089 24.662 18.0715 24.6634 18.0539C24.6638 18.0495 24.6642 18.045 24.6645 18.0406C24.6657 18.0228 24.6665 18.0049 24.6665 17.9868V17.3333V17.1263H23.2378V17.1262Z" fill="#ED5729"/>
<path d="M22.324 14.7981C22.7089 14.7981 23.021 14.486 23.021 14.1011C23.021 13.7161 22.7089 13.4041 22.324 13.4041C21.939 13.4041 21.627 13.7161 21.627 14.1011C21.627 14.486 21.939 14.7981 22.324 14.7981Z" fill="#F2F2F2"/>
<path d="M25.1335 12.3717H24.894V11.0756V10.215C24.894 9.87357 24.7241 9.57125 24.4645 9.38757V9.09391C24.4645 8.66794 24.118 8.32141 23.692 8.32141H23.5133L24.1973 7.31766C24.4266 6.98122 24.3394 6.52094 24.0029 6.29162L19.3613 3.12846C19.1984 3.01737 19.0019 2.97637 18.8081 3.01315C18.6143 3.04987 18.4464 3.15984 18.3353 3.32284L14.329 9.20169H13.2142L13.4831 6.47887C13.4862 6.44819 13.5061 6.42159 13.5339 6.41112C13.8805 6.28047 14.1808 6.03647 14.3795 5.72409C14.3952 5.6995 14.4247 5.68543 14.4553 5.68853L16.2039 5.86128C16.3292 5.87344 16.4408 5.78212 16.4532 5.65681C16.4655 5.5315 16.374 5.4199 16.2487 5.40753L14.5001 5.23478C14.2971 5.2149 14.1036 5.30843 13.9948 5.47931C13.8487 5.709 13.6279 5.88837 13.3731 5.98444C13.1813 6.05675 13.0496 6.229 13.0294 6.43403L12.756 9.20166H12.4653L12.8906 4.89528C12.906 4.74028 13.0443 4.6264 13.1995 4.64193L16.7331 4.991C16.8584 5.00309 16.97 4.91184 16.9823 4.78653C16.9947 4.66121 16.9032 4.54962 16.7779 4.53725L13.2443 4.18818C12.8392 4.14821 12.4769 4.44524 12.4369 4.85043L12.094 8.32138H11.5101C11.0841 8.32138 10.7376 8.66791 10.7376 9.09388V9.29419C10.3891 9.45463 10.1465 9.80688 10.1465 10.215V11.0756V17.1261V17.9867C10.1465 18.5454 10.601 19 11.1598 19H23.8807C24.4395 19 24.894 18.5454 24.894 17.9867V17.1261V15.83H25.1335C25.4161 15.83 25.646 15.6001 25.646 15.3175V12.8842C25.646 12.6016 25.4161 12.3717 25.1335 12.3717ZM23.692 8.77735C23.8666 8.77735 24.0086 8.91935 24.0086 9.09391V9.21007C23.9666 9.20475 23.924 9.20172 23.8807 9.20172H22.9134L23.2025 8.77738H23.692V8.77735ZM18.7121 3.57959C18.7546 3.51724 18.8188 3.47518 18.8929 3.46112C18.9107 3.45777 18.9284 3.45609 18.9461 3.45609C19.0023 3.45609 19.0571 3.4729 19.1046 3.50521L23.7462 6.66834C23.8749 6.75606 23.9082 6.93212 23.8205 7.06081L22.3616 9.20163H22.0115L22.7268 8.15203C22.8428 7.98181 22.8523 7.76519 22.7516 7.58666C22.6178 7.34947 22.5636 7.07019 22.5989 6.80022C22.6251 6.59937 22.5368 6.40331 22.3683 6.2885L19.9621 4.64875C19.7935 4.5339 19.5787 4.52337 19.4014 4.62128C19.1631 4.75284 18.8833 4.8045 18.6137 4.76675C18.4137 4.73868 18.2108 4.829 18.0965 4.99665L15.2309 9.20166H14.8808L18.7121 3.57959ZM18.8125 7.45119C17.8197 7.45119 17.0047 8.22535 16.9382 9.20166H15.7827L18.4733 5.25343C18.4733 5.25343 18.4733 5.25343 18.4733 5.25343C18.4886 5.23097 18.5139 5.21759 18.5399 5.21759C18.5434 5.21759 18.5469 5.21784 18.5503 5.21831C18.9172 5.26962 19.2976 5.19943 19.6218 5.02046C19.6473 5.00634 19.68 5.00837 19.7053 5.02556L22.1115 6.66534C22.1367 6.68253 22.1505 6.71228 22.1468 6.74116C22.0987 7.10831 22.1725 7.48813 22.3545 7.81069C22.3691 7.8366 22.3673 7.86978 22.35 7.89525L21.4598 9.20163H20.6868C20.6204 8.22535 19.8054 7.45119 18.8125 7.45119ZM20.2296 9.20169H17.3954C17.4607 8.47703 18.0712 7.90719 18.8125 7.90719C19.5539 7.90716 20.1643 8.47703 20.2296 9.20169ZM11.1935 9.09388C11.1935 8.91932 11.3355 8.77732 11.5101 8.77732H12.049L12.0071 9.20166H11.1935V9.09388ZM10.6025 10.215C10.6025 9.90766 10.8525 9.65763 11.1598 9.65763H23.8807C24.188 9.65763 24.438 9.90766 24.438 10.215V10.8476H10.6025V10.215ZM24.438 16.8981H13.2917C13.1658 16.8981 13.0637 17.0002 13.0637 17.1261C13.0637 17.252 13.1658 17.3541 13.2917 17.3541H24.438V17.9867C24.438 18.294 24.188 18.5441 23.8807 18.5441H11.1598C10.8525 18.5441 10.6025 18.294 10.6025 17.9867V17.3541H11.8319C11.9578 17.3541 12.0599 17.252 12.0599 17.1261C12.0599 17.0002 11.9578 16.8981 11.8319 16.8981H10.6025V11.3036H24.438V12.3717H22.2704H22.2703C21.5873 12.3717 20.9957 12.7698 20.7149 13.3461C20.714 13.348 20.7129 13.3499 20.7119 13.3519C20.7096 13.3568 20.7075 13.3619 20.7052 13.3668C20.6718 13.4378 20.6427 13.5114 20.619 13.5872C20.619 13.5875 20.6189 13.5876 20.6188 13.5879C20.5684 13.75 20.5412 13.9223 20.5412 14.1009C20.5412 15.0543 21.3169 15.83 22.2703 15.83H22.2703H24.438V16.8981H24.438ZM25.19 15.3175C25.19 15.3487 25.1647 15.374 25.1335 15.374H24.666H22.2704C21.7877 15.374 21.3669 15.1041 21.151 14.7072C21.1412 14.6892 21.1319 14.6709 21.1229 14.6524C21.105 14.6153 21.0888 14.5772 21.0745 14.5382C21.0245 14.4017 20.9972 14.2544 20.9972 14.1009C20.9972 13.9473 21.0245 13.8 21.0745 13.6635C21.0889 13.6246 21.105 13.5865 21.1229 13.5494C21.1319 13.5308 21.1412 13.5125 21.151 13.4945C21.3669 13.0976 21.7877 12.8277 22.2704 12.8277H24.666H25.1335C25.1646 12.8277 25.19 12.853 25.19 12.8842V15.3175Z" fill="black"/>
<path d="M22.3244 13.1758C21.8144 13.1758 21.3994 13.5908 21.3994 14.1008C21.3994 14.6108 21.8144 15.0258 22.3244 15.0258C22.8345 15.0258 23.2494 14.6108 23.2494 14.1008C23.2494 13.5908 22.8345 13.1758 22.3244 13.1758ZM22.3244 14.5698C22.0658 14.5698 21.8554 14.3594 21.8554 14.1008C21.8554 13.8422 22.0658 13.6318 22.3244 13.6318C22.583 13.6318 22.7934 13.8422 22.7934 14.1008C22.7934 14.3594 22.583 14.5698 22.3244 14.5698Z" fill="black"/>
</g>
<defs>
<clipPath id="clip0_670_4071">
<rect width="16" height="16" fill="white" transform="translate(9.89648 3)"/>
</clipPath>
</defs>
</svg>
