<svg width="224" height="171" viewBox="0 0 224 171" fill="none" xmlns="http://www.w3.org/2000/svg">
<mask id="path-1-inside-1_1727_1759" fill="white">
<path fill-rule="evenodd" clip-rule="evenodd" d="M63.3585 138.356C55.1093 139.243 38.099 146.338 36.0509 167.624C35.1168 177.332 34.8572 161.212 34.9322 135.671C14.79 129.215 0.209473 110.334 0.209473 88.048V81.6202C0.209473 58.9335 15.3189 39.7759 36.0237 33.6611C36.0328 33.0782 36.0419 32.5005 36.0509 31.9283V0C37.2926 10.0663 43.1312 28.5157 56.8606 31.6202H173.79C201.405 31.6202 223.79 54.006 223.79 81.6202V88.048C223.79 115.662 201.405 138.048 173.79 138.048H63.4235C63.4018 138.151 63.3801 138.254 63.3585 138.356Z"/>
</mask>
<path d="M36.0509 167.624L34.0601 167.432L34.0601 167.432L36.0509 167.624ZM63.3585 138.356L63.5723 140.345L65.0154 140.19L65.3153 138.769L63.3585 138.356ZM34.9322 135.671L36.9322 135.677L36.9365 134.213L35.5427 133.766L34.9322 135.671ZM36.0237 33.6611L36.5902 35.5792L38.0005 35.1627L38.0234 33.6923L36.0237 33.6611ZM36.0509 31.9283L38.0506 31.9599L38.0509 31.9441V31.9283H36.0509ZM36.0509 0L38.0358 -0.244857L34.0509 0H36.0509ZM56.8606 31.6202L56.4195 33.5709L56.6373 33.6202H56.8606V31.6202ZM63.4235 138.048V136.048H61.8007L61.4664 137.636L63.4235 138.048ZM38.0417 167.815C39.9669 147.807 55.8895 141.171 63.5723 140.345L63.1447 136.368C54.3291 137.315 36.231 144.869 34.0601 167.432L38.0417 167.815ZM32.9322 135.665C32.8947 148.433 32.9407 158.878 33.114 164.923C33.1573 166.435 33.2091 167.689 33.2708 168.643C33.3267 169.507 33.4007 170.347 33.5473 170.864C33.5726 170.953 33.6794 171.351 33.9788 171.72C34.1404 171.919 34.5484 172.344 35.2468 172.455C36.0197 172.579 36.6039 172.24 36.9025 171.982C37.1742 171.747 37.322 171.494 37.3857 171.377C37.461 171.238 37.5113 171.111 37.5434 171.021C37.6076 170.843 37.6525 170.663 37.6849 170.515C37.8105 169.944 37.9256 169.022 38.0417 167.815L34.0601 167.432C33.9426 168.653 33.8453 169.351 33.7782 169.656C33.7624 169.728 33.7604 169.721 33.7788 169.669C33.7881 169.644 33.8159 169.569 33.8689 169.471C33.9103 169.395 34.0362 169.172 34.2862 168.956C34.5632 168.716 35.126 168.385 35.8778 168.505C36.5552 168.613 36.9424 169.024 37.0835 169.198C37.2388 169.389 37.3151 169.56 37.3415 169.622C37.3744 169.7 37.3908 169.756 37.3957 169.773C37.405 169.806 37.3826 169.725 37.3498 169.435C37.3206 169.176 37.2912 168.828 37.2625 168.385C37.2052 167.501 37.1551 166.301 37.1123 164.808C36.9411 158.835 36.8947 148.449 36.9322 135.677L32.9322 135.665ZM-1.79053 88.048C-1.79053 111.229 13.3758 130.862 34.3217 137.576L35.5427 133.766C16.2042 127.568 2.20947 109.44 2.20947 88.048H-1.79053ZM-1.79053 81.6202V88.048H2.20947V81.6202H-1.79053ZM35.4572 31.743C13.9256 38.1019 -1.79053 58.0231 -1.79053 81.6202H2.20947C2.20947 59.8439 16.7122 41.4498 36.5902 35.5792L35.4572 31.743ZM34.0511 31.8968C34.0421 32.4691 34.033 33.0469 34.0239 33.6299L38.0234 33.6923C38.0325 33.1095 38.0416 32.532 38.0506 31.9599L34.0511 31.8968ZM34.0509 0V31.9283H38.0509V0H34.0509ZM57.3017 29.6694C51.2529 28.3017 46.7441 23.5044 43.5384 17.4812C40.3473 11.4854 38.634 4.60398 38.0358 -0.244857L34.0659 0.244857C34.7095 5.46235 36.5364 12.8388 40.0073 19.3605C43.4637 25.8546 48.7389 31.8342 56.4195 33.5709L57.3017 29.6694ZM173.79 29.6202H56.8606V33.6202H173.79V29.6202ZM225.79 81.6202C225.79 52.9014 202.509 29.6202 173.79 29.6202V33.6202C200.3 33.6202 221.79 55.1105 221.79 81.6202H225.79ZM225.79 88.048V81.6202H221.79V88.048H225.79ZM173.79 140.048C202.509 140.048 225.79 116.767 225.79 88.048H221.79C221.79 114.558 200.3 136.048 173.79 136.048V140.048ZM63.4235 140.048H173.79V136.048H63.4235V140.048ZM65.3153 138.769C65.337 138.667 65.3588 138.563 65.3806 138.46L61.4664 137.636C61.4448 137.739 61.4232 137.841 61.4017 137.943L65.3153 138.769Z" fill="#A7004D" mask="url(#path-1-inside-1_1727_1759)"/>
<path d="M162.853 85.2403L112 85.2403M112 85.2403L131.07 104.31M112 85.2403L131.07 66.1704" stroke="#A7004D" stroke-width="2" stroke-linecap="round" stroke-linejoin="round"/>
</svg>
