<svg width="213" height="75" viewBox="0 0 213 75" fill="none" xmlns="http://www.w3.org/2000/svg">
<g clip-path="url(#clip0_318_1123)">
<path d="M35.3269 63.0601C34.3259 63.0601 33.5523 63.0601 33.0518 63.0601V73.0934H34.0073V63.3325H35.0084C36.874 63.3325 37.8296 64.1043 37.8296 65.7387C37.8296 67.3731 37.6021 67.0099 37.1926 67.4639C36.7375 67.9633 36.1005 68.1903 35.2814 68.1903H35.0084V68.5081C35.1449 68.5081 35.3269 68.5081 35.5089 68.5081C36.419 68.5081 37.1926 68.2811 37.8296 67.7363C38.4667 67.1915 38.8307 66.5559 38.8307 65.7841C38.8307 63.9681 37.6476 63.0147 35.3269 63.0601Z" fill="#A7004D"/>
<path d="M46.5208 67.1006C46.9304 66.692 47.1579 66.1472 47.1579 65.5116C47.1579 63.8773 45.9748 63.0601 43.6086 63.0601C42.6075 63.0601 42.016 63.0601 41.834 63.0601V73.1388H42.7896V63.3325H43.4266C45.2467 63.3325 46.1113 64.0135 46.1113 65.5116C46.1113 67.0098 45.3832 67.5092 43.9726 67.5092C42.562 67.5092 43.6541 67.5092 43.5176 67.5092L46.7483 73.0934H47.7949L44.7462 67.7816C45.4742 67.6908 46.0658 67.4638 46.4753 67.0098L46.5208 67.1006Z" fill="#A7004D"/>
<path d="M56.1212 62.9692C54.6651 62.9692 53.4365 63.4686 52.4809 64.4674C51.5708 65.4662 51.0703 66.6466 51.0703 68.0994C51.0703 69.5522 51.5253 70.778 52.4809 71.7313C53.4365 72.7301 54.6651 73.2295 56.1212 73.2295C57.5773 73.2295 58.8059 72.7301 59.7614 71.7313C60.6715 70.778 61.1721 69.5522 61.1721 68.0994C61.1721 66.6466 60.717 65.4662 59.7614 64.4674C58.8059 63.4686 57.6228 62.9692 56.1212 62.9692ZM58.9879 71.5498C58.2598 72.5031 57.3043 73.0025 56.1212 73.0025C54.9381 73.0025 53.9825 72.5031 53.209 71.5498C52.4809 70.6418 52.1624 69.4614 52.1624 68.0994C52.1624 66.7374 52.5264 65.557 53.209 64.649C53.937 63.6956 54.8926 63.1962 56.1212 63.1962C57.3498 63.1962 58.2598 63.6956 58.9879 64.649C59.7159 65.557 60.0345 66.7374 60.0345 68.0994C60.0345 69.4614 59.6704 70.6418 58.9879 71.5498Z" fill="#A7004D"/>
<path d="M64.4941 73.1388H65.4497V67.7362H68.6349V67.4184H65.4497V63.3779H68.999V63.0601H64.4941V73.1388Z" fill="#A7004D"/>
<path d="M73.2306 63.0601H72.2295V73.0934H73.2306V63.0601Z" fill="#A7004D"/>
<path d="M80.0111 67.1006C78.7825 66.3742 78.1909 65.6024 78.2364 64.7398C78.2364 64.3312 78.4639 63.968 78.7825 63.6956C79.101 63.4232 79.556 63.287 80.0111 63.287C80.4661 63.287 80.8301 63.4232 81.2396 63.6956C81.5127 63.8772 81.7402 64.1042 81.9222 64.3312L82.2862 63.968C81.9677 63.5594 81.5127 63.287 80.8756 63.1054C80.6026 63.0146 80.3296 63.0146 80.0111 62.9692C79.3285 62.9692 78.737 63.1508 78.2364 63.514C77.7359 63.8772 77.4629 64.3766 77.4629 65.0122C77.4174 66.238 78.1454 67.2822 79.6925 68.1448C81.0576 68.9166 81.7402 69.8246 81.7402 70.8688C81.7402 71.9129 81.5582 71.9583 81.1941 72.3215C80.8301 72.6847 80.3296 72.8663 79.738 72.8663C79.1465 72.8663 78.1909 72.5485 77.5539 71.9583L77.2354 72.4123C77.9634 72.9571 78.7825 73.2295 79.738 73.2295C80.6936 73.2295 81.1031 73.0025 81.6492 72.5939C82.2407 72.0945 82.5592 71.4589 82.5592 70.6872C82.5592 69.9154 82.4227 69.4614 82.1042 68.962C81.6947 68.3264 81.0121 67.7362 80.0111 67.146V67.1006Z" fill="#A7004D"/>
<path d="M88.6566 67.1006C87.428 66.3742 86.8364 65.6024 86.8819 64.7398C86.8819 64.3312 87.1094 63.968 87.428 63.6956C87.7465 63.4232 88.2015 63.287 88.6566 63.287C89.1116 63.287 89.4756 63.4232 89.8851 63.6956C90.1582 63.8772 90.3857 64.1042 90.5677 64.3312L90.9317 63.968C90.6132 63.5594 90.1582 63.287 89.5211 63.1054C89.2481 63.0146 88.9751 63.0146 88.6566 62.9692C87.974 62.9692 87.3825 63.1508 86.8819 63.514C86.3814 63.8772 86.1084 64.3766 86.1084 65.0122C86.0629 66.238 86.7909 67.2822 88.338 68.1448C89.7031 68.9166 90.3857 69.8246 90.3857 70.8688C90.3857 71.9129 90.2037 71.9583 89.8396 72.3215C89.4756 72.6847 88.9751 72.8663 88.3835 72.8663C87.792 72.8663 86.8364 72.5485 86.1994 71.9583L85.8809 72.4123C86.6089 72.9571 87.428 73.2295 88.3835 73.2295C89.3391 73.2295 89.7486 73.0025 90.2947 72.5939C90.8862 72.0945 91.2047 71.4589 91.2047 70.6872C91.2047 69.9154 91.0682 69.4614 90.7497 68.962C90.3402 68.3264 89.6576 67.7362 88.6566 67.146V67.1006Z" fill="#A7004D"/>
<path d="M95.5733 63.0601H94.5723V73.0934H95.5733V63.0601Z" fill="#A7004D"/>
<path d="M104.674 62.9692C103.218 62.9692 101.989 63.4686 101.034 64.4674C100.124 65.4662 99.623 66.6466 99.623 68.0994C99.623 69.5522 100.078 70.778 101.034 71.7313C101.989 72.7301 103.218 73.2295 104.674 73.2295C106.13 73.2295 107.359 72.7301 108.314 71.7313C109.224 70.778 109.725 69.5522 109.725 68.0994C109.725 66.6466 109.27 65.4662 108.314 64.4674C107.359 63.4686 106.176 62.9692 104.674 62.9692ZM107.541 71.5498C106.813 72.5031 105.857 73.0025 104.674 73.0025C103.491 73.0025 102.535 72.5031 101.762 71.5498C101.034 70.6418 100.715 69.4614 100.715 68.0994C100.715 66.7374 101.079 65.557 101.762 64.649C102.49 63.6956 103.491 63.1962 104.674 63.1962C105.857 63.1962 106.813 63.6956 107.541 64.649C108.269 65.557 108.587 66.7374 108.587 68.0994C108.587 69.4614 108.223 70.6418 107.541 71.5498Z" fill="#A7004D"/>
<path d="M119.189 71.1865L113.001 62.8784V73.1387H113.319V64.9214L119.508 73.2749V63.06H119.189V71.1865Z" fill="#A7004D"/>
<path d="M122.147 73.1387H122.511L125.788 64.6036L127.335 68.5534H125.151V68.8712H127.471L129.109 73.1387H130.156L126.152 62.8784L122.147 73.1387Z" fill="#A7004D"/>
<path d="M134.387 63.0601H133.432V73.1388H138.118V72.821H134.387V63.0601Z" fill="#A7004D"/>
<path d="M26.9995 65.1484H0.516602V71.1412H26.9995V65.1484Z" fill="#A7004D"/>
<path d="M161.416 65.1484H145.035V71.1412H161.416V65.1484Z" fill="#A7004D"/>
<path d="M56.3036 59.8821L62.2646 6.9917H56.7587L31.2313 49.6672L15.5781 6.9917H9.79922L3.88379 59.8821H7.52406L12.3474 16.9796L28.1371 59.8821H29.5477L55.075 16.798L50.2517 59.8821H56.3036Z" fill="#A7004D"/>
<path d="M125.697 39.4974L129.474 5.62939H124.605L120.464 42.4938H140.849L141.259 38.9072C141.259 38.9072 137.983 39.4974 131.021 39.4974C129.2 39.4974 125.697 39.4974 125.697 39.4974Z" fill="#A7004D"/>
<path d="M153.089 23.6076C153.59 19.1585 155.182 5.6748 155.182 5.6748H150.359C150.359 5.6748 149.13 19.0223 148.675 23.426C148.129 28.2384 146.264 42.5392 146.264 42.5392H151.087C151.087 42.5392 152.589 28.3746 153.135 23.6076H153.089Z" fill="#A7004D"/>
<path d="M187.991 15.9352C187.991 15.9352 190.812 13.1658 194.771 12.7118C199.548 12.167 205.6 14.5732 205.964 24.5157H212.517C212.517 24.5157 212.744 8.80748 196.818 8.62588C196.818 8.62588 185.715 7.76329 180.619 16.5254C179.299 13.1658 176.296 9.39767 169.425 9.26147C169.425 9.26147 153.226 8.58048 154.227 25.1059C154.227 25.1059 155.092 32.052 162.463 35.684C162.463 35.684 176.114 41.6767 174.203 50.575C174.203 50.575 172.656 55.8868 166.467 57.2942C162.008 58.3384 156.502 55.7506 152.134 50.2118L151.36 57.2034C151.36 57.2034 164.01 66.7373 175.887 56.1592C175.887 56.1592 184.168 47.9419 177.07 38.0902C177.07 38.0902 176.342 36.592 172.155 33.9134C171.382 33.414 170.29 32.8692 169.425 32.279C166.149 30.0091 162.6 28.1023 160.916 25.1059C159.278 22.2003 159.369 18.296 163.146 15.0726C163.146 15.0726 164.784 13.529 167.878 13.2112C171.609 12.8026 176.296 13.8468 176.569 21.6555H178.708C178.298 23.4715 178.116 25.5599 178.162 27.9207C178.162 27.9207 179.618 37.0914 189.037 41.7221C189.037 41.7221 207.056 49.7578 202.916 61.3801C202.916 61.3801 201.05 68.19 193.087 70.006C187.399 71.3226 180.118 69.2342 174.522 62.1973L173.657 69.8698C173.657 69.8698 189.856 82.0823 205.009 68.5532C205.009 68.5532 215.611 58.066 206.51 45.4449C206.51 45.4449 205.6 43.5381 200.231 40.0877C199.23 39.4522 197.819 38.7712 196.727 38.0448C192.586 35.0938 188.036 32.6876 185.852 28.8741C183.759 25.1967 183.076 19.9758 187.9 15.8444L187.991 15.9352Z" fill="#A7004D"/>
<path d="M117.824 42.5393H118.416C118.416 42.5393 117.051 40.9958 114.002 35.5932C112.227 32.4153 106.812 22.7452 106.812 22.7452C106.812 22.7452 107.54 21.8826 108.587 20.6114C108.587 20.6114 108.587 20.6114 108.633 20.566C110.68 18.1144 113.956 14.21 115.367 12.5303C115.458 12.3941 115.64 12.2125 115.777 12.0309C115.777 12.0309 115.777 12.0309 115.822 11.9401C117.961 9.4885 124.24 2.54237 126.015 0.544794C126.106 0.544794 126.151 0.453995 126.151 0.363196C126.379 0.136199 126.515 0 126.515 0H125.924H121.237C121.237 0.090799 121.146 0.136199 121.146 0.181598L104.947 19.7488L96.9382 5.44794L91.1593 5.67494C91.1593 5.67494 93.9805 9.98789 95.3911 12.5757C96.9837 15.4812 101.489 23.5623 101.489 23.5623C101.489 23.5623 94.026 32.6877 91.6143 35.5478C91.2503 36.0018 91.3413 35.8202 90.8863 36.365L81.8311 2.04298H79.5559C79.5559 2.04298 73.2765 14.4824 69.8182 21.8372C69.7272 22.0188 69.6362 22.2004 69.5452 22.382C65.3134 31.2349 60.3535 39.4522 60.3535 39.4522H64.2213C64.2213 39.4522 66.1324 35.3662 66.7695 34.0042C67.6796 32.0521 70.4553 26.1955 70.4553 26.1955H83.7877L87.337 40.4964C82.8777 45.6719 77.7358 51.5285 77.7358 51.5285H82.1496L103.081 26.3317L112 42.4939H117.779L117.824 42.5393ZM71.5473 23.9255C71.5473 23.9255 73.8225 19.1132 75.2786 15.9806C76.8712 12.5757 79.1919 7.71792 79.1919 7.71792L83.1962 23.9255H71.5473ZM88.2016 39.543H88.2471C88.2471 39.543 88.2471 39.543 88.2016 39.543ZM88.1105 39.6792C87.883 39.9062 87.701 40.1786 87.4735 40.4056L88.1105 39.6792Z" fill="#A7004D"/>
</g>
<defs>
<clipPath id="clip0_318_1123">
<rect width="212" height="75" fill="white" transform="translate(0.516602)"/>
</clipPath>
</defs>
</svg>
