<svg width="224" height="171" viewBox="0 0 224 171" fill="none" xmlns="http://www.w3.org/2000/svg">
<g clip-path="url(#clip0_1930_2477)">
<mask id="mask0_1930_2477" style="mask-type:luminance" maskUnits="userSpaceOnUse" x="0" y="0" width="224" height="171">
<path fill-rule="evenodd" clip-rule="evenodd" d="M160.641 138.356C168.891 139.243 185.901 146.338 187.949 167.624C188.883 177.332 189.143 161.212 189.068 135.671C209.21 129.215 223.791 110.334 223.791 88.048V81.6202C223.791 58.9335 208.681 39.7759 187.976 33.6611C187.967 33.0782 187.958 32.5005 187.949 31.9283V0C186.707 10.0663 180.869 28.5157 167.139 31.6202H50.21C22.595 31.6202 0.210007 54.006 0.210007 81.6202V88.048C0.210007 115.662 22.595 138.048 50.21 138.048H160.576C160.598 138.151 160.62 138.254 160.641 138.356Z" fill="white"/>
</mask>
<g mask="url(#mask0_1930_2477)">
<path d="M160.641 138.356L160.428 140.345L158.985 140.19L158.685 138.769L160.641 138.356ZM189.068 135.671L187.068 135.677L187.063 134.213L188.457 133.766L189.068 135.671ZM187.976 33.6611L187.41 35.5792L185.999 35.1627L185.977 33.6923L187.976 33.6611ZM187.949 31.9283L185.949 31.9599L185.949 31.9441V31.9283H187.949ZM187.949 -1.60486e-05L185.964 -0.244873L189.949 -1.60486e-05H187.949ZM167.139 31.6202L167.58 33.5709L167.363 33.6202H167.139V31.6202ZM160.576 138.048V136.048H162.199L162.534 137.636L160.576 138.048ZM185.958 167.815C184.033 147.807 168.11 141.171 160.428 140.345L160.855 136.368C169.671 137.315 187.769 144.869 189.94 167.432L185.958 167.815ZM191.068 135.665C191.105 148.433 191.059 158.878 190.886 164.923C190.843 166.435 190.791 167.689 190.729 168.643C190.673 169.507 190.599 170.347 190.453 170.864C190.427 170.953 190.321 171.351 190.021 171.72C189.86 171.919 189.452 172.344 188.753 172.455C187.98 172.579 187.396 172.24 187.097 171.982C186.826 171.747 186.678 171.494 186.614 171.377C186.539 171.238 186.489 171.111 186.457 171.021C186.392 170.843 186.347 170.663 186.315 170.515C186.189 169.944 186.074 169.022 185.958 167.815L189.94 167.432C190.057 168.653 190.155 169.351 190.222 169.656C190.238 169.728 190.24 169.721 190.221 169.669C190.212 169.644 190.184 169.569 190.131 169.471C190.09 169.395 189.964 169.172 189.714 168.956C189.437 168.716 188.874 168.385 188.122 168.505C187.445 168.613 187.058 169.024 186.916 169.198C186.761 169.389 186.685 169.56 186.658 169.622C186.626 169.7 186.609 169.756 186.604 169.773C186.595 169.806 186.617 169.725 186.65 169.435C186.679 169.176 186.709 168.828 186.737 168.385C186.795 167.501 186.845 166.301 186.888 164.808C187.059 158.835 187.105 148.449 187.068 135.677L191.068 135.665ZM225.791 88.048C225.791 111.229 210.624 130.862 189.678 137.576L188.457 133.766C207.796 127.568 221.791 109.44 221.791 88.048H225.791ZM225.791 81.6202V88.048H221.791V81.6202H225.791ZM188.543 31.743C210.074 38.1019 225.791 58.0231 225.791 81.6202H221.791C221.791 59.8439 207.288 41.4498 187.41 35.5792L188.543 31.743ZM189.949 31.8968C189.958 32.4691 189.967 33.0469 189.976 33.6299L185.977 33.6923C185.967 33.1095 185.958 32.532 185.949 31.9599L189.949 31.8968ZM189.949 -1.60486e-05V31.9283H185.949V-1.60486e-05H189.949ZM166.698 29.6694C172.747 28.3017 177.256 23.5044 180.462 17.4812C183.653 11.4854 185.366 4.60396 185.964 -0.244873L189.934 0.244841C189.29 5.46233 187.464 12.8388 183.993 19.3605C180.536 25.8546 175.261 31.8342 167.58 33.5709L166.698 29.6694ZM50.21 29.6202H167.139V33.6202H50.21V29.6202ZM-1.78999 81.6202C-1.78999 52.9014 21.491 29.6202 50.21 29.6202V33.6202C23.7 33.6202 2.21001 55.1105 2.21001 81.6202H-1.78999ZM-1.78999 88.048V81.6202H2.21001V88.048H-1.78999ZM50.21 140.048C21.491 140.048 -1.78999 116.767 -1.78999 88.048H2.21001C2.21001 114.558 23.7 136.048 50.21 136.048V140.048ZM160.576 140.048H50.21V136.048H160.576V140.048ZM158.685 138.769C158.663 138.667 158.641 138.563 158.619 138.46L162.534 137.636C162.555 137.739 162.577 137.841 162.598 137.943L158.685 138.769Z" fill="#A7004D"/>
</g>
<path d="M61.147 85.2403H112M112 85.2403L92.93 104.31M112 85.2403L92.93 66.1704" stroke="#A7004D" stroke-width="2" stroke-linecap="round" stroke-linejoin="round"/>
</g>
<defs>
<clipPath id="clip0_1930_2477">
<rect width="224" height="171" fill="white" transform="matrix(-1 0 0 1 224 0)"/>
</clipPath>
</defs>
</svg>
