<svg width="20" height="16" viewBox="0 0 20 16" fill="none" xmlns="http://www.w3.org/2000/svg">
<path fill-rule="evenodd" clip-rule="evenodd" d="M0.899902 1.50001C0.899902 1.15523 1.03687 0.824571 1.28066 0.580774C1.52446 0.336976 1.85512 0.200012 2.1999 0.200012H17.7999C18.1447 0.200012 18.4753 0.336976 18.7191 0.580774C18.9629 0.824571 19.0999 1.15523 19.0999 1.50001C19.0999 1.84479 18.9629 2.17545 18.7191 2.41925C18.4753 2.66305 18.1447 2.80001 17.7999 2.80001H2.1999C1.85512 2.80001 1.52446 2.66305 1.28066 2.41925C1.03687 2.17545 0.899902 1.84479 0.899902 1.50001ZM0.899902 8.00001C0.899902 7.65523 1.03687 7.32457 1.28066 7.08077C1.52446 6.83698 1.85512 6.70001 2.1999 6.70001H17.7999C18.1447 6.70001 18.4753 6.83698 18.7191 7.08077C18.9629 7.32457 19.0999 7.65523 19.0999 8.00001C19.0999 8.34479 18.9629 8.67545 18.7191 8.91925C18.4753 9.16305 18.1447 9.30001 17.7999 9.30001H2.1999C1.85512 9.30001 1.52446 9.16305 1.28066 8.91925C1.03687 8.67545 0.899902 8.34479 0.899902 8.00001ZM8.6999 14.5C8.6999 14.1552 8.83687 13.8246 9.08066 13.5808C9.32446 13.337 9.65512 13.2 9.9999 13.2H17.7999C18.1447 13.2 18.4753 13.337 18.7191 13.5808C18.9629 13.8246 19.0999 14.1552 19.0999 14.5C19.0999 14.8448 18.9629 15.1755 18.7191 15.4193C18.4753 15.663 18.1447 15.8 17.7999 15.8H9.9999C9.65512 15.8 9.32446 15.663 9.08066 15.4193C8.83687 15.1755 8.6999 14.8448 8.6999 14.5Z" fill="#A7004D"/>
</svg>
